M48
; DRILL file {KiCad 7.0.7} date Thu Jan  4 21:27:47 2024
; FORMAT={-:-/ absolute / metric / decimal}
; #@! TF.CreationDate,2024-01-04T21:27:47+01:00
; #@! TF.GenerationSoftware,Kicad,Pcbnew,7.0.7
; #@! TF.FileFunction,Plated,1,2,PTH
FMAT,2
METRIC
; #@! TA.AperFunction,Plated,PTH,ViaDrill
T1C0.400
; #@! TA.AperFunction,Plated,PTH,ComponentDrill
T2C0.800
; #@! TA.AperFunction,Plated,PTH,ComponentDrill
T3C1.000
; #@! TA.AperFunction,Plated,PTH,ComponentDrill
T4C1.020
; #@! TA.AperFunction,Plated,PTH,ComponentDrill
T5C1.100
; #@! TA.AperFunction,Plated,PTH,ComponentDrill
T6C3.200
%
G90
G05
T1
X91.44Y-76.2
X101.6Y-91.44
X106.68Y-127.0
X106.737Y-134.163
X109.957Y-128.372
X110.007Y-137.947
X117.932Y-133.299
X119.38Y-131.353
X119.38Y-142.24
X121.29Y-128.363
T2
X36.322Y-142.026
X36.322Y-147.026
T3
X45.72Y-154.94
X45.72Y-157.48
X45.72Y-160.02
X45.72Y-162.56
X45.72Y-165.1
X55.88Y-38.1
X55.88Y-40.64
X55.88Y-43.18
X55.88Y-45.72
X55.88Y-48.26
X55.88Y-50.8
X55.88Y-53.34
X55.88Y-55.88
X55.88Y-58.42
X55.88Y-60.96
X55.88Y-63.5
X55.88Y-66.04
X55.88Y-68.58
X55.88Y-71.12
X55.88Y-73.66
X55.88Y-76.2
X55.88Y-78.74
X55.88Y-81.28
X55.88Y-83.82
X55.88Y-86.36
X66.04Y-154.94
X66.04Y-157.48
X66.04Y-160.02
X66.04Y-162.56
X66.04Y-165.1
X73.66Y-38.1
X73.66Y-40.64
X73.66Y-43.18
X73.66Y-45.72
X73.66Y-48.26
X73.66Y-50.8
X73.66Y-53.34
X73.66Y-55.88
X73.66Y-58.42
X73.66Y-60.96
X73.66Y-63.5
X73.66Y-66.04
X73.66Y-68.58
X73.66Y-71.12
X73.66Y-73.66
X73.66Y-76.2
X73.66Y-78.74
X73.66Y-81.28
X73.66Y-83.82
X73.66Y-86.36
X94.417Y-157.48
X94.417Y-160.02
X94.417Y-162.56
X94.417Y-165.1
X119.38Y-68.58
X119.38Y-71.12
X119.38Y-73.66
X119.38Y-81.28
X119.38Y-83.82
X119.38Y-86.36
X119.38Y-88.9
X119.38Y-101.6
X121.92Y-101.6
X123.465Y-126.189
X123.465Y-133.809
X124.117Y-154.94
X124.117Y-157.48
X124.117Y-160.02
X124.117Y-162.56
X124.117Y-165.1
X126.005Y-126.189
X126.005Y-133.809
X128.545Y-126.189
X128.545Y-133.809
X131.085Y-126.189
X131.085Y-133.809
T4
X53.307Y-95.348
X53.307Y-97.888
X53.307Y-100.428
X53.307Y-102.968
X53.307Y-105.508
X53.307Y-108.048
X53.307Y-110.588
X53.307Y-113.128
X53.307Y-115.668
X53.307Y-118.208
X53.307Y-120.748
X53.307Y-123.288
X53.307Y-125.828
X53.307Y-128.368
X53.307Y-130.908
X53.307Y-133.448
X53.307Y-135.988
X53.307Y-138.528
X53.307Y-141.068
X53.307Y-143.608
X59.657Y-143.378
X62.197Y-143.378
X64.737Y-143.378
X71.087Y-95.348
X71.087Y-97.888
X71.087Y-100.428
X71.087Y-102.968
X71.087Y-105.508
X71.087Y-108.048
X71.087Y-110.588
X71.087Y-113.128
X71.087Y-115.668
X71.087Y-118.208
X71.087Y-120.748
X71.087Y-123.288
X71.087Y-125.828
X71.087Y-128.368
X71.087Y-130.908
X71.087Y-133.448
X71.087Y-135.988
X71.087Y-138.528
X71.087Y-141.068
X71.087Y-143.608
X93.98Y-93.98
X93.98Y-96.52
X93.98Y-99.06
X93.98Y-101.6
X93.98Y-104.14
X93.98Y-106.68
X93.98Y-109.22
X93.98Y-111.76
X93.98Y-114.3
X93.98Y-116.84
X93.98Y-119.38
X93.98Y-121.92
X93.98Y-124.46
X93.98Y-127.0
X93.98Y-129.54
X93.98Y-132.08
X93.98Y-134.62
X93.98Y-137.16
X93.98Y-139.7
X93.98Y-142.24
X100.33Y-142.01
X102.87Y-142.01
X105.41Y-142.01
X111.76Y-93.98
X111.76Y-96.52
X111.76Y-99.06
X111.76Y-101.6
X111.76Y-104.14
X111.76Y-106.68
X111.76Y-109.22
X111.76Y-111.76
X111.76Y-114.3
X111.76Y-116.84
X111.76Y-119.38
X111.76Y-121.92
X111.76Y-124.46
X111.76Y-127.0
X111.76Y-129.54
X111.76Y-132.08
X111.76Y-134.62
X111.76Y-137.16
X111.76Y-139.7
X111.76Y-142.24
T5
X32.31Y-79.03
X32.31Y-83.53
X38.81Y-79.03
X38.81Y-83.53
T6
X33.02Y-160.02
X35.82Y-164.82
X38.82Y-160.02
X81.28Y-159.12
X81.28Y-164.92
X86.08Y-162.12
T0
M30
