G04 #@! TF.GenerationSoftware,KiCad,Pcbnew,7.0.7*
G04 #@! TF.CreationDate,2024-01-04T21:27:51+01:00*
G04 #@! TF.ProjectId,InternalPCB,496e7465-726e-4616-9c50-43422e6b6963,A*
G04 #@! TF.SameCoordinates,Original*
G04 #@! TF.FileFunction,Copper,L1,Top*
G04 #@! TF.FilePolarity,Positive*
%FSLAX46Y46*%
G04 Gerber Fmt 4.6, Leading zero omitted, Abs format (unit mm)*
G04 Created by KiCad (PCBNEW 7.0.7) date 2024-01-04 21:27:51*
%MOMM*%
%LPD*%
G01*
G04 APERTURE LIST*
G04 Aperture macros list*
%AMRoundRect*
0 Rectangle with rounded corners*
0 $1 Rounding radius*
0 $2 $3 $4 $5 $6 $7 $8 $9 X,Y pos of 4 corners*
0 Add a 4 corners polygon primitive as box body*
4,1,4,$2,$3,$4,$5,$6,$7,$8,$9,$2,$3,0*
0 Add four circle primitives for the rounded corners*
1,1,$1+$1,$2,$3*
1,1,$1+$1,$4,$5*
1,1,$1+$1,$6,$7*
1,1,$1+$1,$8,$9*
0 Add four rect primitives between the rounded corners*
20,1,$1+$1,$2,$3,$4,$5,0*
20,1,$1+$1,$4,$5,$6,$7,0*
20,1,$1+$1,$6,$7,$8,$9,0*
20,1,$1+$1,$8,$9,$2,$3,0*%
G04 Aperture macros list end*
G04 #@! TA.AperFunction,ComponentPad*
%ADD10R,1.700000X1.700000*%
G04 #@! TD*
G04 #@! TA.AperFunction,ComponentPad*
%ADD11O,1.700000X1.700000*%
G04 #@! TD*
G04 #@! TA.AperFunction,ComponentPad*
%ADD12C,1.700000*%
G04 #@! TD*
G04 #@! TA.AperFunction,SMDPad,CuDef*
%ADD13R,3.500000X1.700000*%
G04 #@! TD*
G04 #@! TA.AperFunction,SMDPad,CuDef*
%ADD14R,1.700000X3.500000*%
G04 #@! TD*
G04 #@! TA.AperFunction,ComponentPad*
%ADD15C,2.000000*%
G04 #@! TD*
G04 #@! TA.AperFunction,ComponentPad*
%ADD16C,1.600000*%
G04 #@! TD*
G04 #@! TA.AperFunction,SMDPad,CuDef*
%ADD17RoundRect,0.100000X0.712500X0.100000X-0.712500X0.100000X-0.712500X-0.100000X0.712500X-0.100000X0*%
G04 #@! TD*
G04 #@! TA.AperFunction,ComponentPad*
%ADD18C,4.800000*%
G04 #@! TD*
G04 #@! TA.AperFunction,ViaPad*
%ADD19C,0.800000*%
G04 #@! TD*
G04 #@! TA.AperFunction,Conductor*
%ADD20C,1.270000*%
G04 #@! TD*
G04 #@! TA.AperFunction,Conductor*
%ADD21C,0.254000*%
G04 #@! TD*
G04 #@! TA.AperFunction,Conductor*
%ADD22C,0.508000*%
G04 #@! TD*
G04 APERTURE END LIST*
D10*
X45720000Y-165100000D03*
D11*
X45720000Y-162560000D03*
X45720000Y-160020000D03*
X45720000Y-157480000D03*
X45720000Y-154940000D03*
D10*
X94417500Y-165100000D03*
D12*
X94417500Y-162560000D03*
X94417500Y-160020000D03*
X94417500Y-157480000D03*
X124117500Y-154940000D03*
X124117500Y-157480000D03*
X124117500Y-160020000D03*
X124117500Y-162560000D03*
X124117500Y-165100000D03*
D11*
X93980000Y-93980000D03*
D13*
X93080000Y-93980000D03*
D11*
X93980000Y-96520000D03*
D13*
X93080000Y-96520000D03*
D10*
X93980000Y-99060000D03*
D13*
X93080000Y-99060000D03*
D11*
X93980000Y-101600000D03*
D13*
X93080000Y-101600000D03*
D11*
X93980000Y-104140000D03*
D13*
X93080000Y-104140000D03*
D11*
X93980000Y-106680000D03*
D13*
X93080000Y-106680000D03*
D11*
X93980000Y-109220000D03*
D13*
X93080000Y-109220000D03*
D10*
X93980000Y-111760000D03*
D13*
X93080000Y-111760000D03*
D11*
X93980000Y-114300000D03*
D13*
X93080000Y-114300000D03*
D11*
X93980000Y-116840000D03*
D13*
X93080000Y-116840000D03*
D11*
X93980000Y-119380000D03*
D13*
X93080000Y-119380000D03*
D11*
X93980000Y-121920000D03*
D13*
X93080000Y-121920000D03*
D10*
X93980000Y-124460000D03*
D13*
X93080000Y-124460000D03*
D11*
X93980000Y-127000000D03*
D13*
X93080000Y-127000000D03*
D11*
X93980000Y-129540000D03*
D13*
X93080000Y-129540000D03*
D11*
X93980000Y-132080000D03*
D13*
X93080000Y-132080000D03*
D11*
X93980000Y-134620000D03*
D13*
X93080000Y-134620000D03*
D10*
X93980000Y-137160000D03*
D13*
X93080000Y-137160000D03*
D11*
X93980000Y-139700000D03*
D13*
X93080000Y-139700000D03*
D11*
X93980000Y-142240000D03*
D13*
X93080000Y-142240000D03*
D11*
X111760000Y-142240000D03*
D13*
X112660000Y-142240000D03*
D11*
X111760000Y-139700000D03*
D13*
X112660000Y-139700000D03*
D10*
X111760000Y-137160000D03*
D13*
X112660000Y-137160000D03*
D11*
X111760000Y-134620000D03*
D13*
X112660000Y-134620000D03*
D11*
X111760000Y-132080000D03*
D13*
X112660000Y-132080000D03*
D11*
X111760000Y-129540000D03*
D13*
X112660000Y-129540000D03*
D11*
X111760000Y-127000000D03*
D13*
X112660000Y-127000000D03*
D10*
X111760000Y-124460000D03*
D13*
X112660000Y-124460000D03*
D11*
X111760000Y-121920000D03*
D13*
X112660000Y-121920000D03*
D11*
X111760000Y-119380000D03*
D13*
X112660000Y-119380000D03*
D11*
X111760000Y-116840000D03*
D13*
X112660000Y-116840000D03*
D11*
X111760000Y-114300000D03*
D13*
X112660000Y-114300000D03*
D10*
X111760000Y-111760000D03*
D13*
X112660000Y-111760000D03*
D11*
X111760000Y-109220000D03*
D13*
X112660000Y-109220000D03*
D11*
X111760000Y-106680000D03*
D13*
X112660000Y-106680000D03*
D11*
X111760000Y-104140000D03*
D13*
X112660000Y-104140000D03*
D11*
X111760000Y-101600000D03*
D13*
X112660000Y-101600000D03*
D10*
X111760000Y-99060000D03*
D13*
X112660000Y-99060000D03*
D11*
X111760000Y-96520000D03*
D13*
X112660000Y-96520000D03*
D11*
X111760000Y-93980000D03*
D13*
X112660000Y-93980000D03*
D11*
X100330000Y-142010000D03*
D14*
X100330000Y-142910000D03*
D10*
X102870000Y-142010000D03*
D14*
X102870000Y-142910000D03*
D11*
X105410000Y-142010000D03*
D14*
X105410000Y-142910000D03*
D10*
X131084775Y-126188605D03*
D11*
X128544775Y-126188605D03*
X126004775Y-126188605D03*
X123464775Y-126188605D03*
D15*
X32310000Y-79030000D03*
X38810000Y-79030000D03*
X32310000Y-83530000D03*
X38810000Y-83530000D03*
D16*
X36322000Y-147026000D03*
X36322000Y-142026000D03*
D10*
X55880000Y-86360000D03*
D11*
X55880000Y-83820000D03*
X55880000Y-81280000D03*
X55880000Y-78740000D03*
X55880000Y-76200000D03*
X55880000Y-73660000D03*
X55880000Y-71120000D03*
X55880000Y-68580000D03*
X55880000Y-66040000D03*
X55880000Y-63500000D03*
X55880000Y-60960000D03*
X55880000Y-58420000D03*
X55880000Y-55880000D03*
X55880000Y-53340000D03*
X55880000Y-50800000D03*
X55880000Y-48260000D03*
X55880000Y-45720000D03*
X55880000Y-43180000D03*
X55880000Y-40640000D03*
X55880000Y-38100000D03*
D17*
X104989100Y-131723705D03*
X104989100Y-131073705D03*
X104989100Y-130423705D03*
X104989100Y-129773705D03*
X100764100Y-129773705D03*
X100764100Y-130423705D03*
X100764100Y-131073705D03*
X100764100Y-131723705D03*
D10*
X119380000Y-73660000D03*
D11*
X119380000Y-71120000D03*
X119380000Y-68580000D03*
D10*
X73660000Y-86360000D03*
D11*
X73660000Y-83820000D03*
X73660000Y-81280000D03*
X73660000Y-78740000D03*
X73660000Y-76200000D03*
X73660000Y-73660000D03*
X73660000Y-71120000D03*
X73660000Y-68580000D03*
X73660000Y-66040000D03*
X73660000Y-63500000D03*
X73660000Y-60960000D03*
X73660000Y-58420000D03*
X73660000Y-55880000D03*
X73660000Y-53340000D03*
X73660000Y-50800000D03*
X73660000Y-48260000D03*
X73660000Y-45720000D03*
X73660000Y-43180000D03*
X73660000Y-40640000D03*
X73660000Y-38100000D03*
D10*
X66040000Y-154940000D03*
D11*
X66040000Y-157480000D03*
X66040000Y-160020000D03*
X66040000Y-162560000D03*
X66040000Y-165100000D03*
X53306695Y-95347874D03*
D13*
X52406695Y-95347874D03*
D11*
X53306695Y-97887874D03*
D13*
X52406695Y-97887874D03*
D10*
X53306695Y-100427874D03*
D13*
X52406695Y-100427874D03*
D11*
X53306695Y-102967874D03*
D13*
X52406695Y-102967874D03*
D11*
X53306695Y-105507874D03*
D13*
X52406695Y-105507874D03*
D11*
X53306695Y-108047874D03*
D13*
X52406695Y-108047874D03*
D11*
X53306695Y-110587874D03*
D13*
X52406695Y-110587874D03*
D10*
X53306695Y-113127874D03*
D13*
X52406695Y-113127874D03*
D11*
X53306695Y-115667874D03*
D13*
X52406695Y-115667874D03*
D11*
X53306695Y-118207874D03*
D13*
X52406695Y-118207874D03*
D11*
X53306695Y-120747874D03*
D13*
X52406695Y-120747874D03*
D11*
X53306695Y-123287874D03*
D13*
X52406695Y-123287874D03*
D10*
X53306695Y-125827874D03*
D13*
X52406695Y-125827874D03*
D11*
X53306695Y-128367874D03*
D13*
X52406695Y-128367874D03*
D11*
X53306695Y-130907874D03*
D13*
X52406695Y-130907874D03*
D11*
X53306695Y-133447874D03*
D13*
X52406695Y-133447874D03*
D11*
X53306695Y-135987874D03*
D13*
X52406695Y-135987874D03*
D10*
X53306695Y-138527874D03*
D13*
X52406695Y-138527874D03*
D11*
X53306695Y-141067874D03*
D13*
X52406695Y-141067874D03*
D11*
X53306695Y-143607874D03*
D13*
X52406695Y-143607874D03*
D11*
X71086695Y-143607874D03*
D13*
X71986695Y-143607874D03*
D11*
X71086695Y-141067874D03*
D13*
X71986695Y-141067874D03*
D10*
X71086695Y-138527874D03*
D13*
X71986695Y-138527874D03*
D11*
X71086695Y-135987874D03*
D13*
X71986695Y-135987874D03*
D11*
X71086695Y-133447874D03*
D13*
X71986695Y-133447874D03*
D11*
X71086695Y-130907874D03*
D13*
X71986695Y-130907874D03*
D11*
X71086695Y-128367874D03*
D13*
X71986695Y-128367874D03*
D10*
X71086695Y-125827874D03*
D13*
X71986695Y-125827874D03*
D11*
X71086695Y-123287874D03*
D13*
X71986695Y-123287874D03*
D11*
X71086695Y-120747874D03*
D13*
X71986695Y-120747874D03*
D11*
X71086695Y-118207874D03*
D13*
X71986695Y-118207874D03*
D11*
X71086695Y-115667874D03*
D13*
X71986695Y-115667874D03*
D10*
X71086695Y-113127874D03*
D13*
X71986695Y-113127874D03*
D11*
X71086695Y-110587874D03*
D13*
X71986695Y-110587874D03*
D11*
X71086695Y-108047874D03*
D13*
X71986695Y-108047874D03*
D11*
X71086695Y-105507874D03*
D13*
X71986695Y-105507874D03*
D11*
X71086695Y-102967874D03*
D13*
X71986695Y-102967874D03*
D10*
X71086695Y-100427874D03*
D13*
X71986695Y-100427874D03*
D11*
X71086695Y-97887874D03*
D13*
X71986695Y-97887874D03*
D11*
X71086695Y-95347874D03*
D13*
X71986695Y-95347874D03*
D11*
X59656695Y-143377874D03*
D14*
X59656695Y-144277874D03*
D10*
X62196695Y-143377874D03*
D14*
X62196695Y-144277874D03*
D11*
X64736695Y-143377874D03*
D14*
X64736695Y-144277874D03*
D10*
X119380000Y-81280000D03*
D11*
X119380000Y-83820000D03*
X119380000Y-86360000D03*
X119380000Y-88900000D03*
D18*
X81280000Y-159120000D03*
X81280000Y-164920000D03*
X86080000Y-162120000D03*
D10*
X121920000Y-101600000D03*
D11*
X119380000Y-101600000D03*
D10*
X131084775Y-133808605D03*
D11*
X128544775Y-133808605D03*
X126004775Y-133808605D03*
X123464775Y-133808605D03*
D18*
X38820000Y-160020000D03*
X33020000Y-160020000D03*
X35820000Y-164820000D03*
D19*
X106736541Y-134162800D03*
X91440000Y-76200000D03*
X119380000Y-142240000D03*
X121290380Y-128363000D03*
X109956600Y-128371600D03*
X117932200Y-133299200D03*
X110007400Y-137947400D03*
X106680000Y-127000000D03*
X119380000Y-131353000D03*
X101600000Y-91440000D03*
D20*
X76200000Y-96202874D02*
X74515000Y-97887874D01*
X66040000Y-127000000D02*
X55880000Y-137160000D01*
X66040000Y-165100000D02*
X64355000Y-166785000D01*
X74515000Y-97887874D02*
X71086695Y-97887874D01*
X69884614Y-97887874D02*
X66040000Y-101732488D01*
X66040000Y-165100000D02*
X75300000Y-165100000D01*
X38820000Y-160020000D02*
X38820000Y-149524000D01*
X73660000Y-83820000D02*
X74862081Y-83820000D01*
X42190888Y-166785000D02*
X38820000Y-163414112D01*
X76200000Y-85157919D02*
X76200000Y-96202874D01*
X55880000Y-166785000D02*
X42190888Y-166785000D01*
X74862081Y-83820000D02*
X76200000Y-85157919D01*
X66040000Y-101732488D02*
X66040000Y-127000000D01*
X86037500Y-156720000D02*
X94417500Y-165100000D01*
X55880000Y-137160000D02*
X55880000Y-166785000D01*
X64355000Y-166785000D02*
X55880000Y-166785000D01*
X75300000Y-165100000D02*
X81280000Y-159120000D01*
X38820000Y-149524000D02*
X36322000Y-147026000D01*
X38820000Y-163414112D02*
X38820000Y-160020000D01*
X81280000Y-159120000D02*
X83680000Y-156720000D01*
X83680000Y-156720000D02*
X86037500Y-156720000D01*
X71086695Y-97887874D02*
X69884614Y-97887874D01*
D21*
X95504000Y-127276104D02*
X95504000Y-125984000D01*
X100764100Y-131723705D02*
X99951601Y-131723705D01*
X99951601Y-131723705D02*
X95504000Y-127276104D01*
X95504000Y-125984000D02*
X93980000Y-124460000D01*
D22*
X73660000Y-58420000D02*
X79829000Y-64589000D01*
X79829000Y-118291000D02*
X74832126Y-123287874D01*
X74832126Y-123287874D02*
X71086695Y-123287874D01*
X79829000Y-64589000D02*
X79829000Y-118291000D01*
X80537000Y-60217000D02*
X80537000Y-122663000D01*
X73660000Y-53340000D02*
X80537000Y-60217000D01*
X80537000Y-122663000D02*
X74832126Y-128367874D01*
X74832126Y-128367874D02*
X71086695Y-128367874D01*
X81280000Y-58420000D02*
X73660000Y-50800000D01*
X71086695Y-130907874D02*
X73816126Y-130907874D01*
X73816126Y-130907874D02*
X81280000Y-123444000D01*
X81280000Y-123444000D02*
X81280000Y-58420000D01*
X81988000Y-125022000D02*
X73562126Y-133447874D01*
X73660000Y-48260000D02*
X81988000Y-56588000D01*
X81988000Y-56588000D02*
X81988000Y-125022000D01*
X73562126Y-133447874D02*
X71086695Y-133447874D01*
X82696000Y-54756000D02*
X82696000Y-127108000D01*
X73660000Y-45720000D02*
X82696000Y-54756000D01*
X82696000Y-127108000D02*
X73816126Y-135987874D01*
X73816126Y-135987874D02*
X71086695Y-135987874D01*
X73660000Y-40640000D02*
X83404000Y-50384000D01*
X73562126Y-141067874D02*
X71086695Y-141067874D01*
X83404000Y-50384000D02*
X83404000Y-131226000D01*
X83404000Y-131226000D02*
X73562126Y-141067874D01*
X73562126Y-143607874D02*
X71086695Y-143607874D01*
X73660000Y-38100000D02*
X84112000Y-48552000D01*
X84112000Y-48552000D02*
X84112000Y-133058000D01*
X84112000Y-133058000D02*
X73562126Y-143607874D01*
X46720000Y-77740000D02*
X46720000Y-106680000D01*
X53340000Y-71120000D02*
X46720000Y-77740000D01*
X50627874Y-110587874D02*
X53306695Y-110587874D01*
X55880000Y-71120000D02*
X53340000Y-71120000D01*
X46720000Y-106680000D02*
X50627874Y-110587874D01*
X49919874Y-115667874D02*
X53306695Y-115667874D01*
X46012000Y-75908000D02*
X46012000Y-111760000D01*
X55880000Y-66040000D02*
X46012000Y-75908000D01*
X46012000Y-111760000D02*
X49919874Y-115667874D01*
X49627874Y-118207874D02*
X53306695Y-118207874D01*
X45304000Y-113884000D02*
X49627874Y-118207874D01*
X45304000Y-74076000D02*
X45304000Y-113884000D01*
X55880000Y-63500000D02*
X45304000Y-74076000D01*
X49899959Y-120747874D02*
X53306695Y-120747874D01*
X44596000Y-115443915D02*
X49899959Y-120747874D01*
X55880000Y-60960000D02*
X44596000Y-72244000D01*
X44596000Y-72244000D02*
X44596000Y-115443915D01*
X55880000Y-58420000D02*
X43888000Y-70412000D01*
X50389874Y-123287874D02*
X53306695Y-123287874D01*
X43888000Y-70412000D02*
X43888000Y-116786000D01*
X43888000Y-116786000D02*
X50389874Y-123287874D01*
X49881874Y-128367874D02*
X53306695Y-128367874D01*
X43180000Y-121666000D02*
X49881874Y-128367874D01*
X43180000Y-66040000D02*
X43180000Y-121666000D01*
X55880000Y-53340000D02*
X43180000Y-66040000D01*
X58067695Y-52987695D02*
X58067695Y-126146874D01*
X58067695Y-126146874D02*
X53306695Y-130907874D01*
X55880000Y-50800000D02*
X58067695Y-52987695D01*
X61025695Y-125728874D02*
X53306695Y-133447874D01*
X55880000Y-48260000D02*
X61025695Y-53405695D01*
X61025695Y-53405695D02*
X61025695Y-125728874D01*
X63367695Y-53207695D02*
X63367695Y-125926874D01*
X63367695Y-125926874D02*
X53306695Y-135987874D01*
X55880000Y-45720000D02*
X63367695Y-53207695D01*
X50359296Y-38100000D02*
X42472000Y-45987296D01*
X42472000Y-136198000D02*
X49881874Y-143607874D01*
X55880000Y-38100000D02*
X50359296Y-38100000D01*
X42472000Y-45987296D02*
X42472000Y-136198000D01*
X49881874Y-143607874D02*
X53306695Y-143607874D01*
D20*
X78232000Y-80772000D02*
X78232000Y-101790874D01*
D21*
X119380000Y-101600000D02*
X120557000Y-100423000D01*
D20*
X119233000Y-102692000D02*
X117785000Y-104140000D01*
X119380000Y-100770000D02*
X121920000Y-98230000D01*
D21*
X120557000Y-100423000D02*
X123097000Y-100423000D01*
D20*
X78232000Y-101790874D02*
X74515000Y-105507874D01*
D21*
X131084775Y-108410775D02*
X131084775Y-126188605D01*
D20*
X117785000Y-104140000D02*
X111760000Y-104140000D01*
X121920000Y-83820000D02*
X119380000Y-81280000D01*
D21*
X123097000Y-100423000D02*
X131084775Y-108410775D01*
D20*
X74515000Y-105507874D02*
X71086695Y-105507874D01*
D21*
X106736541Y-133471146D02*
X104989100Y-131723705D01*
D20*
X121920000Y-98230000D02*
X121920000Y-83820000D01*
X73660000Y-76200000D02*
X78232000Y-80772000D01*
X119380000Y-101600000D02*
X119380000Y-100770000D01*
D21*
X106736541Y-134162800D02*
X106736541Y-133471146D01*
D20*
X114300000Y-76200000D02*
X119380000Y-81280000D01*
X91440000Y-76200000D02*
X114300000Y-76200000D01*
D21*
X104989100Y-131073705D02*
X105801599Y-131073705D01*
X109220000Y-134492106D02*
X109220000Y-139700000D01*
X128544775Y-126188605D02*
X129721775Y-127365605D01*
X129721775Y-134438225D02*
X121920000Y-142240000D01*
X121920000Y-142240000D02*
X119380000Y-142240000D01*
X105801599Y-131073705D02*
X109220000Y-134492106D01*
X129721775Y-127365605D02*
X129721775Y-134438225D01*
X109220000Y-139700000D02*
X111760000Y-142240000D01*
X111760000Y-132080000D02*
X120113380Y-132080000D01*
X111760000Y-132080000D02*
X110103705Y-130423705D01*
X110103705Y-130423705D02*
X104989100Y-130423705D01*
X120113380Y-132080000D02*
X126004775Y-126188605D01*
X121920000Y-101600000D02*
X121920000Y-124643830D01*
X104989100Y-129773705D02*
X106399805Y-128363000D01*
X121290380Y-128363000D02*
X123464775Y-126188605D01*
X106399805Y-128363000D02*
X109948000Y-128363000D01*
X121920000Y-124643830D02*
X123464775Y-126188605D01*
X109948000Y-128363000D02*
X109956600Y-128371600D01*
X101576599Y-131073705D02*
X106680000Y-136177106D01*
X100764100Y-131073705D02*
X101576599Y-131073705D01*
X112197000Y-135057000D02*
X111760000Y-134620000D01*
X109220000Y-144780000D02*
X116840000Y-144780000D01*
X116840000Y-137160000D02*
X114300000Y-134620000D01*
X128544775Y-133808605D02*
X127296380Y-135057000D01*
X106680000Y-142240000D02*
X109220000Y-144780000D01*
X114300000Y-134620000D02*
X111760000Y-134620000D01*
X116840000Y-144780000D02*
X116840000Y-137160000D01*
X106680000Y-136177106D02*
X106680000Y-142240000D01*
X127296380Y-135057000D02*
X112197000Y-135057000D01*
X113828000Y-144326000D02*
X111306000Y-144326000D01*
X111306000Y-144326000D02*
X107134000Y-140154000D01*
X118076000Y-133443000D02*
X117932200Y-133299200D01*
X111760000Y-139700000D02*
X110007400Y-137947400D01*
X114737000Y-141063000D02*
X114737000Y-143417000D01*
X121368395Y-132631605D02*
X124827775Y-132631605D01*
X120557000Y-133443000D02*
X118076000Y-133443000D01*
X101568652Y-130423705D02*
X100764100Y-130423705D01*
X113374000Y-139700000D02*
X114737000Y-141063000D01*
X120557000Y-133443000D02*
X121368395Y-132631605D01*
X124827775Y-132631605D02*
X126004775Y-133808605D01*
X111760000Y-139700000D02*
X113374000Y-139700000D01*
X107134000Y-135989053D02*
X101568652Y-130423705D01*
X114737000Y-143417000D02*
X113828000Y-144326000D01*
X107134000Y-140154000D02*
X107134000Y-135989053D01*
X111466705Y-129246705D02*
X111760000Y-129540000D01*
X103537805Y-127000000D02*
X106680000Y-127000000D01*
X100764100Y-129773705D02*
X103537805Y-127000000D01*
X111760000Y-129540000D02*
X117567000Y-129540000D01*
X117567000Y-129540000D02*
X119380000Y-131353000D01*
D22*
X116840000Y-88900000D02*
X119380000Y-86360000D01*
X103639739Y-88900000D02*
X116840000Y-88900000D01*
X99914000Y-90586000D02*
X101953739Y-90586000D01*
X101953739Y-90586000D02*
X103639739Y-88900000D01*
X98741000Y-104459000D02*
X98741000Y-91759000D01*
X93980000Y-109220000D02*
X98741000Y-104459000D01*
X98741000Y-91759000D02*
X99914000Y-90586000D01*
X116840000Y-91440000D02*
X101600000Y-91440000D01*
X119380000Y-88900000D02*
X116840000Y-91440000D01*
X132388775Y-82096775D02*
X132388775Y-84128775D01*
X133350000Y-145707500D02*
X124117500Y-154940000D01*
X121412000Y-71120000D02*
X132388775Y-82096775D01*
X133350000Y-85090000D02*
X133350000Y-145707500D01*
X132388775Y-84128775D02*
X133350000Y-85090000D01*
X119380000Y-71120000D02*
X121412000Y-71120000D01*
X73660000Y-154940000D02*
X86360000Y-142240000D01*
X86360000Y-109220000D02*
X91440000Y-104140000D01*
X66040000Y-154940000D02*
X73660000Y-154940000D01*
X86360000Y-142240000D02*
X86360000Y-109220000D01*
X91440000Y-104140000D02*
X93980000Y-104140000D01*
X73660000Y-160020000D02*
X87376000Y-146304000D01*
X91440000Y-119380000D02*
X93980000Y-119380000D01*
X87376000Y-146304000D02*
X87376000Y-123444000D01*
X66040000Y-160020000D02*
X73660000Y-160020000D01*
X87376000Y-123444000D02*
X91440000Y-119380000D01*
X93980000Y-157042500D02*
X94417500Y-157480000D01*
X93980000Y-142240000D02*
X93980000Y-157042500D01*
X113932000Y-160020000D02*
X96520000Y-142608000D01*
X96520000Y-142608000D02*
X96520000Y-129540000D01*
X124117500Y-160020000D02*
X113932000Y-160020000D01*
X96520000Y-129540000D02*
X93980000Y-127000000D01*
X95284000Y-143544000D02*
X114300000Y-162560000D01*
X114300000Y-162560000D02*
X124117500Y-162560000D01*
X95284000Y-130844000D02*
X95284000Y-143544000D01*
X93980000Y-129540000D02*
X95284000Y-130844000D01*
M02*
