G04 #@! TF.GenerationSoftware,KiCad,Pcbnew,7.0.7*
G04 #@! TF.CreationDate,2024-01-04T21:27:51+01:00*
G04 #@! TF.ProjectId,InternalPCB,496e7465-726e-4616-9c50-43422e6b6963,A*
G04 #@! TF.SameCoordinates,Original*
G04 #@! TF.FileFunction,Legend,Bot*
G04 #@! TF.FilePolarity,Positive*
%FSLAX46Y46*%
G04 Gerber Fmt 4.6, Leading zero omitted, Abs format (unit mm)*
G04 Created by KiCad (PCBNEW 7.0.7) date 2024-01-04 21:27:51*
%MOMM*%
%LPD*%
G01*
G04 APERTURE LIST*
%ADD10R,1.700000X1.700000*%
%ADD11O,1.700000X1.700000*%
%ADD12C,1.700000*%
%ADD13O,1.800000X1.800000*%
%ADD14O,1.500000X1.500000*%
%ADD15C,2.000000*%
%ADD16C,1.600000*%
%ADD17C,4.800000*%
G04 APERTURE END LIST*
%LPC*%
D10*
X45720000Y-165100000D03*
D11*
X45720000Y-162560000D03*
X45720000Y-160020000D03*
X45720000Y-157480000D03*
X45720000Y-154940000D03*
D10*
X94417500Y-165100000D03*
D12*
X94417500Y-162560000D03*
X94417500Y-160020000D03*
X94417500Y-157480000D03*
X124117500Y-154940000D03*
X124117500Y-157480000D03*
X124117500Y-160020000D03*
X124117500Y-162560000D03*
X124117500Y-165100000D03*
D13*
X100145000Y-94110000D03*
D14*
X100445000Y-97140000D03*
X105295000Y-97140000D03*
D13*
X105595000Y-94110000D03*
D11*
X93980000Y-93980000D03*
X93980000Y-96520000D03*
D10*
X93980000Y-99060000D03*
D11*
X93980000Y-101600000D03*
X93980000Y-104140000D03*
X93980000Y-106680000D03*
X93980000Y-109220000D03*
D10*
X93980000Y-111760000D03*
D11*
X93980000Y-114300000D03*
X93980000Y-116840000D03*
X93980000Y-119380000D03*
X93980000Y-121920000D03*
D10*
X93980000Y-124460000D03*
D11*
X93980000Y-127000000D03*
X93980000Y-129540000D03*
X93980000Y-132080000D03*
X93980000Y-134620000D03*
D10*
X93980000Y-137160000D03*
D11*
X93980000Y-139700000D03*
X93980000Y-142240000D03*
X111760000Y-142240000D03*
X111760000Y-139700000D03*
D10*
X111760000Y-137160000D03*
D11*
X111760000Y-134620000D03*
X111760000Y-132080000D03*
X111760000Y-129540000D03*
X111760000Y-127000000D03*
D10*
X111760000Y-124460000D03*
D11*
X111760000Y-121920000D03*
X111760000Y-119380000D03*
X111760000Y-116840000D03*
X111760000Y-114300000D03*
D10*
X111760000Y-111760000D03*
D11*
X111760000Y-109220000D03*
X111760000Y-106680000D03*
X111760000Y-104140000D03*
X111760000Y-101600000D03*
D10*
X111760000Y-99060000D03*
D11*
X111760000Y-96520000D03*
X111760000Y-93980000D03*
X100330000Y-142010000D03*
D10*
X102870000Y-142010000D03*
D11*
X105410000Y-142010000D03*
D10*
X131084775Y-126188605D03*
D11*
X128544775Y-126188605D03*
X126004775Y-126188605D03*
X123464775Y-126188605D03*
D15*
X32310000Y-79030000D03*
X38810000Y-79030000D03*
X32310000Y-83530000D03*
X38810000Y-83530000D03*
D16*
X36322000Y-147026000D03*
X36322000Y-142026000D03*
D10*
X55880000Y-86360000D03*
D11*
X55880000Y-83820000D03*
X55880000Y-81280000D03*
X55880000Y-78740000D03*
X55880000Y-76200000D03*
X55880000Y-73660000D03*
X55880000Y-71120000D03*
X55880000Y-68580000D03*
X55880000Y-66040000D03*
X55880000Y-63500000D03*
X55880000Y-60960000D03*
X55880000Y-58420000D03*
X55880000Y-55880000D03*
X55880000Y-53340000D03*
X55880000Y-50800000D03*
X55880000Y-48260000D03*
X55880000Y-45720000D03*
X55880000Y-43180000D03*
X55880000Y-40640000D03*
X55880000Y-38100000D03*
D10*
X119380000Y-73660000D03*
D11*
X119380000Y-71120000D03*
X119380000Y-68580000D03*
D10*
X73660000Y-86360000D03*
D11*
X73660000Y-83820000D03*
X73660000Y-81280000D03*
X73660000Y-78740000D03*
X73660000Y-76200000D03*
X73660000Y-73660000D03*
X73660000Y-71120000D03*
X73660000Y-68580000D03*
X73660000Y-66040000D03*
X73660000Y-63500000D03*
X73660000Y-60960000D03*
X73660000Y-58420000D03*
X73660000Y-55880000D03*
X73660000Y-53340000D03*
X73660000Y-50800000D03*
X73660000Y-48260000D03*
X73660000Y-45720000D03*
X73660000Y-43180000D03*
X73660000Y-40640000D03*
X73660000Y-38100000D03*
D10*
X66040000Y-154940000D03*
D11*
X66040000Y-157480000D03*
X66040000Y-160020000D03*
X66040000Y-162560000D03*
X66040000Y-165100000D03*
D13*
X59471695Y-95477874D03*
D14*
X59771695Y-98507874D03*
X64621695Y-98507874D03*
D13*
X64921695Y-95477874D03*
D11*
X53306695Y-95347874D03*
X53306695Y-97887874D03*
D10*
X53306695Y-100427874D03*
D11*
X53306695Y-102967874D03*
X53306695Y-105507874D03*
X53306695Y-108047874D03*
X53306695Y-110587874D03*
D10*
X53306695Y-113127874D03*
D11*
X53306695Y-115667874D03*
X53306695Y-118207874D03*
X53306695Y-120747874D03*
X53306695Y-123287874D03*
D10*
X53306695Y-125827874D03*
D11*
X53306695Y-128367874D03*
X53306695Y-130907874D03*
X53306695Y-133447874D03*
X53306695Y-135987874D03*
D10*
X53306695Y-138527874D03*
D11*
X53306695Y-141067874D03*
X53306695Y-143607874D03*
X71086695Y-143607874D03*
X71086695Y-141067874D03*
D10*
X71086695Y-138527874D03*
D11*
X71086695Y-135987874D03*
X71086695Y-133447874D03*
X71086695Y-130907874D03*
X71086695Y-128367874D03*
D10*
X71086695Y-125827874D03*
D11*
X71086695Y-123287874D03*
X71086695Y-120747874D03*
X71086695Y-118207874D03*
X71086695Y-115667874D03*
D10*
X71086695Y-113127874D03*
D11*
X71086695Y-110587874D03*
X71086695Y-108047874D03*
X71086695Y-105507874D03*
X71086695Y-102967874D03*
D10*
X71086695Y-100427874D03*
D11*
X71086695Y-97887874D03*
X71086695Y-95347874D03*
X59656695Y-143377874D03*
D10*
X62196695Y-143377874D03*
D11*
X64736695Y-143377874D03*
D10*
X119380000Y-81280000D03*
D11*
X119380000Y-83820000D03*
X119380000Y-86360000D03*
X119380000Y-88900000D03*
D17*
X81280000Y-159120000D03*
X81280000Y-164920000D03*
X86080000Y-162120000D03*
D10*
X121920000Y-101600000D03*
D11*
X119380000Y-101600000D03*
D10*
X131084775Y-133808605D03*
D11*
X128544775Y-133808605D03*
X126004775Y-133808605D03*
X123464775Y-133808605D03*
D17*
X38820000Y-160020000D03*
X33020000Y-160020000D03*
X35820000Y-164820000D03*
%LPD*%
M02*
