<?xml version="1.0" encoding="utf-8"?>
<svg viewBox="0 0 320 240" style="shape-rendering: crispedges;" xmlns="http://www.w3.org/2000/svg">
  <defs>
    <filter id="gaussian-blur-filter-0" color-interpolation-filters="sRGB" x="-50%" y="-50%" width="200%" height="200%">
      <feGaussianBlur stdDeviation="0.3 0.3" edgeMode="none"/>
    </filter>
  </defs>
  <rect width="320" height="240" style="fill: rgb(238, 238, 238);" transform="matrix(1, 0, 0, 1, -2.842170943040401e-14, 0)"/>
  <g style="filter: url('#gaussian-blur-filter-0'); opacity: 0.2; transform-origin: 160px 0px;">
    <path d="M 173 118 L 185 123 L 186 117 Z" style="fill: rgb(87,227,161);"/>
    <path d="M 180 137 L 192 127 L 185 123 Z" style="fill: rgb(93,207,163);"/>
    <path d="M 185 123 L 192 127 L 186 117 Z" style="fill: rgb(91,216,162);"/>
    <path d="M 173 118 L 180 137 L 185 123 Z" style="fill: rgb(89,220,161);"/>
    <path d="M 192 127 L 198 113 L 186 117 Z" style="fill: rgb(91,213,163);"/>
    <path d="M 186 117 L 167 101 L 173 118 Z" style="fill: rgb(85,228,165);"/>
    <path d="M 173 118 L 163 131 L 180 137 Z" style="fill: rgb(88,225,161);"/>
    <path d="M 178 93 L 167 101 L 186 117 Z" style="fill: rgb(87,219,170);"/>
    <path d="M 150 110 L 151 128 L 163 131 Z" style="fill: rgb(76,246,160);"/>
    <path d="M 193 141 L 204 122 L 192 127 Z" style="fill: rgb(95,192,164);"/>
    <path d="M 192 127 L 204 122 L 198 113 Z" style="fill: rgb(93,205,163);"/>
    <path d="M 180 137 L 193 141 L 192 127 Z" style="fill: rgb(95,194,164);"/>
    <path d="M 193 95 L 178 93 L 186 117 Z" style="fill: rgb(90,207,172);"/>
    <path d="M 216 98 L 193 95 L 198 113 Z" style="fill: rgb(92,186,174);"/>
    <path d="M 198 113 L 193 95 L 186 117 Z" style="fill: rgb(91,204,169);"/>
    <path d="M 163 131 L 165 144 L 180 137 Z" style="fill: rgb(91,214,162);"/>
    <path d="M 180 137 L 180 160 L 193 141 Z" style="fill: rgb(96,180,165);"/>
    <path d="M 150 110 L 163 131 L 173 118 Z" style="fill: rgb(73,252,158);"/>
    <path d="M 163 131 L 152 142 L 165 144 Z" style="fill: rgb(88,223,161);"/>
    <path d="M 149 98 L 150 110 L 167 101 Z" style="fill: rgb(79,237,171);"/>
    <path d="M 167 101 L 150 110 L 173 118 Z" style="fill: rgb(78,242,165);"/>
    <path d="M 219 131 L 213 115 L 204 122 Z" style="fill: rgb(96,185,164);"/>
    <path d="M 204 122 L 213 115 L 198 113 Z" style="fill: rgb(94,195,165);"/>
    <path d="M 151 128 L 152 142 L 163 131 Z" style="fill: rgb(86,229,162);"/>
    <path d="M 159 82 L 149 98 L 167 101 Z" style="fill: rgb(80,231,175);"/>
    <path d="M 134 129 L 143 137 L 151 128 Z" style="fill: rgb(86,224,168);"/>
    <path d="M 193 141 L 213 136 L 204 122 Z" style="fill: rgb(96,178,165);"/>
    <path d="M 212 78 L 190 83 L 193 95 Z" style="fill: rgb(89,177,182);"/>
    <path d="M 193 95 L 190 83 L 178 93 Z" style="fill: rgb(89,195,179);"/>
    <path d="M 178 93 L 166 84 L 167 101 Z" style="fill: rgb(85,218,176);"/>
    <path d="M 180 81 L 166 84 L 178 93 Z" style="fill: rgb(86,207,180);"/>
    <path d="M 190 83 L 180 81 L 178 93 Z" style="fill: rgb(88,197,181);"/>
    <path d="M 134 129 L 151 128 L 150 110 Z" style="fill: rgb(78,241,165);"/>
    <path d="M 151 128 L 143 137 L 152 142 Z" style="fill: rgb(88,221,166);"/>
    <path d="M 166 159 L 180 160 L 165 144 Z" style="fill: rgb(96,184,164);"/>
    <path d="M 165 144 L 180 160 L 180 137 Z" style="fill: rgb(96,190,164);"/>
    <path d="M 193 141 L 207 157 L 213 136 Z" style="fill: rgb(96,158,166);"/>
    <path d="M 166 159 L 165 144 L 149 157 Z" style="fill: rgb(94,198,163);"/>
    <path d="M 213 136 L 219 131 L 204 122 Z" style="fill: rgb(97,173,165);"/>
    <path d="M 221 107 L 216 98 L 213 115 Z" style="fill: rgb(94,172,172);"/>
    <path d="M 213 115 L 216 98 L 198 113 Z" style="fill: rgb(94,183,170);"/>
    <path d="M 149 157 L 165 144 L 152 142 Z" style="fill: rgb(93,205,165);"/>
    <path d="M 167 65 L 159 82 L 166 84 Z" style="fill: rgb(82,213,185);"/>
    <path d="M 166 84 L 159 82 L 167 101 Z" style="fill: rgb(82,223,178);"/>
    <path d="M 233 123 L 221 107 L 213 115 Z" style="fill: rgb(96,172,168);"/>
    <path d="M 180 160 L 201 159 L 193 141 Z" style="fill: rgb(96,160,166);"/>
    <path d="M 213 136 L 224 140 L 219 131 Z" style="fill: rgb(96,155,166);"/>
    <path d="M 190 83 L 185 74 L 180 81 Z" style="fill: rgb(87,189,185);"/>
    <path d="M 180 81 L 167 65 L 166 84 Z" style="fill: rgb(84,204,185);"/>
    <path d="M 193 72 L 185 74 L 190 83 Z" style="fill: rgb(86,181,187);"/>
    <path d="M 165 168 L 186 165 L 180 160 Z" style="fill: rgb(96,159,166);"/>
    <path d="M 180 160 L 186 165 L 201 159 Z" style="fill: rgb(95,150,166);"/>
    <path d="M 132 107 L 134 129 L 150 110 Z" style="fill: rgb(79,237,171);"/>
    <path d="M 137 149 L 149 157 L 152 142 Z" style="fill: rgb(93,196,169);"/>
    <path d="M 205 174 L 207 157 L 201 159 Z" style="fill: rgb(91,128,167);"/>
    <path d="M 201 159 L 207 157 L 193 141 Z" style="fill: rgb(95,150,166);"/>
    <path d="M 133 81 L 136 100 L 149 98 Z" style="fill: rgb(81,218,184);"/>
    <path d="M 149 98 L 136 100 L 150 110 Z" style="fill: rgb(80,230,176);"/>
    <path d="M 221 107 L 219 92 L 216 98 Z" style="fill: rgb(92,163,176);"/>
    <path d="M 216 98 L 212 78 L 193 95 Z" style="fill: rgb(90,171,180);"/>
    <path d="M 137 149 L 152 142 L 143 137 Z" style="fill: rgb(91,206,169);"/>
    <path d="M 166 159 L 165 168 L 180 160 Z" style="fill: rgb(97,171,165);"/>
    <path d="M 212 78 L 193 72 L 190 83 Z" style="fill: rgb(86,171,187);"/>
    <path d="M 207 157 L 224 140 L 213 136 Z" style="fill: rgb(95,146,166);"/>
    <path d="M 219 131 L 233 123 L 213 115 Z" style="fill: rgb(97,172,165);"/>
    <path d="M 136 100 L 132 107 L 150 110 Z" style="fill: rgb(80,229,176);"/>
    <path d="M 205 174 L 194 167 L 198 190 Z" style="fill: rgb(87,112,167);"/>
    <path d="M 186 165 L 194 167 L 201 159 Z" style="fill: rgb(94,140,166);"/>
    <path d="M 149 157 L 165 168 L 166 159 Z" style="fill: rgb(96,185,164);"/>
    <path d="M 134 129 L 137 149 L 143 137 Z" style="fill: rgb(89,210,171);"/>
    <path d="M 149 157 L 156 175 L 165 168 Z" style="fill: rgb(96,174,166);"/>
    <path d="M 219 92 L 212 78 L 216 98 Z" style="fill: rgb(89,159,181);"/>
    <path d="M 237 135 L 233 123 L 219 131 Z" style="fill: rgb(95,151,166);"/>
    <path d="M 221 107 L 236 98 L 219 92 Z" style="fill: rgb(91,155,176);"/>
    <path d="M 233 123 L 233 110 L 221 107 Z" style="fill: rgb(95,163,169);"/>
    <path d="M 230 83 L 215 74 L 212 78 Z" style="fill: rgb(84,146,187);"/>
    <path d="M 114 115 L 125 117 L 132 107 Z" style="fill: rgb(81,225,179);"/>
    <path d="M 132 107 L 125 117 L 134 129 Z" style="fill: rgb(79,234,173);"/>
    <path d="M 134 129 L 124 132 L 137 149 Z" style="fill: rgb(89,208,174);"/>
    <path d="M 177 61 L 167 65 L 185 74 Z" style="fill: rgb(83,189,191);"/>
    <path d="M 185 74 L 167 65 L 180 81 Z" style="fill: rgb(85,193,188);"/>
    <path d="M 159 82 L 133 81 L 149 98 Z" style="fill: rgb(81,218,184);"/>
    <path d="M 125 117 L 124 132 L 134 129 Z" style="fill: rgb(84,224,174);"/>
    <path d="M 230 83 L 212 78 L 219 92 Z" style="fill: rgb(86,149,184);"/>
    <path d="M 212 78 L 201 59 L 193 72 Z" style="fill: rgb(83,160,191);"/>
    <path d="M 193 72 L 177 61 L 185 74 Z" style="fill: rgb(84,180,191);"/>
    <path d="M 201 59 L 177 61 L 193 72 Z" style="fill: rgb(82,169,194);"/>
    <path d="M 231 153 L 237 135 L 224 140 Z" style="fill: rgb(92,129,167);"/>
    <path d="M 224 140 L 237 135 L 219 131 Z" style="fill: rgb(95,146,166);"/>
    <path d="M 233 123 L 248 117 L 233 110 Z" style="fill: rgb(95,154,168);"/>
    <path d="M 231 153 L 224 140 L 207 157 Z" style="fill: rgb(92,130,167);"/>
    <path d="M 155 64 L 133 81 L 159 82 Z" style="fill: rgb(80,210,190);"/>
    <path d="M 136 100 L 119 95 L 132 107 Z" style="fill: rgb(81,218,184);"/>
    <path d="M 248 117 L 236 98 L 233 110 Z" style="fill: rgb(92,146,172);"/>
    <path d="M 233 110 L 236 98 L 221 107 Z" style="fill: rgb(92,154,173);"/>
    <path d="M 157 58 L 155 64 L 167 65 Z" style="fill: rgb(80,205,193);"/>
    <path d="M 167 65 L 155 64 L 159 82 Z" style="fill: rgb(81,212,188);"/>
    <path d="M 183 189 L 194 167 L 186 165 Z" style="fill: rgb(92,131,167);"/>
    <path d="M 194 167 L 205 174 L 201 159 Z" style="fill: rgb(91,128,167);"/>
    <path d="M 135 169 L 156 175 L 149 157 Z" style="fill: rgb(94,168,170);"/>
    <path d="M 165 168 L 171 188 L 186 165 Z" style="fill: rgb(95,148,166);"/>
    <path d="M 135 169 L 149 157 L 137 149 Z" style="fill: rgb(94,178,172);"/>
    <path d="M 227 166 L 231 153 L 207 157 Z" style="fill: rgb(88,115,167);"/>
    <path d="M 234 87 L 230 83 L 219 92 Z" style="fill: rgb(86,143,182);"/>
    <path d="M 133 81 L 125 89 L 136 100 Z" style="fill: rgb(81,211,189);"/>
    <path d="M 107 124 L 120 139 L 124 132 Z" style="fill: rgb(86,207,179);"/>
    <path d="M 114 115 L 124 132 L 125 117 Z" style="fill: rgb(81,227,176);"/>
    <path d="M 124 132 L 120 139 L 137 149 Z" style="fill: rgb(89,200,176);"/>
    <path d="M 236 98 L 234 87 L 219 92 Z" style="fill: rgb(88,145,180);"/>
    <path d="M 211 53 L 201 59 L 215 74 Z" style="fill: rgb(77,145,195);"/>
    <path d="M 215 74 L 201 59 L 212 78 Z" style="fill: rgb(82,151,191);"/>
    <path d="M 177 61 L 164 56 L 167 65 Z" style="fill: rgb(81,192,194);"/>
    <path d="M 155 64 L 133 66 L 133 81 Z" style="fill: rgb(78,200,197);"/>
    <path d="M 176 36 L 164 56 L 177 61 Z" style="fill: rgb(112,186,180);"/>
    <path d="M 164 56 L 157 58 L 167 65 Z" style="fill: rgb(81,200,194);"/>
    <path d="M 125 89 L 119 95 L 136 100 Z" style="fill: rgb(81,212,189);"/>
    <path d="M 120 139 L 127 158 L 137 149 Z" style="fill: rgb(91,186,177);"/>
    <path d="M 119 95 L 114 115 L 132 107 Z" style="fill: rgb(81,218,184);"/>
    <path d="M 205 174 L 227 166 L 207 157 Z" style="fill: rgb(88,114,167);"/>
    <path d="M 259 122 L 248 117 L 237 135 Z" style="fill: rgb(109,149,164);"/>
    <path d="M 127 158 L 135 169 L 137 149 Z" style="fill: rgb(92,173,175);"/>
    <path d="M 238 72 L 224 68 L 230 83 Z" style="fill: rgb(78,129,189);"/>
    <path d="M 230 83 L 224 68 L 215 74 Z" style="fill: rgb(81,139,189);"/>
    <path d="M 256 147 L 237 135 L 231 153 Z" style="fill: rgb(90,115,166);"/>
    <path d="M 237 135 L 248 117 L 233 123 Z" style="fill: rgb(95,147,166);"/>
    <path d="M 259 89 L 238 72 L 234 87 Z" style="fill: rgb(87,125,184);"/>
    <path d="M 227 166 L 234 161 L 231 153 Z" style="fill: rgb(83,102,167);"/>
    <path d="M 148 185 L 171 188 L 156 175 Z" style="fill: rgb(102,154,165);"/>
    <path d="M 156 175 L 171 188 L 165 168 Z" style="fill: rgb(96,155,166);"/>
    <path d="M 205 174 L 220 184 L 227 166 Z" style="fill: rgb(80,94,167);"/>
    <path d="M 125 89 L 115 93 L 119 95 Z" style="fill: rgb(80,205,193);"/>
    <path d="M 119 95 L 115 93 L 114 115 Z" style="fill: rgb(80,210,190);"/>
    <path d="M 112 88 L 115 93 L 125 89 Z" style="fill: rgb(79,202,195);"/>
    <path d="M 112 88 L 125 89 L 113 67 Z" style="fill: rgb(77,194,200);"/>
    <path d="M 171 188 L 183 189 L 186 165 Z" style="fill: rgb(94,131,166);"/>
    <path d="M 132 50 L 133 66 L 155 64 Z" style="fill: rgb(75,191,202);"/>
    <path d="M 91 122 L 107 124 L 91 109 Z" style="fill: rgb(81,213,188);"/>
    <path d="M 114 115 L 107 124 L 124 132 Z" style="fill: rgb(83,220,179);"/>
    <path d="M 115 157 L 124 167 L 127 158 Z" style="fill: rgb(90,163,180);"/>
    <path d="M 224 68 L 211 53 L 215 74 Z" style="fill: rgb(77,138,194);"/>
    <path d="M 201 59 L 189 40 L 177 61 Z" style="fill: rgb(104,166,185);"/>
    <path d="M 135 169 L 148 185 L 156 175 Z" style="fill: rgb(93,152,171);"/>
    <path d="M 183 189 L 198 190 L 194 167 Z" style="fill: rgb(93,117,166);"/>
    <path d="M 227 166 L 242 170 L 234 161 Z" style="fill: rgb(78,88,167);"/>
    <path d="M 115 157 L 127 158 L 120 139 Z" style="fill: rgb(90,177,180);"/>
    <path d="M 127 158 L 124 167 L 135 169 Z" style="fill: rgb(91,160,177);"/>
    <path d="M 135 169 L 134 187 L 148 185 Z" style="fill: rgb(91,142,174);"/>
    <path d="M 113 67 L 125 89 L 133 81 Z" style="fill: rgb(77,197,199);"/>
    <path d="M 115 93 L 95 95 L 114 115 Z" style="fill: rgb(80,205,193);"/>
    <path d="M 105 144 L 115 157 L 120 139 Z" style="fill: rgb(89,180,182);"/>
    <path d="M 259 89 L 234 87 L 236 98 Z" style="fill: rgb(91,132,180);"/>
    <path d="M 234 87 L 238 72 L 230 83 Z" style="fill: rgb(80,130,186);"/>
    <path d="M 224 68 L 224 57 L 211 53 Z" style="fill: rgb(75,130,195);"/>
    <path d="M 198 190 L 214 187 L 205 174 Z" style="fill: rgb(92,100,165);"/>
    <path d="M 241 59 L 224 57 L 224 68 Z" style="fill: rgb(68,120,195);"/>
    <path d="M 214 187 L 220 184 L 205 174 Z" style="fill: rgb(83,91,166);"/>
    <path d="M 265 113 L 256 102 L 248 117 Z" style="fill: rgb(122,151,165);"/>
    <path d="M 248 117 L 256 102 L 236 98 Z" style="fill: rgb(104,144,171);"/>
    <path d="M 183 189 L 199 195 L 198 190 Z" style="fill: rgb(113,117,162);"/>
    <path d="M 198 190 L 208 199 L 214 187 Z" style="fill: rgb(110,101,162);"/>
    <path d="M 214 187 L 221 201 L 220 184 Z" style="fill: rgb(101,86,162);"/>
    <path d="M 180 203 L 199 195 L 183 189 Z" style="fill: rgb(124,125,160);"/>
    <path d="M 170 197 L 183 189 L 171 188 Z" style="fill: rgb(119,140,161);"/>
    <path d="M 152 200 L 170 197 L 171 188 Z" style="fill: rgb(129,154,159);"/>
    <path d="M 107 124 L 105 144 L 120 139 Z" style="fill: rgb(87,197,183);"/>
    <path d="M 256 147 L 231 153 L 253 159 Z" style="fill: rgb(96,103,165);"/>
    <path d="M 256 147 L 259 122 L 237 135 Z" style="fill: rgb(111,133,163);"/>
    <path d="M 197 29 L 189 40 L 211 53 Z" style="fill: rgb(133,149,165);"/>
    <path d="M 211 53 L 189 40 L 201 59 Z" style="fill: rgb(110,151,181);"/>
    <path d="M 164 56 L 163 35 L 157 58 Z" style="fill: rgb(116,199,177);"/>
    <path d="M 121 51 L 119 64 L 133 66 Z" style="fill: rgb(70,182,209);"/>
    <path d="M 235 187 L 242 170 L 227 166 Z" style="fill: rgb(70,74,166);"/>
    <path d="M 253 159 L 231 153 L 234 161 Z" style="fill: rgb(81,95,167);"/>
    <path d="M 132 50 L 155 64 L 157 58 Z" style="fill: rgb(89,195,195);"/>
    <path d="M 133 66 L 119 64 L 133 81 Z" style="fill: rgb(76,192,202);"/>
    <path d="M 125 184 L 124 167 L 110 169 Z" style="fill: rgb(86,141,181);"/>
    <path d="M 125 184 L 135 169 L 124 167 Z" style="fill: rgb(89,146,178);"/>
    <path d="M 125 184 L 134 187 L 135 169 Z" style="fill: rgb(88,137,177);"/>
    <path d="M 148 185 L 152 200 L 171 188 Z" style="fill: rgb(121,156,162);"/>
    <path d="M 189 40 L 176 36 L 177 61 Z" style="fill: rgb(126,174,172);"/>
    <path d="M 242 170 L 253 159 L 234 161 Z" style="fill: rgb(82,85,166);"/>
    <path d="M 146 35 L 132 50 L 157 58 Z" style="fill: rgb(120,191,180);"/>
    <path d="M 169 212 L 180 203 L 170 197 Z" style="fill: rgb(144,145,156);"/>
    <path d="M 170 197 L 180 203 L 183 189 Z" style="fill: rgb(128,138,159);"/>
    <path d="M 105 50 L 113 67 L 119 64 Z" style="fill: rgb(65,174,213);"/>
    <path d="M 119 64 L 113 67 L 133 81 Z" style="fill: rgb(74,188,204);"/>
    <path d="M 112 88 L 99 89 L 115 93 Z" style="fill: rgb(77,196,199);"/>
    <path d="M 208 211 L 208 199 L 199 195 Z" style="fill: rgb(129,104,158);"/>
    <path d="M 199 195 L 208 199 L 198 190 Z" style="fill: rgb(117,107,161);"/>
    <path d="M 220 184 L 235 187 L 227 166 Z" style="fill: rgb(71,75,166);"/>
    <path d="M 271 101 L 259 89 L 256 102 Z" style="fill: rgb(126,141,170);"/>
    <path d="M 256 102 L 259 89 L 236 98 Z" style="fill: rgb(107,137,175);"/>
    <path d="M 238 72 L 241 59 L 224 68 Z" style="fill: rgb(70,118,193);"/>
    <path d="M 110 169 L 124 167 L 115 157 Z" style="fill: rgb(88,153,182);"/>
    <path d="M 135 202 L 152 200 L 148 185 Z" style="fill: rgb(128,150,165);"/>
    <path d="M 135 202 L 148 185 L 134 187 Z" style="fill: rgb(118,145,169);"/>
    <path d="M 273 131 L 265 113 L 259 122 Z" style="fill: rgb(137,157,157);"/>
    <path d="M 259 122 L 265 113 L 248 117 Z" style="fill: rgb(125,156,161);"/>
    <path d="M 273 131 L 259 122 L 256 147 Z" style="fill: rgb(129,138,159);"/>
    <path d="M 176 36 L 163 35 L 164 56 Z" style="fill: rgb(134,189,165);"/>
    <path d="M 91 149 L 110 169 L 115 157 Z" style="fill: rgb(86,156,186);"/>
    <path d="M 247 61 L 241 59 L 238 72 Z" style="fill: rgb(70,110,193);"/>
    <path d="M 224 57 L 218 40 L 211 53 Z" style="fill: rgb(106,129,180);"/>
    <path d="M 113 67 L 99 89 L 112 88 Z" style="fill: rgb(74,189,204);"/>
    <path d="M 107 124 L 91 140 L 105 144 Z" style="fill: rgb(86,190,187);"/>
    <path d="M 221 201 L 235 187 L 220 184 Z" style="fill: rgb(98,77,162);"/>
    <path d="M 242 170 L 258 167 L 253 159 Z" style="fill: rgb(95,83,163);"/>
    <path d="M 238 43 L 218 40 L 224 57 Z" style="fill: rgb(111,117,175);"/>
    <path d="M 189 40 L 182 20 L 176 36 Z" style="fill: rgb(153,167,149);"/>
    <path d="M 83 103 L 95 95 L 75 84 Z" style="fill: rgb(72,185,207);"/>
    <path d="M 99 89 L 95 95 L 115 93 Z" style="fill: rgb(77,195,200);"/>
    <path d="M 105 144 L 91 149 L 115 157 Z" style="fill: rgb(86,169,187);"/>
    <path d="M 91 109 L 107 124 L 114 115 Z" style="fill: rgb(81,215,186);"/>
    <path d="M 259 73 L 247 61 L 238 72 Z" style="fill: rgb(88,114,189);"/>
    <path d="M 220 24 L 216 34 L 234 24 Z" style="fill: rgb(149,113,145);"/>
    <path d="M 146 35 L 130 45 L 132 50 Z" style="fill: rgb(130,184,176);"/>
    <path d="M 132 50 L 121 51 L 133 66 Z" style="fill: rgb(91,183,200);"/>
    <path d="M 95 95 L 91 109 L 114 115 Z" style="fill: rgb(80,205,193);"/>
    <path d="M 130 45 L 121 51 L 132 50 Z" style="fill: rgb(114,180,189);"/>
    <path d="M 75 84 L 95 95 L 99 89 Z" style="fill: rgb(72,184,207);"/>
    <path d="M 163 35 L 146 35 L 157 58 Z" style="fill: rgb(133,196,167);"/>
    <path d="M 91 122 L 91 140 L 107 124 Z" style="fill: rgb(84,199,188);"/>
    <path d="M 216 34 L 197 29 L 211 53 Z" style="fill: rgb(135,137,162);"/>
    <path d="M 176 36 L 171 26 L 163 35 Z" style="fill: rgb(154,183,149);"/>
    <path d="M 146 29 L 144 32 L 146 35 Z" style="fill: rgb(154,186,153);"/>
    <path d="M 259 89 L 259 73 L 238 72 Z" style="fill: rgb(102,123,183);"/>
    <path d="M 265 79 L 259 73 L 259 89 Z" style="fill: rgb(118,126,179);"/>
    <path d="M 208 199 L 221 201 L 214 187 Z" style="fill: rgb(114,92,160);"/>
    <path d="M 208 211 L 221 201 L 208 199 Z" style="fill: rgb(129,95,157);"/>
    <path d="M 257 183 L 258 167 L 242 170 Z" style="fill: rgb(91,69,163);"/>
    <path d="M 253 159 L 266 158 L 256 147 Z" style="fill: rgb(113,101,161);"/>
    <path d="M 257 183 L 242 170 L 235 187 Z" style="fill: rgb(71,58,165);"/>
    <path d="M 177 216 L 189 211 L 180 203 Z" style="fill: rgb(152,136,153);"/>
    <path d="M 180 203 L 189 211 L 199 195 Z" style="fill: rgb(137,125,157);"/>
    <path d="M 238 43 L 224 57 L 241 59 Z" style="fill: rgb(91,110,185);"/>
    <path d="M 218 40 L 216 34 L 211 53 Z" style="fill: rgb(125,130,168);"/>
    <path d="M 277 110 L 271 101 L 265 113 Z" style="fill: rgb(143,151,162);"/>
    <path d="M 265 113 L 271 101 L 256 102 Z" style="fill: rgb(132,148,165);"/>
    <path d="M 106 194 L 127 196 L 125 184 Z" style="fill: rgb(112,133,177);"/>
    <path d="M 125 184 L 127 196 L 134 187 Z" style="fill: rgb(110,138,174);"/>
    <path d="M 152 200 L 158 210 L 170 197 Z" style="fill: rgb(144,161,155);"/>
    <path d="M 103 184 L 125 184 L 110 169 Z" style="fill: rgb(81,127,184);"/>
    <path d="M 182 20 L 171 26 L 176 36 Z" style="fill: rgb(161,174,141);"/>
    <path d="M 136 217 L 158 210 L 152 200 Z" style="fill: rgb(154,156,157);"/>
    <path d="M 91 140 L 91 149 L 105 144 Z" style="fill: rgb(85,173,189);"/>
    <path d="M 158 210 L 169 212 L 170 197 Z" style="fill: rgb(150,155,154);"/>
    <path d="M 146 29 L 146 35 L 163 35 Z" style="fill: rgb(153,191,152);"/>
    <path d="M 146 35 L 132 35 L 130 45 Z" style="fill: rgb(141,182,168);"/>
    <path d="M 130 45 L 122 28 L 121 51 Z" style="fill: rgb(133,176,178);"/>
    <path d="M 273 144 L 273 131 L 256 147 Z" style="fill: rgb(133,126,158);"/>
    <path d="M 81 131 L 87 136 L 91 122 Z" style="fill: rgb(82,191,192);"/>
    <path d="M 91 122 L 87 136 L 91 140 Z" style="fill: rgb(83,189,191);"/>
    <path d="M 91 140 L 82 152 L 91 149 Z" style="fill: rgb(82,164,193);"/>
    <path d="M 127 196 L 135 202 L 134 187 Z" style="fill: rgb(124,142,170);"/>
    <path d="M 271 101 L 265 79 L 259 89 Z" style="fill: rgb(128,135,173);"/>
    <path d="M 258 167 L 266 158 L 253 159 Z" style="fill: rgb(110,90,161);"/>
    <path d="M 252 35 L 238 43 L 247 61 Z" style="fill: rgb(115,101,172);"/>
    <path d="M 247 61 L 238 43 L 241 59 Z" style="fill: rgb(88,104,186);"/>
    <path d="M 270 66 L 247 61 L 259 73 Z" style="fill: rgb(108,114,187);"/>
    <path d="M 151 11 L 146 29 L 163 35 Z" style="fill: rgb(167,190,138);"/>
    <path d="M 144 32 L 132 35 L 146 35 Z" style="fill: rgb(150,184,159);"/>
    <path d="M 193 226 L 208 211 L 189 211 Z" style="fill: rgb(157,118,151);"/>
    <path d="M 189 211 L 208 211 L 199 195 Z" style="fill: rgb(139,113,156);"/>
    <path d="M 136 14 L 132 35 L 144 32 Z" style="fill: rgb(162,180,149);"/>
    <path d="M 266 158 L 273 144 L 256 147 Z" style="fill: rgb(126,111,159);"/>
    <path d="M 224 210 L 234 199 L 221 201 Z" style="fill: rgb(122,77,157);"/>
    <path d="M 221 201 L 234 199 L 235 187 Z" style="fill: rgb(106,71,160);"/>
    <path d="M 258 167 L 268 165 L 266 158 Z" style="fill: rgb(116,87,159);"/>
    <path d="M 166 226 L 177 216 L 169 212 Z" style="fill: rgb(168,152,149);"/>
    <path d="M 169 212 L 177 216 L 180 203 Z" style="fill: rgb(154,144,153);"/>
    <path d="M 273 131 L 277 110 L 265 113 Z" style="fill: rgb(146,160,156);"/>
    <path d="M 271 101 L 278 99 L 265 79 Z" style="fill: rgb(139,139,169);"/>
    <path d="M 284 130 L 277 110 L 273 131 Z" style="fill: rgb(154,157,153);"/>
    <path d="M 95 95 L 83 103 L 91 109 Z" style="fill: rgb(77,195,200);"/>
    <path d="M 91 109 L 77 107 L 91 122 Z" style="fill: rgb(79,201,196);"/>
    <path d="M 95 63 L 99 89 L 113 67 Z" style="fill: rgb(68,178,211);"/>
    <path d="M 95 63 L 113 67 L 105 50 Z" style="fill: rgb(60,169,217);"/>
    <path d="M 91 149 L 99 175 L 110 169 Z" style="fill: rgb(82,143,189);"/>
    <path d="M 180 15 L 182 20 L 201 7 Z" style="fill: rgb(178,155,120);"/>
    <path d="M 197 29 L 182 20 L 189 40 Z" style="fill: rgb(155,158,146);"/>
    <path d="M 171 26 L 151 11 L 163 35 Z" style="fill: rgb(169,192,133);"/>
    <path d="M 214 21 L 197 29 L 216 34 Z" style="fill: rgb(153,132,145);"/>
    <path d="M 77 107 L 81 131 L 91 122 Z" style="fill: rgb(80,205,193);"/>
    <path d="M 87 136 L 82 152 L 91 140 Z" style="fill: rgb(82,170,193);"/>
    <path d="M 91 149 L 84 171 L 99 175 Z" style="fill: rgb(78,137,192);"/>
    <path d="M 267 181 L 268 165 L 258 167 Z" style="fill: rgb(112,74,159);"/>
    <path d="M 266 158 L 279 151 L 273 144 Z" style="fill: rgb(135,110,156);"/>
    <path d="M 277 110 L 278 99 L 271 101 Z" style="fill: rgb(147,148,163);"/>
    <path d="M 254 194 L 257 183 L 235 187 Z" style="fill: rgb(97,58,160);"/>
    <path d="M 99 175 L 103 184 L 110 169 Z" style="fill: rgb(78,127,187);"/>
    <path d="M 127 196 L 126 211 L 135 202 Z" style="fill: rgb(139,142,167);"/>
    <path d="M 227 227 L 224 210 L 208 211 Z" style="fill: rgb(147,87,152);"/>
    <path d="M 208 211 L 224 210 L 221 201 Z" style="fill: rgb(133,89,155);"/>
    <path d="M 234 199 L 254 194 L 235 187 Z" style="fill: rgb(96,58,160);"/>
    <path d="M 105 50 L 119 64 L 121 51 Z" style="fill: rgb(90,174,204);"/>
    <path d="M 103 41 L 105 50 L 121 51 Z" style="fill: rgb(114,168,194);"/>
    <path d="M 81 131 L 82 152 L 87 136 Z" style="fill: rgb(82,173,194);"/>
    <path d="M 93 189 L 106 194 L 103 184 Z" style="fill: rgb(100,120,184);"/>
    <path d="M 279 151 L 281 138 L 273 144 Z" style="fill: rgb(145,122,155);"/>
    <path d="M 273 144 L 281 138 L 273 131 Z" style="fill: rgb(146,133,155);"/>
    <path d="M 294 96 L 287 87 L 278 99 Z" style="fill: rgb(159,142,164);"/>
    <path d="M 234 24 L 216 34 L 218 40 Z" style="fill: rgb(140,116,153);"/>
    <path d="M 70 95 L 77 107 L 83 103 Z" style="fill: rgb(86,188,200);"/>
    <path d="M 83 103 L 77 107 L 91 109 Z" style="fill: rgb(77,194,200);"/>
    <path d="M 81 131 L 65 144 L 82 152 Z" style="fill: rgb(92,166,191);"/>
    <path d="M 220 24 L 214 21 L 216 34 Z" style="fill: rgb(153,121,143);"/>
    <path d="M 201 7 L 182 20 L 197 29 Z" style="fill: rgb(170,149,129);"/>
    <path d="M 182 20 L 180 15 L 171 26 Z" style="fill: rgb(172,170,130);"/>
    <path d="M 287 169 L 279 151 L 268 165 Z" style="fill: rgb(136,92,155);"/>
    <path d="M 268 165 L 279 151 L 266 158 Z" style="fill: rgb(129,97,157);"/>
    <path d="M 285 68 L 270 66 L 265 79 Z" style="fill: rgb(134,120,180);"/>
    <path d="M 265 79 L 270 66 L 259 73 Z" style="fill: rgb(121,120,182);"/>
    <path d="M 238 43 L 234 24 L 218 40 Z" style="fill: rgb(133,108,158);"/>
    <path d="M 292 139 L 284 130 L 281 138 Z" style="fill: rgb(159,138,151);"/>
    <path d="M 281 138 L 284 130 L 273 131 Z" style="fill: rgb(152,141,153);"/>
    <path d="M 93 189 L 103 184 L 99 175 Z" style="fill: rgb(82,118,188);"/>
    <path d="M 103 184 L 106 194 L 125 184 Z" style="fill: rgb(100,127,181);"/>
    <path d="M 135 202 L 136 217 L 152 200 Z" style="fill: rgb(148,150,161);"/>
    <path d="M 158 210 L 166 226 L 169 212 Z" style="fill: rgb(167,160,149);"/>
    <path d="M 250 213 L 254 194 L 234 199 Z" style="fill: rgb(120,57,155);"/>
    <path d="M 257 183 L 267 181 L 258 167 Z" style="fill: rgb(102,63,160);"/>
    <path d="M 114 211 L 126 211 L 127 196 Z" style="fill: rgb(143,138,169);"/>
    <path d="M 264 195 L 267 181 L 257 183 Z" style="fill: rgb(115,57,157);"/>
    <path d="M 126 211 L 136 217 L 135 202 Z" style="fill: rgb(153,146,163);"/>
    <path d="M 105 50 L 92 57 L 95 63 Z" style="fill: rgb(75,163,214);"/>
    <path d="M 95 63 L 83 71 L 99 89 Z" style="fill: rgb(64,173,214);"/>
    <path d="M 99 41 L 92 57 L 105 50 Z" style="fill: rgb(105,162,201);"/>
    <path d="M 127 15 L 122 28 L 132 35 Z" style="fill: rgb(163,173,151);"/>
    <path d="M 132 35 L 122 28 L 130 45 Z" style="fill: rgb(145,176,168);"/>
    <path d="M 136 14 L 144 32 L 146 29 Z" style="fill: rgb(166,182,143);"/>
    <path d="M 178 227 L 193 226 L 177 216 Z" style="fill: rgb(173,138,147);"/>
    <path d="M 177 216 L 193 226 L 189 211 Z" style="fill: rgb(163,132,150);"/>
    <path d="M 146 225 L 166 226 L 158 210 Z" style="fill: rgb(174,165,148);"/>
    <path d="M 92 57 L 83 71 L 95 63 Z" style="fill: rgb(54,163,220);"/>
    <path d="M 166 226 L 178 227 L 177 216 Z" style="fill: rgb(176,150,147);"/>
    <path d="M 71 160 L 84 171 L 82 152 Z" style="fill: rgb(77,136,195);"/>
    <path d="M 82 152 L 84 171 L 91 149 Z" style="fill: rgb(78,146,194);"/>
    <path d="M 64 116 L 81 131 L 77 107 Z" style="fill: rgb(97,201,188);"/>
    <path d="M 64 116 L 71 131 L 81 131 Z" style="fill: rgb(103,192,185);"/>
    <path d="M 122 28 L 103 41 L 121 51 Z" style="fill: rgb(134,169,179);"/>
    <path d="M 252 35 L 234 24 L 238 43 Z" style="fill: rgb(133,95,155);"/>
    <path d="M 226 17 L 211 14 L 214 21 Z" style="fill: rgb(165,117,129);"/>
    <path d="M 214 21 L 211 14 L 197 29 Z" style="fill: rgb(163,132,134);"/>
    <path d="M 226 17 L 214 21 L 220 24 Z" style="fill: rgb(159,115,134);"/>
    <path d="M 83 71 L 75 84 L 99 89 Z" style="fill: rgb(66,175,213);"/>
    <path d="M 264 47 L 252 35 L 247 61 Z" style="fill: rgb(126,102,172);"/>
    <path d="M 272 57 L 264 47 L 247 61 Z" style="fill: rgb(120,107,181);"/>
    <path d="M 144 225 L 146 225 L 136 217 Z" style="fill: rgb(175,155,153);"/>
    <path d="M 136 217 L 146 225 L 158 210 Z" style="fill: rgb(168,157,154);"/>
    <path d="M 193.5 240 L 204 233 L 193 226 L 192.06666666666666 240 Z" style="fill: rgb(184,121,143);"/>
    <path d="M 284 59 L 272 57 L 270 66 Z" style="fill: rgb(132,111,184);"/>
    <path d="M 270 66 L 272 57 L 247 61 Z" style="fill: rgb(112,110,188);"/>
    <path d="M 287 87 L 265 79 L 278 99 Z" style="fill: rgb(145,136,170);"/>
    <path d="M 84 171 L 93 189 L 99 175 Z" style="fill: rgb(70,116,192);"/>
    <path d="M 106 194 L 114 211 L 127 196 Z" style="fill: rgb(130,132,174);"/>
    <path d="M 122 224 L 144 225 L 136 217 Z" style="fill: rgb(173,150,157);"/>
    <path d="M 162 6 L 171 26 L 180 15 Z" style="fill: rgb(179,177,121);"/>
    <path d="M 162 6 L 151 11 L 171 26 Z" style="fill: rgb(183,189,116);"/>
    <path d="M 122 224 L 136 217 L 126 211 Z" style="fill: rgb(164,145,161);"/>
    <path d="M 191 240 L 178 227 L 179.3684210526316 240 Z" style="fill: rgb(195,140,140);"/>
    <path d="M 294 96 L 278 99 L 277 110 Z" style="fill: rgb(157,148,161);"/>
    <path d="M 234 24 L 226 17 L 220 24 Z" style="fill: rgb(156,106,136);"/>
    <path d="M 234 17 L 226 17 L 234 24 Z" style="fill: rgb(157,99,133);"/>
    <path d="M 103 41 L 99 41 L 105 50 Z" style="fill: rgb(121,162,191);"/>
    <path d="M 92 57 L 85 50 L 83 71 Z" style="fill: rgb(53,158,222);"/>
    <path d="M 63 64 L 63 86 L 75 84 Z" style="fill: rgb(104,166,201);"/>
    <path d="M 90 32 L 99 41 L 103 41 Z" style="fill: rgb(135,157,183);"/>
    <path d="M 111 24 L 103 41 L 122 28 Z" style="fill: rgb(152,164,166);"/>
    <path d="M 75 84 L 70 95 L 83 103 Z" style="fill: rgb(85,181,203);"/>
    <path d="M 90 204 L 114 211 L 106 194 Z" style="fill: rgb(132,125,177);"/>
    <path d="M 254 194 L 264 195 L 257 183 Z" style="fill: rgb(117,57,156);"/>
    <path d="M 300 158 L 292 139 L 279 151 Z" style="fill: rgb(159,115,151);"/>
    <path d="M 250 213 L 264 195 L 254 194 Z" style="fill: rgb(131,56,153);"/>
    <path d="M 239 218 L 234 199 L 224 210 Z" style="fill: rgb(129,68,155);"/>
    <path d="M 151 11 L 136 14 L 146 29 Z" style="fill: rgb(177,182,130);"/>
    <path d="M 211 0 L 201 7 L 211 14 Z" style="fill: rgb(181,126,112);"/>
    <path d="M 211 14 L 201 7 L 197 29 Z" style="fill: rgb(170,136,127);"/>
    <path d="M 279 151 L 292 139 L 281 138 Z" style="fill: rgb(154,126,152);"/>
    <path d="M 284 130 L 298 111 L 277 110 Z" style="fill: rgb(165,163,151);"/>
    <path d="M 287 169 L 268 165 L 280 183 Z" style="fill: rgb(130,72,155);"/>
    <path d="M 161.25 0 L 162 6 L 174.6 0 Z" style="fill: rgb(199,175,93);"/>
    <path d="M 151 11 L 146 1 L 136 14 Z" style="fill: rgb(189,179,114);"/>
    <path d="M 292 139 L 294 130 L 284 130 Z" style="fill: rgb(166,143,150);"/>
    <path d="M 235 222 L 239 218 L 224 210 Z" style="fill: rgb(142,68,151);"/>
    <path d="M 250 15 L 234 17 L 234 24 Z" style="fill: rgb(154,88,132);"/>
    <path d="M 226 17 L 211 0 L 211 14 Z" style="fill: rgb(174,116,118);"/>
    <path d="M 70 95 L 64 116 L 77 107 Z" style="fill: rgb(104,190,190);"/>
    <path d="M 65 144 L 71 160 L 82 152 Z" style="fill: rgb(98,149,187);"/>
    <path d="M 65 144 L 81 131 L 71 131 Z" style="fill: rgb(102,176,186);"/>
    <path d="M 84 171 L 84 188 L 93 189 Z" style="fill: rgb(75,111,192);"/>
    <path d="M 196.33333333333334 240 L 205 238 L 204 233 L 193.5 240 Z" style="fill: rgb(188,116,142);"/>
    <path d="M 193 226 L 204 233 L 208 211 Z" style="fill: rgb(166,112,148);"/>
    <path d="M 192.06666666666666 240 L 193 226 L 178 227 L 191 240 Z" style="fill: rgb(184,133,144);"/>
    <path d="M 123.86666666666667 0 L 123.25 0 L 127 15 L 136 14 Z" style="fill: rgb(187,168,123);"/>
    <path d="M 136 14 L 127 15 L 132 35 Z" style="fill: rgb(171,174,142);"/>
    <path d="M 298 111 L 294 96 L 277 110 Z" style="fill: rgb(167,153,156);"/>
    <path d="M 287 87 L 285 68 L 265 79 Z" style="fill: rgb(144,127,174);"/>
    <path d="M 227 227 L 235 222 L 224 210 Z" style="fill: rgb(149,74,150);"/>
    <path d="M 239 218 L 250 213 L 234 199 Z" style="fill: rgb(128,57,154);"/>
    <path d="M 293 65 L 285 68 L 287 87 Z" style="fill: rgb(155,124,174);"/>
    <path d="M 263 23 L 252 35 L 264 47 Z" style="fill: rgb(154,97,150);"/>
    <path d="M 86 43 L 85 50 L 99 41 Z" style="fill: rgb(116,155,197);"/>
    <path d="M 99 41 L 85 50 L 92 57 Z" style="fill: rgb(103,158,204);"/>
    <path d="M 75 84 L 63 86 L 70 95 Z" style="fill: rgb(102,175,198);"/>
    <path d="M 115 14 L 111 24 L 122 28 Z" style="fill: rgb(168,164,150);"/>
    <path d="M 46 128 L 65 144 L 71 131 Z" style="fill: rgb(126,176,171);"/>
    <path d="M 252 223 L 250 213 L 239 218 Z" style="fill: rgb(148,55,149);"/>
    <path d="M 71 174 L 84 188 L 84 171 Z" style="fill: rgb(64,110,195);"/>
    <path d="M 93 189 L 90 204 L 106 194 Z" style="fill: rgb(114,119,183);"/>
    <path d="M 204 233 L 227 227 L 208 211 Z" style="fill: rgb(162,97,148);"/>
    <path d="M 235 222 L 252 223 L 239 218 Z" style="fill: rgb(147,55,149);"/>
    <path d="M 280 183 L 267 181 L 278 193 Z" style="fill: rgb(130,56,153);"/>
    <path d="M 280 183 L 268 165 L 267 181 Z" style="fill: rgb(118,64,157);"/>
    <path d="M 316 145 L 307 120 L 294 130 Z" style="fill: rgb(185,149,144);"/>
    <path d="M 307 120 L 298 111 L 294 130 Z" style="fill: rgb(182,167,145);"/>
    <path d="M 294 130 L 298 111 L 284 130 Z" style="fill: rgb(171,160,148);"/>
    <path d="M 278 193 L 267 181 L 264 195 Z" style="fill: rgb(130,56,153);"/>
    <path d="M 263 23 L 255 26 L 252 35 Z" style="fill: rgb(161,93,141);"/>
    <path d="M 252 35 L 255 26 L 234 24 Z" style="fill: rgb(149,92,144);"/>
    <path d="M 286 38 L 264 47 L 272 57 Z" style="fill: rgb(153,104,165);"/>
    <path d="M 112 231 L 122 224 L 114 211 Z" style="fill: rgb(170,138,164);"/>
    <path d="M 114 211 L 122 224 L 126 211 Z" style="fill: rgb(159,139,165);"/>
    <path d="M 179.3684210526316 240 L 178 227 L 166 226 L 175.8 240 Z" style="fill: rgb(191,151,142);"/>
    <path d="M 293 65 L 284 59 L 285 68 Z" style="fill: rgb(151,116,179);"/>
    <path d="M 285 68 L 284 59 L 270 66 Z" style="fill: rgb(140,115,181);"/>
    <path d="M 90 32 L 86 43 L 99 41 Z" style="fill: rgb(132,154,187);"/>
    <path d="M 63 64 L 75 84 L 83 71 Z" style="fill: rgb(82,163,212);"/>
    <path d="M 55 87 L 63 86 L 56 63 Z" style="fill: rgb(123,164,189);"/>
    <path d="M 56 99 L 55 115 L 64 116 Z" style="fill: rgb(130,191,173);"/>
    <path d="M 150.13333333333333 240 L 166 226 L 146 225 L 148.8125 240 Z" style="fill: rgb(191,165,144);"/>
    <path d="M 204 233 L 223 239 L 227 227 Z" style="fill: rgb(174,90,145);"/>
    <path d="M 71 160 L 71 174 L 84 171 Z" style="fill: rgb(84,123,190);"/>
    <path d="M 61 181 L 71 174 L 48 166 Z" style="fill: rgb(113,110,172);"/>
    <path d="M 307 100 L 298 88 L 294 96 Z" style="fill: rgb(176,145,159);"/>
    <path d="M 294 96 L 298 88 L 287 87 Z" style="fill: rgb(167,140,163);"/>
    <path d="M 182.3684210526316 0 L 174.6 0 L 162 6 L 180 15 Z" style="fill: rgb(191,169,104);"/>
    <path d="M 162 6 L 146 1 L 151 11 Z" style="fill: rgb(193,184,105);"/>
    <path d="M 148.6875 240 L 148.8125 240 L 146 225 L 144 225 Z" style="fill: rgb(189,160,148);"/>
    <path d="M 161.25 0 L 151 0 L 146 1 L 162 6 Z" style="fill: rgb(199,185,95);"/>
    <path d="M 127 15 L 115 14 L 122 28 Z" style="fill: rgb(173,167,142);"/>
    <path d="M 195.07692307692307 0 L 189.54545454545453 0 L 201 7 Z" style="fill: rgb(193,145,98);"/>
    <path d="M 201 7 L 189.54545454545453 0 L 182.3684210526316 0 L 180 15 Z" style="fill: rgb(188,152,107);"/>
    <path d="M 234 0 L 232.8 0 L 226 17 L 234 17 Z" style="fill: rgb(168,95,119);"/>
    <path d="M 226 0 L 211 0 L 211 0 L 226 17 Z" style="fill: rgb(180,106,107);"/>
    <path d="M 285 209 L 278 193 L 264 195 Z" style="fill: rgb(152,55,148);"/>
    <path d="M 280 183 L 290 179 L 287 169 Z" style="fill: rgb(136,63,152);"/>
    <path d="M 123.25 0 L 122.46666666666667 0 L 115 14 L 127 15 Z" style="fill: rgb(186,164,126);"/>
    <path d="M 111 24 L 90 32 L 103 41 Z" style="fill: rgb(147,158,173);"/>
    <path d="M 75 196 L 90 204 L 84 188 Z" style="fill: rgb(110,111,188);"/>
    <path d="M 84 188 L 90 204 L 93 189 Z" style="fill: rgb(107,114,187);"/>
    <path d="M 56 99 L 64 116 L 70 95 Z" style="fill: rgb(119,186,183);"/>
    <path d="M 64 116 L 46 128 L 71 131 Z" style="fill: rgb(128,191,170);"/>
    <path d="M 48 166 L 71 174 L 71 160 Z" style="fill: rgb(111,123,176);"/>
    <path d="M 97 9 L 90 32 L 111 24 Z" style="fill: rgb(166,153,156);"/>
    <path d="M 63 64 L 83 71 L 85 50 Z" style="fill: rgb(60,155,221);"/>
    <path d="M 63 86 L 56 99 L 70 95 Z" style="fill: rgb(118,177,188);"/>
    <path d="M 55 87 L 56 99 L 63 86 Z" style="fill: rgb(127,174,183);"/>
    <path d="M 211 0 L 211 0 L 195.07692307692307 0 L 201 7 Z" style="fill: rgb(190,133,100);"/>
    <path d="M 146.85714285714286 0 L 146 1 L 151 0 Z" style="fill: rgb(201,183,93);"/>
    <path d="M 263 23 L 250 15 L 255 26 Z" style="fill: rgb(168,89,131);"/>
    <path d="M 255 26 L 250 15 L 234 24 Z" style="fill: rgb(157,89,134);"/>
    <path d="M 298 88 L 293 65 L 287 87 Z" style="fill: rgb(163,131,169);"/>
    <path d="M 286 38 L 263 23 L 264 47 Z" style="fill: rgb(166,98,148);"/>
    <path d="M 278 193 L 290 179 L 280 183 Z" style="fill: rgb(138,56,151);"/>
    <path d="M 287 169 L 300 158 L 279 151 Z" style="fill: rgb(151,97,151);"/>
    <path d="M 142.57142857142858 240 L 144 225 L 129 240 Z" style="fill: rgb(200,156,148);"/>
    <path d="M 142.57142857142858 240 L 148.6875 240 L 144 225 Z" style="fill: rgb(200,161,145);"/>
    <path d="M 298 174 L 300 158 L 287 169 Z" style="fill: rgb(154,83,150);"/>
    <path d="M 298 111 L 307 100 L 294 96 Z" style="fill: rgb(178,152,155);"/>
    <path d="M 240 237 L 252 223 L 235 222 Z" style="fill: rgb(157,55,146);"/>
    <path d="M 250 213 L 267 218 L 264 195 Z" style="fill: rgb(149,55,148);"/>
    <path d="M 240 237 L 235 222 L 227 227 Z" style="fill: rgb(160,65,147);"/>
    <path d="M 164 240 L 175.8 240 L 166 226 Z" style="fill: rgb(202,159,138);"/>
    <path d="M 205.92307692307693 240 L 222 240 L 223 239 L 205 238 Z" style="fill: rgb(187,98,141);"/>
    <path d="M 205 238 L 223 239 L 204 233 Z" style="fill: rgb(183,102,143);"/>
    <path d="M 286 38 L 272 57 L 284 59 Z" style="fill: rgb(155,107,169);"/>
    <path d="M 316 145 L 294 130 L 292 139 Z" style="fill: rgb(176,137,146);"/>
    <path d="M 298 88 L 305 87 L 293 65 Z" style="fill: rgb(171,132,167);"/>
    <path d="M 205.92307692307693 240 L 205 238 L 203.58823529411765 240 Z" style="fill: rgb(191,113,141);"/>
    <path d="M 63 64 L 85 50 L 63 50 Z" style="fill: rgb(104,150,205);"/>
    <path d="M 43 108 L 46 128 L 55 115 Z" style="fill: rgb(148,195,155);"/>
    <path d="M 310 106 L 307 100 L 298 111 Z" style="fill: rgb(186,156,151);"/>
    <path d="M 63 50 L 85 50 L 62 46 Z" style="fill: rgb(122,147,195);"/>
    <path d="M 150.13333333333333 240 L 164 240 L 166 226 Z" style="fill: rgb(203,171,138);"/>
    <path d="M 307 100 L 305 87 L 298 88 Z" style="fill: rgb(180,143,159);"/>
    <path d="M 82 217 L 97 219 L 90 204 Z" style="fill: rgb(148,118,178);"/>
    <path d="M 90 204 L 97 219 L 114 211 Z" style="fill: rgb(147,125,175);"/>
    <path d="M 61 181 L 75 196 L 71 174 Z" style="fill: rgb(101,103,181);"/>
    <path d="M 71 174 L 75 196 L 84 188 Z" style="fill: rgb(90,106,189);"/>
    <path d="M 313 60 L 291 52 L 293 65 Z" style="fill: rgb(166,113,175);"/>
    <path d="M 293 65 L 291 52 L 284 59 Z" style="fill: rgb(154,111,178);"/>
    <path d="M 290 179 L 298 174 L 287 169 Z" style="fill: rgb(145,69,151);"/>
    <path d="M 300 158 L 316 145 L 292 139 Z" style="fill: rgb(174,120,146);"/>
    <path d="M 302 197 L 298 174 L 290 179 Z" style="fill: rgb(152,55,148);"/>
    <path d="M 302 197 L 290 179 L 278 193 Z" style="fill: rgb(154,55,147);"/>
    <path d="M 97 219 L 112 231 L 114 211 Z" style="fill: rgb(165,132,168);"/>
    <path d="M 307 120 L 310 106 L 298 111 Z" style="fill: rgb(187,162,147);"/>
    <path d="M 320 75.75 L 320 74.375 L 313 70 L 305 87 Z" style="fill: rgb(188,131,163);"/>
    <path d="M 320 123.46666666666667 L 320 121 L 310 106 L 307 120 Z" style="fill: rgb(197,168,141);"/>
    <path d="M 266 225 L 267 218 L 252 223 Z" style="fill: rgb(171,53,143);"/>
    <path d="M 252 223 L 267 218 L 250 213 Z" style="fill: rgb(159,54,146);"/>
    <path d="M 146.85714285714286 0 L 145.66666666666666 0 L 146 1 Z" style="fill: rgb(200,179,96);"/>
    <path d="M 146 1 L 134.5 0 L 123.86666666666666 0 L 136 14 Z" style="fill: rgb(194,171,112);"/>
    <path d="M 77 13 L 74 31 L 90 32 Z" style="fill: rgb(156,142,170);"/>
    <path d="M 211 0 L 211 0 L 211 0 Z" style="fill: rgb(190,133,99);"/>
    <path d="M 124.4 240 L 129 240 L 144 225 L 122 224 Z" style="fill: rgb(187,149,154);"/>
    <path d="M 223 239 L 240 237 L 227 227 Z" style="fill: rgb(170,72,144);"/>
    <path d="M 223.6 240 L 238.58823529411765 240 L 240 237 L 223 239 Z" style="fill: rgb(178,69,142);"/>
    <path d="M 145.33333333333334 0 L 134.5 0 L 146 1 Z" style="fill: rgb(199,170,104);"/>
    <path d="M 248.23529411764707 0 L 246.52631578947367 0 L 234 17 L 250 15 Z" style="fill: rgb(169,82,118);"/>
    <path d="M 246.5263157894737 0 L 234 0 L 234 17 Z" style="fill: rgb(172,80,110);"/>
    <path d="M 291 41 L 286 38 L 291 52 Z" style="fill: rgb(177,104,154);"/>
    <path d="M 291 52 L 286 38 L 284 59 Z" style="fill: rgb(166,107,164);"/>
    <path d="M 268 10 L 251.33333333333334 0 L 248.23529411764707 0 L 250 15 Z" style="fill: rgb(183,81,110);"/>
    <path d="M 50 153 L 71 160 L 65 144 Z" style="fill: rgb(119,146,174);"/>
    <path d="M 43 108 L 55 115 L 56 99 Z" style="fill: rgb(141,187,165);"/>
    <path d="M 55 115 L 46 128 L 64 116 Z" style="fill: rgb(137,198,163);"/>
    <path d="M 45 144 L 50 153 L 65 144 Z" style="fill: rgb(135,153,163);"/>
    <path d="M 232.8 0 L 226 0 L 226 17 Z" style="fill: rgb(178,94,107);"/>
    <path d="M 74 31 L 86 43 L 90 32 Z" style="fill: rgb(137,147,184);"/>
    <path d="M 62 46 L 85 50 L 86 43 Z" style="fill: rgb(113,149,201);"/>
    <path d="M 63 64 L 56 63 L 63 86 Z" style="fill: rgb(115,158,197);"/>
    <path d="M 39 99 L 43 108 L 56 99 Z" style="fill: rgb(149,181,162);"/>
    <path d="M 203.58823529411765 240 L 205 238 L 196.33333333333334 240 Z" style="fill: rgb(193,122,140);"/>
    <path d="M 63 50 L 56 63 L 63 64 Z" style="fill: rgb(113,148,201);"/>
    <path d="M 307 37 L 291 41 L 291 52 Z" style="fill: rgb(185,104,152);"/>
    <path d="M 268 10 L 250 15 L 263 23 Z" style="fill: rgb(179,86,121);"/>
    <path d="M 112 231 L 121 240 L 124.4 240 L 122 224 Z" style="fill: rgb(188,143,158);"/>
    <path d="M 112 239 L 114.6 240 L 121 240 L 112 231 Z" style="fill: rgb(196,141,157);"/>
    <path d="M 145.66666666666666 0 L 145.33333333333334 0 L 146 1 Z" style="fill: rgb(200,175,100);"/>
    <path d="M 259 236 L 252 223 L 240 237 Z" style="fill: rgb(173,53,142);"/>
    <path d="M 259 236 L 266 225 L 252 223 Z" style="fill: rgb(177,53,141);"/>
    <path d="M 267 218 L 285 209 L 264 195 Z" style="fill: rgb(161,54,146);"/>
    <path d="M 46 128 L 45 144 L 65 144 Z" style="fill: rgb(139,166,161);"/>
    <path d="M 50 153 L 48 166 L 71 160 Z" style="fill: rgb(126,132,168);"/>
    <path d="M 39 99 L 56 99 L 55 87 Z" style="fill: rgb(141,176,171);"/>
    <path d="M 38 143 L 42 149 L 45 144 Z" style="fill: rgb(151,153,149);"/>
    <path d="M 97 9 L 111 24 L 115 14 Z" style="fill: rgb(176,156,143);"/>
    <path d="M 104.8 0 L 97 9 L 115 14 L 111.5 0 Z" style="fill: rgb(189,153,127);"/>
    <path d="M 111.5 0 L 115 14 L 122.46666666666667 0 Z" style="fill: rgb(194,157,117);"/>
    <path d="M 211 0 L 211 0 L 211 0 Z" style="fill: rgb(188,122,101);"/>
    <path d="M 93 230 L 112 231 L 97 219 Z" style="fill: rgb(174,128,168);"/>
    <path d="M 93 230 L 112 239 L 112 231 Z" style="fill: rgb(186,133,163);"/>
    <path d="M 82 217 L 90 204 L 75 196 Z" style="fill: rgb(131,112,184);"/>
    <path d="M 67 219 L 82 217 L 75 196 Z" style="fill: rgb(147,109,176);"/>
    <path d="M 74 31 L 62 46 L 86 43 Z" style="fill: rgb(136,145,186);"/>
    <path d="M 63 50 L 55 51 L 56 63 Z" style="fill: rgb(130,146,190);"/>
    <path d="M 283 227 L 285 209 L 267 218 Z" style="fill: rgb(183,52,139);"/>
    <path d="M 315 151 L 300 158 L 316 168 Z" style="fill: rgb(176,99,144);"/>
    <path d="M 315 151 L 316 145 L 300 158 Z" style="fill: rgb(181,114,144);"/>
    <path d="M 268 10 L 263 23 L 288 25 Z" style="fill: rgb(189,89,122);"/>
    <path d="M 211 0 L 211 0 L 211 0 Z" style="fill: rgb(185,110,102);"/>
    <path d="M 316 168 L 300 158 L 298 174 Z" style="fill: rgb(165,84,147);"/>
    <path d="M 42 149 L 48 166 L 50 153 Z" style="fill: rgb(141,136,156);"/>
    <path d="M 61 181 L 60 203 L 75 196 Z" style="fill: rgb(128,103,173);"/>
    <path d="M 222 240 L 222.85714285714286 240 L 223 239 Z" style="fill: rgb(184,90,142);"/>
    <path d="M 288 25 L 263 23 L 286 38 Z" style="fill: rgb(184,95,135);"/>
    <path d="M 82 217 L 93 230 L 97 219 Z" style="fill: rgb(164,120,174);"/>
    <path d="M 45 144 L 42 149 L 50 153 Z" style="fill: rgb(145,148,154);"/>
    <path d="M 38 143 L 45 144 L 46 128 Z" style="fill: rgb(152,165,150);"/>
    <path d="M 242.45454545454547 240 L 258.82608695652175 240 L 259 236 L 240 237 Z" style="fill: rgb(187,51,138);"/>
    <path d="M 266 225 L 283 227 L 267 218 Z" style="fill: rgb(184,52,139);"/>
    <path d="M 55 46 L 55 51 L 62 46 Z" style="fill: rgb(146,143,178);"/>
    <path d="M 62 46 L 55 51 L 63 50 Z" style="fill: rgb(139,145,184);"/>
    <path d="M 37 84 L 39 99 L 55 87 Z" style="fill: rgb(150,170,166);"/>
    <path d="M 37 84 L 55 87 L 41 69 Z" style="fill: rgb(147,162,172);"/>
    <path d="M 35 121 L 38 143 L 46 128 Z" style="fill: rgb(158,177,145);"/>
    <path d="M 320 75.75 L 305 87 L 320 81.78260869565217 Z" style="fill: rgb(194,135,160);"/>
    <path d="M 305 87 L 313 70 L 293 65 Z" style="fill: rgb(175,127,168);"/>
    <path d="M 291 41 L 288 25 L 286 38 Z" style="fill: rgb(187,99,141);"/>
    <path d="M 320 81.78260869565217 L 305 87 L 320 89.88461538461539 Z" style="fill: rgb(198,140,156);"/>
    <path d="M 38 168 L 53 184 L 48 166 Z" style="fill: rgb(134,107,156);"/>
    <path d="M 48 166 L 53 184 L 61 181 Z" style="fill: rgb(121,103,165);"/>
    <path d="M 82 217 L 77 226 L 93 230 Z" style="fill: rgb(166,116,175);"/>
    <path d="M 320 143 L 320 131 L 316 145 Z" style="fill: rgb(199,142,139);"/>
    <path d="M 316 145 L 320 131 L 320 123.46666666666667 L 307 120 Z" style="fill: rgb(196,154,140);"/>
    <path d="M 97 9 L 77 13 L 90 32 Z" style="fill: rgb(169,144,155);"/>
    <path d="M 302 29 L 288 25 L 291 41 Z" style="fill: rgb(197,98,134);"/>
    <path d="M 35 121 L 46 128 L 43 108 Z" style="fill: rgb(157,195,146);"/>
    <path d="M 42 149 L 38 168 L 48 166 Z" style="fill: rgb(144,126,151);"/>
    <path d="M 54 22 L 55 46 L 62 46 Z" style="fill: rgb(163,140,162);"/>
    <path d="M 41 69 L 55 87 L 56 63 Z" style="fill: rgb(135,157,183);"/>
    <path d="M 54 22 L 62 46 L 74 31 Z" style="fill: rgb(164,140,162);"/>
    <path d="M 28 106 L 35 121 L 43 108 Z" style="fill: rgb(164,187,143);"/>
    <path d="M 222.85714285714286 240 L 223.6 240 L 223 239 Z" style="fill: rgb(181,79,142);"/>
    <path d="M 316 180 L 316 168 L 298 174 Z" style="fill: rgb(167,68,145);"/>
    <path d="M 315 151 L 320 145.44444444444446 L 320 143 L 316 145 Z" style="fill: rgb(193,125,141);"/>
    <path d="M 302 214 L 302 197 L 285 209 Z" style="fill: rgb(186,51,138);"/>
    <path d="M 285 209 L 302 197 L 278 193 Z" style="fill: rgb(168,54,144);"/>
    <path d="M 258.82608695652175 240 L 264.04545454545456 240 L 265 237 L 259 236 Z" style="fill: rgb(195,50,136);"/>
    <path d="M 259 236 L 265 237 L 266 225 Z" style="fill: rgb(188,51,138);"/>
    <path d="M 112.22727272727273 240 L 114.6 240 L 112 239 Z" style="fill: rgb(199,143,155);"/>
    <path d="M 320 74.375 L 320 73.125 L 313 60 L 313 70 Z" style="fill: rgb(188,123,167);"/>
    <path d="M 313 70 L 313 60 L 293 65 Z" style="fill: rgb(176,119,172);"/>
    <path d="M 320 153.5 L 320 145.44444444444446 L 315 151 Z" style="fill: rgb(192,117,141);"/>
    <path d="M 53 184 L 60 203 L 61 181 Z" style="fill: rgb(131,100,166);"/>
    <path d="M 41 69 L 56 63 L 55 51 Z" style="fill: rgb(130,147,190);"/>
    <path d="M 39 99 L 28 106 L 43 108 Z" style="fill: rgb(162,181,149);"/>
    <path d="M 33 50 L 41 69 L 55 51 Z" style="fill: rgb(149,143,175);"/>
    <path d="M 92.5 0 L 86.38888888888889 0 L 77 13 L 97 9 Z" style="fill: rgb(186,139,135);"/>
    <path d="M 271.0833333333333 0 L 264.6666666666667 0 L 273 1 Z" style="fill: rgb(192,76,98);"/>
    <path d="M 273 1 L 264.6666666666667 0 L 251.33333333333334 0 L 268 10 Z" style="fill: rgb(195,79,101);"/>
    <path d="M 320 89.88461538461539 L 305 87 L 307 100 L 320 95.66666666666667 Z" style="fill: rgb(194,146,154);"/>
    <path d="M 320 109.6842105263158 L 310 106 L 320 121 Z" style="fill: rgb(205,167,140);"/>
    <path d="M 67 219 L 77 226 L 82 217 Z" style="fill: rgb(164,111,173);"/>
    <path d="M 93 230 L 97.375 240 L 110.28571428571429 240 L 112 239 Z" style="fill: rgb(193,131,162);"/>
    <path d="M 302 197 L 316 180 L 298 174 Z" style="fill: rgb(163,54,145);"/>
    <path d="M 316 168 L 320 164.92307692307693 L 320 153.5 L 315 151 Z" style="fill: rgb(187,100,141);"/>
    <path d="M 280 236 L 283 227 L 266 225 Z" style="fill: rgb(197,49,135);"/>
    <path d="M 302 197 L 312 200 L 316 180 Z" style="fill: rgb(180,52,140);"/>
    <path d="M 21 165 L 42 149 L 17 156 Z" style="fill: rgb(164,129,132);"/>
    <path d="M 21 165 L 38 168 L 42 149 Z" style="fill: rgb(155,124,141);"/>
    <path d="M 53 184 L 49 197 L 60 203 Z" style="fill: rgb(146,99,159);"/>
    <path d="M 83.66666666666667 240 L 97.375 240 L 93 230 Z" style="fill: rgb(193,123,166);"/>
    <path d="M 282 8 L 273 1 L 268 10 Z" style="fill: rgb(203,81,102);"/>
    <path d="M 282 8 L 268 10 L 288 25 Z" style="fill: rgb(200,86,113);"/>
    <path d="M 55 215 L 67 219 L 60 203 Z" style="fill: rgb(167,104,159);"/>
    <path d="M 60 203 L 67 219 L 75 196 Z" style="fill: rgb(149,106,170);"/>
    <path d="M 294 7 L 282 8 L 288 25 Z" style="fill: rgb(210,86,108);"/>
    <path d="M 104.8 0 L 92.5 0 L 97 9 Z" style="fill: rgb(195,145,121);"/>
    <path d="M 320 53.583333333333336 L 320 45.666666666666664 L 307 37 L 313 60 Z" style="fill: rgb(200,109,154);"/>
    <path d="M 313 60 L 307 37 L 291 52 Z" style="fill: rgb(185,108,159);"/>
    <path d="M 307 37 L 302 29 L 291 41 Z" style="fill: rgb(199,100,138);"/>
    <path d="M 36 183 L 49 197 L 53 184 Z" style="fill: rgb(144,96,153);"/>
    <path d="M 22 98 L 39 99 L 37 84 Z" style="fill: rgb(165,171,150);"/>
    <path d="M 22 98 L 28 106 L 39 99 Z" style="fill: rgb(170,176,142);"/>
    <path d="M 35 121 L 20 126 L 38 143 Z" style="fill: rgb(168,176,134);"/>
    <path d="M 77 13 L 63 20 L 74 31 Z" style="fill: rgb(172,137,153);"/>
    <path d="M 55 46 L 43 44 L 55 51 Z" style="fill: rgb(156,141,170);"/>
    <path d="M 63 13 L 63 20 L 77 13 Z" style="fill: rgb(184,134,139);"/>
    <path d="M 320 99.33333333333333 L 320 95.66666666666667 L 307 100 L 310 106 Z" style="fill: rgb(197,152,150);"/>
    <path d="M 320 73.125 L 320 53.583333333333336 L 313 60 Z" style="fill: rgb(190,117,169);"/>
    <path d="M 320 109.6842105263158 L 320 99.33333333333333 L 310 106 Z" style="fill: rgb(203,157,146);"/>
    <path d="M 280 236 L 266 225 L 265 237 Z" style="fill: rgb(195,50,136);"/>
    <path d="M 295.2352941176471 240 L 297.85714285714283 240 L 293 223 L 283 227 Z" style="fill: rgb(215,46,130);"/>
    <path d="M 283 227 L 293 223 L 285 209 Z" style="fill: rgb(195,50,136);"/>
    <path d="M 265.46153846153845 240 L 278.3703703703704 240 L 280 236 L 265 237 Z" style="fill: rgb(206,48,132);"/>
    <path d="M 320 176.66666666666666 L 320 168.66666666666666 L 316 168 L 316 180 Z" style="fill: rgb(179,71,142);"/>
    <path d="M 320 168.66666666666666 L 320 164.92307692307693 L 316 168 Z" style="fill: rgb(183,87,142);"/>
    <path d="M 293 223 L 302 214 L 285 209 Z" style="fill: rgb(195,50,136);"/>
    <path d="M 111.6842105263158 240 L 112.22727272727273 240 L 112 239 Z" style="fill: rgb(198,138,157);"/>
    <path d="M 111.6842105263158 240 L 112 239 L 110.28571428571429 240 Z" style="fill: rgb(196,134,160);"/>
    <path d="M 310 211 L 312 200 L 302 197 Z" style="fill: rgb(193,50,136);"/>
    <path d="M 294 7 L 280 0 L 282 8 Z" style="fill: rgb(215,80,96);"/>
    <path d="M 282 8 L 280 0 L 273 1 Z" style="fill: rgb(210,79,96);"/>
    <path d="M 271.0833333333333 0 L 273 1 L 272.5833333333333 0 Z" style="fill: rgb(197,76,97);"/>
    <path d="M 43 25 L 43 44 L 55 46 Z" style="fill: rgb(174,137,151);"/>
    <path d="M 20 85 L 22 98 L 37 84 Z" style="fill: rgb(171,165,145);"/>
    <path d="M 320 181.14285714285714 L 320 176.66666666666666 L 316 180 Z" style="fill: rgb(175,58,142);"/>
    <path d="M 27 178 L 36 183 L 38 168 Z" style="fill: rgb(147,97,142);"/>
    <path d="M 38 168 L 36 183 L 53 184 Z" style="fill: rgb(136,96,152);"/>
    <path d="M 49 197 L 55 215 L 60 203 Z" style="fill: rgb(162,101,155);"/>
    <path d="M 78.47368421052632 240 L 83.66666666666667 240 L 93 230 L 77 226 Z" style="fill: rgb(181,117,172);"/>
    <path d="M 32 218 L 55 215 L 49 197 Z" style="fill: rgb(179,98,142);"/>
    <path d="M 67 219 L 60 224 L 77 226 Z" style="fill: rgb(176,108,163);"/>
    <path d="M 76 0 L 63 13 L 77 13 Z" style="fill: rgb(189,132,134);"/>
    <path d="M 63 20 L 54 22 L 74 31 Z" style="fill: rgb(176,136,148);"/>
    <path d="M 76 0 L 76 0 L 77 13 L 86.38888888888889 0 Z" style="fill: rgb(189,133,133);"/>
    <path d="M 76 0 L 76 0 L 76 0 Z" style="fill: rgb(192,132,129);"/>
    <path d="M 53 14 L 54 22 L 63 20 Z" style="fill: rgb(190,132,131);"/>
    <path d="M 20 85 L 37 84 L 18 64 Z" style="fill: rgb(171,155,150);"/>
    <path d="M 28 106 L 20 126 L 35 121 Z" style="fill: rgb(174,191,129);"/>
    <path d="M 50 224 L 60 224 L 55 215 Z" style="fill: rgb(186,103,149);"/>
    <path d="M 55 215 L 60 224 L 67 219 Z" style="fill: rgb(178,105,156);"/>
    <path d="M 302 214 L 310 211 L 302 197 Z" style="fill: rgb(196,50,136);"/>
    <path d="M 320 186 L 320 181.14285714285714 L 316 180 Z" style="fill: rgb(183,52,139);"/>
    <path d="M 305 228 L 310 211 L 302 214 Z" style="fill: rgb(211,47,131);"/>
    <path d="M 305 228 L 302 214 L 293 223 Z" style="fill: rgb(211,47,131);"/>
    <path d="M 13 118 L 20 126 L 28 106 Z" style="fill: rgb(182,188,120);"/>
    <path d="M 304 7 L 294 7 L 302 29 Z" style="fill: rgb(221,87,106);"/>
    <path d="M 302 29 L 294 7 L 288 25 Z" style="fill: rgb(210,91,117);"/>
    <path d="M 316 23 L 302 29 L 307 37 Z" style="fill: rgb(214,97,126);"/>
    <path d="M 238.58823529411765 240 L 242.45454545454547 240 L 240 237 Z" style="fill: rgb(177,52,141);"/>
    <path d="M 297.85714285714283 240 L 300.5 240 L 305 228 L 293 223 Z" style="fill: rgb(223,43,127);"/>
    <path d="M 61 240 L 61 240 L 78.47368421052632 240 L 77 226 Z" style="fill: rgb(193,112,162);"/>
    <path d="M 29 26 L 33 50 L 43 44 Z" style="fill: rgb(184,134,139);"/>
    <path d="M 43 44 L 33 50 L 55 51 Z" style="fill: rgb(163,140,163);"/>
    <path d="M 18 64 L 37 84 L 41 69 Z" style="fill: rgb(161,152,161);"/>
    <path d="M 5 133 L 17 136 L 20 126 Z" style="fill: rgb(185,170,113);"/>
    <path d="M 13 118 L 28 106 L 22 98 Z" style="fill: rgb(180,180,127);"/>
    <path d="M 20 126 L 17 136 L 38 143 Z" style="fill: rgb(173,166,127);"/>
    <path d="M 21 165 L 27 178 L 38 168 Z" style="fill: rgb(156,106,136);"/>
    <path d="M 36 183 L 35 196 L 49 197 Z" style="fill: rgb(157,94,144);"/>
    <path d="M 320 197.14285714285714 L 320 186 L 316 180 L 312 200 Z" style="fill: rgb(188,51,138);"/>
    <path d="M 27 178 L 35 196 L 36 183 Z" style="fill: rgb(155,90,138);"/>
    <path d="M 63 13 L 53 14 L 63 20 Z" style="fill: rgb(191,132,130);"/>
    <path d="M 54 22 L 43 25 L 55 46 Z" style="fill: rgb(180,135,144);"/>
    <path d="M 63 0 L 62.333333333333336 0 L 53 14 L 63 13 Z" style="fill: rgb(199,129,119);"/>
    <path d="M 76 0 L 63 0 L 63 13 L 76 0 Z" style="fill: rgb(198,129,121);"/>
    <path d="M 280 0 L 273.7142857142857 0 L 273 1 L 280 0 Z" style="fill: rgb(213,77,91);"/>
    <path d="M 273.7142857142857 0 L 272.5833333333333 0 L 273 1 Z" style="fill: rgb(207,77,93);"/>
    <path d="M 320 206.93333333333334 L 320 197.14285714285714 L 312 200 Z" style="fill: rgb(205,48,133);"/>
    <path d="M 17 156 L 42 149 L 38 143 Z" style="fill: rgb(161,143,138);"/>
    <path d="M 27 178 L 28 202 L 35 196 Z" style="fill: rgb(167,90,133);"/>
    <path d="M 53 14 L 43 25 L 54 22 Z" style="fill: rgb(194,130,126);"/>
    <path d="M 289.5 240 L 295.2352941176471 240 L 283 227 L 280 236 Z" style="fill: rgb(217,45,129);"/>
    <path d="M 310 211 L 320 212.1764705882353 L 320 206.93333333333334 L 312 200 Z" style="fill: rgb(209,47,132);"/>
    <path d="M 5 133 L 15 143 L 17 136 Z" style="fill: rgb(185,159,112);"/>
    <path d="M 17 136 L 15 143 L 38 143 Z" style="fill: rgb(173,156,126);"/>
    <path d="M 6 93 L 13 118 L 22 98 Z" style="fill: rgb(187,175,120);"/>
    <path d="M 15 143 L 17 156 L 38 143 Z" style="fill: rgb(171,145,127);"/>
    <path d="M 319 24 L 316 23 L 307 37 Z" style="fill: rgb(221,96,122);"/>
    <path d="M 280 0 L 280 0 L 280 0 Z" style="fill: rgb(218,76,89);"/>
    <path d="M 320 25.090909090909093 L 319 24 L 307 37 L 320 36.43478260869565 Z" style="fill: rgb(222,99,127);"/>
    <path d="M 32 218 L 50 224 L 55 215 Z" style="fill: rgb(192,99,139);"/>
    <path d="M 60 224 L 61 240 L 77 226 Z" style="fill: rgb(189,108,158);"/>
    <path d="M 76 0 L 76 0 L 76 0 Z" style="fill: rgb(201,128,117);"/>
    <path d="M 27 18 L 29 26 L 43 25 Z" style="fill: rgb(205,126,110);"/>
    <path d="M 316 23 L 304 7 L 302 29 Z" style="fill: rgb(223,91,111);"/>
    <path d="M 293 0 L 280 0 L 280 0 L 294 7 Z" style="fill: rgb(222,76,88);"/>
    <path d="M 320 11 L 320 7.666666666666667 L 312.9230769230769 0 L 311 0 L 304 7 Z" style="fill: rgb(241,81,88);"/>
    <path d="M 320 36.43478260869565 L 307 37 L 320 45.666666666666664 Z" style="fill: rgb(214,104,140);"/>
    <path d="M 50 237 L 61 240 L 60 224 Z" style="fill: rgb(203,105,146);"/>
    <path d="M 264.04545454545456 240 L 265.46153846153845 240 L 265 237 Z" style="fill: rgb(199,49,135);"/>
    <path d="M 33 50 L 21 58 L 41 69 Z" style="fill: rgb(160,140,166);"/>
    <path d="M 20 85 L 10 85 L 22 98 Z" style="fill: rgb(181,163,133);"/>
    <path d="M 18 44 L 21 58 L 33 50 Z" style="fill: rgb(181,135,143);"/>
    <path d="M 15 143 L 14 159 L 17 156 Z" style="fill: rgb(177,133,118);"/>
    <path d="M 17 156 L 14 159 L 21 165 Z" style="fill: rgb(172,121,122);"/>
    <path d="M 21 165 L 5 187 L 27 178 Z" style="fill: rgb(163,90,123);"/>
    <path d="M 35 196 L 29 213 L 49 197 Z" style="fill: rgb(174,94,137);"/>
    <path d="M 0 163.5 L 3 165 L 14 159 L 0 160.47368421052633 Z" style="fill: rgb(182,113,106);"/>
    <path d="M 21 58 L 18 64 L 41 69 Z" style="fill: rgb(165,143,159);"/>
    <path d="M 311 0 L 303 0 L 303 0 L 304 7 Z" style="fill: rgb(237,78,84);"/>
    <path d="M 304 7 L 303 0 L 294 7 Z" style="fill: rgb(229,80,91);"/>
    <path d="M 320 17.5 L 320 11 L 304 7 L 316 23 Z" style="fill: rgb(235,87,100);"/>
    <path d="M 76 0 L 76 0 L 76 0 Z" style="fill: rgb(197,130,123);"/>
    <path d="M 34 9 L 43 25 L 53 14 Z" style="fill: rgb(205,126,111);"/>
    <path d="M 280.15384615384613 240 L 289.5 240 L 280 236 Z" style="fill: rgb(222,44,128);"/>
    <path d="M 320 231 L 320 231 L 320 212.1764705882353 L 310 211 Z" style="fill: rgb(225,43,127);"/>
    <path d="M 12 197 L 28 202 L 27 178 Z" style="fill: rgb(174,87,124);"/>
    <path d="M 50 224 L 50 237 L 60 224 Z" style="fill: rgb(198,103,144);"/>
    <path d="M 18 64 L 10 85 L 20 85 Z" style="fill: rgb(180,153,138);"/>
    <path d="M 13 118 L 5 133 L 20 126 Z" style="fill: rgb(188,180,109);"/>
    <path d="M 303 0 L 303 0 L 293 0 L 294 7 Z" style="fill: rgb(229,76,85);"/>
    <path d="M 320 231 L 310 211 L 305 228 Z" style="fill: rgb(225,43,127);"/>
    <path d="M 0 134.42857142857142 L 5 133 L 0 132.64285714285714 Z" style="fill: rgb(197,163,95);"/>
    <path d="M 12 197 L 29 213 L 28 202 Z" style="fill: rgb(190,88,119);"/>
    <path d="M 41 232 L 50 237 L 50 224 Z" style="fill: rgb(208,100,135);"/>
    <path d="M 61 240 L 61 240 L 61 240 Z" style="fill: rgb(202,110,156);"/>
    <path d="M 278.3703703703704 240 L 280.15384615384613 240 L 280 236 Z" style="fill: rgb(212,46,131);"/>
    <path d="M 0 87 L 6 93 L 10 85 Z" style="fill: rgb(193,159,119);"/>
    <path d="M 10 85 L 6 93 L 22 98 Z" style="fill: rgb(186,164,126);"/>
    <path d="M 49.705882352941174 0 L 53 14 L 62.333333333333336 0 Z" style="fill: rgb(209,125,105);"/>
    <path d="M 43 25 L 29 26 L 43 44 Z" style="fill: rgb(191,132,130);"/>
    <path d="M 10 54 L 6 68 L 18 64 Z" style="fill: rgb(182,137,142);"/>
    <path d="M 18 64 L 6 68 L 10 85 Z" style="fill: rgb(184,146,136);"/>
    <path d="M 3 165 L 21 165 L 14 159 Z" style="fill: rgb(174,114,117);"/>
    <path d="M 28 202 L 29 213 L 35 196 Z" style="fill: rgb(183,91,128);"/>
    <path d="M 29 213 L 32 218 L 49 197 Z" style="fill: rgb(186,94,133);"/>
    <path d="M 50.6 240 L 61 240 L 61 240 L 50 237 Z" style="fill: rgb(213,105,141);"/>
    <path d="M 61 240 L 61 240 L 61 240 Z" style="fill: rgb(209,107,147);"/>
    <path d="M 320 21.6 L 320 17.5 L 316 23 L 319 24 Z" style="fill: rgb(235,91,107);"/>
    <path d="M 29 26 L 18 44 L 33 50 Z" style="fill: rgb(192,131,129);"/>
    <path d="M 320 21.6 L 319 24 L 320 24.318181818181817 Z" style="fill: rgb(233,93,111);"/>
    <path d="M 303 0 L 303 0 L 303 0 Z" style="fill: rgb(236,76,83);"/>
    <path d="M 32 218 L 41 232 L 50 224 Z" style="fill: rgb(204,97,131);"/>
    <path d="M 314 239 L 320 231 L 305 228 Z" style="fill: rgb(238,38,122);"/>
    <path d="M 311 240 L 314 239 L 305 228 L 300.5 240 Z" style="fill: rgb(237,39,123);"/>
    <path d="M 320 24.31818181818182 L 319 24 L 320 25.09090909090909 Z" style="fill: rgb(225,98,123);"/>
    <path d="M 313.72727272727275 240 L 314 239 L 311 240 Z" style="fill: rgb(243,37,121);"/>
    <path d="M 10 54 L 18 64 L 21 58 Z" style="fill: rgb(178,136,147);"/>
    <path d="M 0 132.64285714285714 L 5 133 L 0 127.375 Z" style="fill: rgb(199,175,93);"/>
    <path d="M 8 40 L 10 54 L 18 44 Z" style="fill: rgb(198,129,121);"/>
    <path d="M 18 44 L 10 54 L 21 58 Z" style="fill: rgb(187,133,136);"/>
    <path d="M 0 96.6923076923077 L 0 106.95 L 13 118 L 6 93 Z" style="fill: rgb(196,173,107);"/>
    <path d="M 5 133 L 0 134.42857142857142 L 0 135.94117647058823 L 15 143 Z" style="fill: rgb(191,158,104);"/>
    <path d="M 6 68 L 0 87 L 10 85 Z" style="fill: rgb(191,152,124);"/>
    <path d="M 0 156.5 L 0 160.47368421052633 L 14 159 L 15 143 Z" style="fill: rgb(182,128,110);"/>
    <path d="M 49.705882352941174 0 L 45.25 0 L 34 9 L 53 14 Z" style="fill: rgb(212,123,98);"/>
    <path d="M 10 30 L 8 40 L 18 44 Z" style="fill: rgb(206,126,109);"/>
    <path d="M 34 9 L 27 18 L 43 25 Z" style="fill: rgb(210,124,103);"/>
    <path d="M 45.25 0 L 39.53846153846154 0 L 34 9 Z" style="fill: rgb(221,119,84);"/>
    <path d="M 12 7 L 10 30 L 27 18 Z" style="fill: rgb(222,118,82);"/>
    <path d="M 320 231 L 320 231 L 320 231 Z" style="fill: rgb(233,41,124);"/>
    <path d="M 5 187 L 12 197 L 27 178 Z" style="fill: rgb(174,83,117);"/>
    <path d="M 29 213 L 24 224 L 32 218 Z" style="fill: rgb(205,91,119);"/>
    <path d="M 32 218 L 24 224 L 41 232 Z" style="fill: rgb(211,93,121);"/>
    <path d="M 320 231 L 320 231 L 320 231 Z" style="fill: rgb(246,35,120);"/>
    <path d="M 312.9230769230769 0 L 320 7.666666666666666 L 320 0.33333333333333337 L 318 0 Z" style="fill: rgb(249,79,83);"/>
    <path d="M 303 0 L 303 0 L 303 0 Z" style="fill: rgb(242,76,80);"/>
    <path d="M 0 171.375 L 0 184.5 L 5 187 L 3 165 Z" style="fill: rgb(176,81,105);"/>
    <path d="M 3 165 L 5 187 L 21 165 Z" style="fill: rgb(172,95,114);"/>
    <path d="M 0 68 L 0 87 L 0 87 L 6 68 Z" style="fill: rgb(194,145,122);"/>
    <path d="M 0 87 L 0 87 L 0 96.6923076923077 L 6 93 Z" style="fill: rgb(198,163,109);"/>
    <path d="M 0 135.94117647058823 L 0 156.5 L 15 143 Z" style="fill: rgb(190,141,102);"/>
    <path d="M 3 216 L 29 213 L 12 197 Z" style="fill: rgb(202,84,108);"/>
    <path d="M 3 216 L 24 224 L 29 213 Z" style="fill: rgb(211,86,108);"/>
    <path d="M 44.333333333333336 240 L 50.6 240 L 50 237 Z" style="fill: rgb(221,101,130);"/>
    <path d="M 10 30 L 18 44 L 29 26 Z" style="fill: rgb(206,126,109);"/>
    <path d="M 0 62.75 L 0 68 L 6 68 Z" style="fill: rgb(193,137,126);"/>
    <path d="M 10 30 L 29 26 L 27 18 Z" style="fill: rgb(212,123,99);"/>
    <path d="M 0 116.375 L 0 127.375 L 5 133 L 13 118 Z" style="fill: rgb(198,184,94);"/>
    <path d="M 0 59.833333333333336 L 0 62.75 L 6 68 L 10 54 Z" style="fill: rgb(188,134,134);"/>
    <path d="M 36.42857142857143 240 L 44.333333333333336 240 L 50 237 L 41 232 Z" style="fill: rgb(222,98,125);"/>
    <path d="M 25.9 0 L 25.105263157894736 0 L 27 18 L 34 9 Z" style="fill: rgb(222,118,81);"/>
    <path d="M 0 106.95 L 0 116.375 L 13 118 Z" style="fill: rgb(200,179,97);"/>
    <path d="M 0 50.19047619047619 L 0 59.833333333333336 L 10 54 Z" style="fill: rgb(199,129,119);"/>
    <path d="M 25.9 0 L 34 9 L 39.53846153846154 0 Z" style="fill: rgb(225,116,75);"/>
    <path d="M 315.44444444444446 240 L 320 240 L 320 231 L 320 231 L 314 239 Z" style="fill: rgb(254,31,117);"/>
    <path d="M 19 240 L 41 232 L 24 224 Z" style="fill: rgb(224,92,113);"/>
    <path d="M 19 240 L 19 240 L 36.42857142857143 240 L 41 232 Z" style="fill: rgb(231,93,113);"/>
    <path d="M 0 166.8 L 0 171.375 L 3 165 Z" style="fill: rgb(179,89,103);"/>
    <path d="M 5 187 L 0 196 L 12 197 Z" style="fill: rgb(189,79,104);"/>
    <path d="M 0 166.8 L 3 165 L 0 163.5 Z" style="fill: rgb(183,103,102);"/>
    <path d="M 0 184.5 L 0 196 L 0 196 L 5 187 Z" style="fill: rgb(186,76,100);"/>
    <path d="M 313.72727272727275 240 L 315.44444444444446 240 L 314 239 Z" style="fill: rgb(252,32,118);"/>
    <path d="M 320 0 L 318 0 L 320 0.33333333333333326 Z" style="fill: rgb(251,75,77);"/>
    <path d="M 0 196 L 0 196 L 0 196 Z" style="fill: rgb(205,77,94);"/>
    <path d="M 320 231 L 320 231 L 320 231 Z" style="fill: rgb(255,31,117);"/>
    <path d="M 5 222 L 19 240 L 24 224 Z" style="fill: rgb(227,85,100);"/>
    <path d="M 3 216 L 12 197 L 0 196 Z" style="fill: rgb(202,79,99);"/>
    <path d="M 0 196 L 0 213.75 L 3 216 L 0 196 Z" style="fill: rgb(209,77,92);"/>
    <path d="M 13.555555555555555 0 L 12 7 L 23.375 0 Z" style="fill: rgb(235,110,53);"/>
    <path d="M 25.105263157894736 0 L 23.375 0 L 12 7 L 27 18 Z" style="fill: rgb(227,115,71);"/>
    <path d="M 0 42.526315789473685 L 0 50.19047619047619 L 10 54 L 8 40 Z" style="fill: rgb(205,126,111);"/>
    <path d="M 0 87 L 0 87 L 0 87 Z" style="fill: rgb(195,146,120);"/>
    <path d="M 0 220.71428571428572 L 0 224.77777777777777 L 5 222 L 3 216 Z" style="fill: rgb(228,77,87);"/>
    <path d="M 3 216 L 5 222 L 24 224 Z" style="fill: rgb(221,82,98);"/>
    <path d="M 0 42.526315789473685 L 8 40 L 0 24.88888888888889 Z" style="fill: rgb(217,121,91);"/>
    <path d="M 0 23.636363636363637 L 0 24.88888888888889 L 8 40 L 10 30 Z" style="fill: rgb(218,120,90);"/>
    <path d="M 0 9.857142857142858 L 0 21.76923076923077 L 12 7 Z" style="fill: rgb(235,110,54);"/>
    <path d="M 12 7 L 0 21.76923076923077 L 0 23.636363636363637 L 10 30 Z" style="fill: rgb(226,116,73);"/>
    <path d="M 0 87 L 0 87 L 0 87 Z" style="fill: rgb(198,160,111);"/>
    <path d="M 0 87 L 0 87 L 0 87 Z" style="fill: rgb(196,151,117);"/>
    <path d="M 0 196 L 0 196 L 0 196 Z" style="fill: rgb(194,76,98);"/>
    <path d="M 19 240 L 19 240 L 19 240 Z" style="fill: rgb(241,86,97);"/>
    <path d="M 19 240 L 19 240 L 19 240 Z" style="fill: rgb(236,90,106);"/>
    <path d="M 8.130434782608695 240 L 19 240 L 19 240 L 5 222 Z" style="fill: rgb(240,82,91);"/>
    <path d="M 0 224.77777777777777 L 0 232.53846153846155 L 5.388888888888887 240 L 8.130434782608695 240 L 5 222 Z" style="fill: rgb(239,78,84);"/>
    <path d="M 0 220.71428571428572 L 3 216 L 0 213.75 Z" style="fill: rgb(222,76,88);"/>
    <path d="M 19 240 L 19 240 L 19 240 Z" style="fill: rgb(244,83,91);"/>
    <path d="M 0 9.857142857142858 L 12 7 L 0 4.333333333333334 Z" style="fill: rgb(241,106,39);"/>
    <path d="M 6 0 L 0 1.5 L 0 4.333333333333333 L 12 7 L 13.555555555555555 0 Z" style="fill: rgb(240,106,40);"/>
    <path d="M 0 0 L 0 1.5 L 6 0 Z" style="fill: rgb(245,102,22);"/>
    <path d="M 5.388888888888886 240 L 0 232.53846153846155 L 0 240 Z" style="fill: rgb(251,76,78);"/>
  </g>
</svg>