<!-- Erstellt mit https://yqnn.github.io/svg-path-editor/ -->
<svg xmlns="http://www.w3.org/2000/svg" viewBox="0 0 59 56">
	<path d="M 14.3 43 C 10.4 43 7 41.6 4.2 38.8 C 1.4 36 0 32.6 0 28.6 C 0 25 1.1 22 3.4 19.4 C 5.6 16.8 8.4 15.2 11.7 14.5 C 12.6 10.3 14.7 6.9 18.1 4.1 C 21.4 1.4 25.2 0 30 0 C 34.6 0 38.9 1.8 42.4 5.5 C 46 9.2 47.7 13.6 47.7 18.7 V 19.8 C 51.1 19.9 53.8 21.1 55.9 23.3 C 58 25.6 59 28.3 59 31.4 C 59 34.6 57.9 37.3 55.6 39.6 C 53.3 41.9 50.6 43 47.4 43 H 14.3 Z M 14.3 38.5 H 47.4 C 49.4 38.5 51 37.8 52.4 36.4 C 53.8 35 54.5 33.3 54.5 31.4 C 54.5 29.4 53.8 27.7 52.4 26.3 C 51 24.9 49.4 24.3 47.4 24.3 H 43.2 V 18.7 C 43.2 14.8 41.9 11.5 39.3 8.7 C 36.7 5.9 33.4 4.5 29.6 4.5 C 26.5 4.5 23.8 5.4 21.3 7.2 C 18.8 9 17.1 11.4 16.2 14.4 C 19.8 14.9 22.7 16.4 25 18.9 C 27.4 21.4 28.6 24.5 28.6 28.2 H 24.1 C 24.1 25.5 23.1 23.2 21.2 21.4 C 19.3 19.6 16.9 18.7 14.2 18.7 C 11.5 18.7 9.2 19.7 7.3 21.6 C 5.4 23.6 4.5 25.9 4.5 28.6 C 4.5 31.4 5.5 33.7 7.4 35.6 C 9.3 37.5 11.6 38.5 14.3 38.5 Z M 30 45 Q 23 55 29 55 T 30 45" fill="#DEFB3A"/>
</svg>