M48
; DRILL file {KiCad 7.0.7} date Thu Jan  4 23:51:05 2024
; FORMAT={-:-/ absolute / metric / decimal}
; #@! TF.CreationDate,2024-01-04T23:51:05+01:00
; #@! TF.GenerationSoftware,Kicad,Pcbnew,7.0.7
; #@! TF.FileFunction,Plated,1,2,PTH
FMAT,2
METRIC
; #@! TA.AperFunction,Plated,PTH,ViaDrill
T1C0.400
; #@! TA.AperFunction,Plated,PTH,ComponentDrill
T2C0.800
; #@! TA.AperFunction,Plated,PTH,ComponentDrill
T3C1.000
%
G90
G05
T1
X48.514Y-53.848
X49.276Y-83.312
X49.784Y-66.548
X50.546Y-50.8
X55.88Y-46.228
X56.642Y-52.07
X56.896Y-48.768
X59.69Y-121.666
X59.944Y-106.172
X64.436Y-133.096
X69.088Y-146.558
X69.262Y-131.826
X69.596Y-136.652
X70.104Y-102.87
X71.294Y-134.62
X73.834Y-134.62
X78.152Y-129.794
X78.406Y-126.746
X83.74Y-126.746
X85.09Y-139.446
X88.617Y-136.906
X88.718Y-132.232
X89.074Y-117.094
X93.722Y-134.188
X94.103Y-132.664
X94.234Y-145.288
X94.234Y-146.304
X94.234Y-147.32
X94.234Y-148.336
X94.234Y-149.352
X96.52Y-128.016
X96.52Y-129.032
X96.52Y-130.048
X96.52Y-131.064
X96.52Y-140.462
X96.52Y-141.478
X96.52Y-142.494
X96.52Y-143.51
T2
X75.184Y-110.998
X80.184Y-110.998
T3
X51.457Y-107.671
X51.457Y-110.211
X51.457Y-112.751
X51.457Y-115.291
X51.457Y-117.831
X51.457Y-120.371
X51.457Y-122.911
X51.457Y-125.451
X51.457Y-127.991
X51.457Y-130.531
X51.457Y-133.071
X51.457Y-135.611
X51.457Y-138.151
X51.457Y-140.691
X51.457Y-143.231
X52.752Y-86.614
X52.752Y-89.154
X52.752Y-91.694
X52.752Y-94.234
X54.515Y-99.568
X57.055Y-99.568
X59.595Y-99.568
X60.372Y-86.614
X60.372Y-89.154
X60.372Y-91.694
X66.697Y-107.671
X66.697Y-110.211
X66.697Y-112.751
X66.697Y-115.291
X66.697Y-117.831
X66.697Y-120.371
X66.697Y-122.911
X66.697Y-125.451
X66.697Y-127.991
X66.697Y-130.531
X66.697Y-133.071
X66.697Y-135.611
X66.697Y-138.151
X66.697Y-140.691
X66.697Y-143.231
X72.564Y-124.714
X72.564Y-127.254
X72.564Y-129.794
X72.564Y-132.334
X72.564Y-137.668
X72.564Y-140.208
X80.184Y-124.714
X80.184Y-127.254
X80.184Y-129.794
X80.184Y-132.334
X85.767Y-103.632
X85.772Y-123.952
X88.307Y-103.632
X88.312Y-123.952
X90.847Y-103.632
X90.852Y-123.952
X91.186Y-51.816
X93.387Y-103.632
X93.392Y-123.952
X93.726Y-51.816
X95.927Y-103.632
X95.932Y-123.952
X96.266Y-51.816
X98.806Y-51.816
T0
M30
