G04 #@! TF.GenerationSoftware,KiCad,Pcbnew,7.0.7*
G04 #@! TF.CreationDate,2024-01-04T23:51:07+01:00*
G04 #@! TF.ProjectId,ExternalPCB,45787465-726e-4616-9c50-43422e6b6963,A*
G04 #@! TF.SameCoordinates,Original*
G04 #@! TF.FileFunction,Soldermask,Top*
G04 #@! TF.FilePolarity,Negative*
%FSLAX46Y46*%
G04 Gerber Fmt 4.6, Leading zero omitted, Abs format (unit mm)*
G04 Created by KiCad (PCBNEW 7.0.7) date 2024-01-04 23:51:07*
%MOMM*%
%LPD*%
G01*
G04 APERTURE LIST*
G04 Aperture macros list*
%AMRoundRect*
0 Rectangle with rounded corners*
0 $1 Rounding radius*
0 $2 $3 $4 $5 $6 $7 $8 $9 X,Y pos of 4 corners*
0 Add a 4 corners polygon primitive as box body*
4,1,4,$2,$3,$4,$5,$6,$7,$8,$9,$2,$3,0*
0 Add four circle primitives for the rounded corners*
1,1,$1+$1,$2,$3*
1,1,$1+$1,$4,$5*
1,1,$1+$1,$6,$7*
1,1,$1+$1,$8,$9*
0 Add four rect primitives between the rounded corners*
20,1,$1+$1,$2,$3,$4,$5,0*
20,1,$1+$1,$4,$5,$6,$7,0*
20,1,$1+$1,$6,$7,$8,$9,0*
20,1,$1+$1,$8,$9,$2,$3,0*%
G04 Aperture macros list end*
%ADD10R,0.600000X1.200000*%
%ADD11R,2.700000X1.450000*%
%ADD12R,1.700000X1.700000*%
%ADD13O,1.700000X1.700000*%
%ADD14RoundRect,0.250000X-1.075000X0.312500X-1.075000X-0.312500X1.075000X-0.312500X1.075000X0.312500X0*%
%ADD15RoundRect,0.250000X-0.250000X-0.475000X0.250000X-0.475000X0.250000X0.475000X-0.250000X0.475000X0*%
%ADD16RoundRect,0.250000X1.075000X-0.312500X1.075000X0.312500X-1.075000X0.312500X-1.075000X-0.312500X0*%
%ADD17R,4.000000X4.000000*%
%ADD18RoundRect,0.100000X-0.712500X-0.100000X0.712500X-0.100000X0.712500X0.100000X-0.712500X0.100000X0*%
%ADD19R,0.900000X0.400000*%
%ADD20R,1.600000X1.600000*%
%ADD21O,1.600000X1.600000*%
%ADD22RoundRect,0.250000X-0.262500X-0.450000X0.262500X-0.450000X0.262500X0.450000X-0.262500X0.450000X0*%
%ADD23R,0.350000X0.500000*%
%ADD24RoundRect,0.250000X0.475000X-0.250000X0.475000X0.250000X-0.475000X0.250000X-0.475000X-0.250000X0*%
%ADD25C,1.600000*%
%ADD26RoundRect,0.250000X0.250000X0.475000X-0.250000X0.475000X-0.250000X-0.475000X0.250000X-0.475000X0*%
G04 APERTURE END LIST*
D10*
X90556000Y-146010000D03*
X91506000Y-146010000D03*
X92456000Y-146010000D03*
X92456000Y-143510000D03*
X90556000Y-143510000D03*
D11*
X86106000Y-146460000D03*
X86106000Y-143510000D03*
X85344000Y-135538000D03*
X85344000Y-132588000D03*
D12*
X91186000Y-51816000D03*
D13*
X93726000Y-51816000D03*
X96266000Y-51816000D03*
X98806000Y-51816000D03*
D14*
X59436000Y-139700000D03*
X59436000Y-142625000D03*
D12*
X52752000Y-86614000D03*
D13*
X52752000Y-89154000D03*
X52752000Y-91694000D03*
X52752000Y-94234000D03*
D12*
X80184000Y-124714000D03*
D13*
X80184000Y-127254000D03*
X80184000Y-129794000D03*
X80184000Y-132334000D03*
D15*
X90626000Y-148336000D03*
X92526000Y-148336000D03*
D16*
X59690000Y-119888000D03*
X59690000Y-116963000D03*
D17*
X80209400Y-145770600D03*
D12*
X72564000Y-124714000D03*
D13*
X72564000Y-127254000D03*
X72564000Y-129794000D03*
X72564000Y-132334000D03*
D18*
X74435000Y-119380000D03*
X74435000Y-120030000D03*
X74435000Y-120680000D03*
X74435000Y-121330000D03*
X78660000Y-121330000D03*
X78660000Y-120680000D03*
X78660000Y-120030000D03*
X78660000Y-119380000D03*
D19*
X92414200Y-134188200D03*
X92414200Y-133538200D03*
X92414200Y-132888200D03*
X90214200Y-132888200D03*
X90214200Y-133538200D03*
X90214200Y-134188200D03*
D20*
X51456600Y-107670600D03*
D21*
X51456600Y-110210600D03*
X51456600Y-112750600D03*
X51456600Y-115290600D03*
X51456600Y-117830600D03*
X51456600Y-120370600D03*
X51456600Y-122910600D03*
X51456600Y-125450600D03*
X51456600Y-127990600D03*
X51456600Y-130530600D03*
X51456600Y-133070600D03*
X51456600Y-135610600D03*
X51456600Y-138150600D03*
X51456600Y-140690600D03*
X51456600Y-143230600D03*
X66696600Y-143230600D03*
X66696600Y-140690600D03*
X66696600Y-138150600D03*
X66696600Y-135610600D03*
X66696600Y-133070600D03*
X66696600Y-130530600D03*
X66696600Y-127990600D03*
X66696600Y-125450600D03*
X66696600Y-122910600D03*
X66696600Y-120370600D03*
X66696600Y-117830600D03*
X66696600Y-115290600D03*
X66696600Y-112750600D03*
X66696600Y-110210600D03*
X66696600Y-107670600D03*
D12*
X59595000Y-99568000D03*
D13*
X57055000Y-99568000D03*
X54515000Y-99568000D03*
D15*
X90450600Y-136118600D03*
X92350600Y-136118600D03*
X90379400Y-130708400D03*
X92279400Y-130708400D03*
D17*
X73859400Y-145796000D03*
D12*
X95927000Y-103632000D03*
D13*
X93387000Y-103632000D03*
X90847000Y-103632000D03*
X88307000Y-103632000D03*
X85767000Y-103632000D03*
D15*
X92522000Y-141572400D03*
X94422000Y-141572400D03*
D12*
X60372000Y-86614000D03*
D13*
X60372000Y-89154000D03*
X60372000Y-91694000D03*
D22*
X52851000Y-43688000D03*
X54676000Y-43688000D03*
D12*
X95932000Y-123952000D03*
D13*
X93392000Y-123952000D03*
X90852000Y-123952000D03*
X88312000Y-123952000D03*
X85772000Y-123952000D03*
D22*
X52851000Y-45974000D03*
X54676000Y-45974000D03*
D23*
X53701000Y-47997000D03*
X54351000Y-47997000D03*
X55001000Y-47997000D03*
X55651000Y-47997000D03*
X55651000Y-50047000D03*
X55001000Y-50047000D03*
X54351000Y-50047000D03*
X53701000Y-50047000D03*
D15*
X92522000Y-139438800D03*
X94422000Y-139438800D03*
D24*
X49276000Y-86736000D03*
X49276000Y-84836000D03*
D25*
X80184000Y-110998000D03*
X75184000Y-110998000D03*
D15*
X90394600Y-128574800D03*
X92294600Y-128574800D03*
D12*
X72564000Y-137668000D03*
D13*
X72564000Y-140208000D03*
D26*
X53594000Y-52070000D03*
X51694000Y-52070000D03*
M02*
