G04 #@! TF.GenerationSoftware,KiCad,Pcbnew,7.0.7*
G04 #@! TF.CreationDate,2024-01-04T23:51:07+01:00*
G04 #@! TF.ProjectId,ExternalPCB,45787465-726e-4616-9c50-43422e6b6963,A*
G04 #@! TF.SameCoordinates,Original*
G04 #@! TF.FileFunction,Soldermask,Bot*
G04 #@! TF.FilePolarity,Negative*
%FSLAX46Y46*%
G04 Gerber Fmt 4.6, Leading zero omitted, Abs format (unit mm)*
G04 Created by KiCad (PCBNEW 7.0.7) date 2024-01-04 23:51:07*
%MOMM*%
%LPD*%
G01*
G04 APERTURE LIST*
%ADD10R,1.700000X1.700000*%
%ADD11O,1.700000X1.700000*%
%ADD12R,1.600000X1.600000*%
%ADD13O,1.600000X1.600000*%
%ADD14C,1.600000*%
G04 APERTURE END LIST*
D10*
X91186000Y-51816000D03*
D11*
X93726000Y-51816000D03*
X96266000Y-51816000D03*
X98806000Y-51816000D03*
D10*
X52752000Y-86614000D03*
D11*
X52752000Y-89154000D03*
X52752000Y-91694000D03*
X52752000Y-94234000D03*
D10*
X80184000Y-124714000D03*
D11*
X80184000Y-127254000D03*
X80184000Y-129794000D03*
X80184000Y-132334000D03*
D10*
X72564000Y-124714000D03*
D11*
X72564000Y-127254000D03*
X72564000Y-129794000D03*
X72564000Y-132334000D03*
D12*
X51456600Y-107670600D03*
D13*
X51456600Y-110210600D03*
X51456600Y-112750600D03*
X51456600Y-115290600D03*
X51456600Y-117830600D03*
X51456600Y-120370600D03*
X51456600Y-122910600D03*
X51456600Y-125450600D03*
X51456600Y-127990600D03*
X51456600Y-130530600D03*
X51456600Y-133070600D03*
X51456600Y-135610600D03*
X51456600Y-138150600D03*
X51456600Y-140690600D03*
X51456600Y-143230600D03*
X66696600Y-143230600D03*
X66696600Y-140690600D03*
X66696600Y-138150600D03*
X66696600Y-135610600D03*
X66696600Y-133070600D03*
X66696600Y-130530600D03*
X66696600Y-127990600D03*
X66696600Y-125450600D03*
X66696600Y-122910600D03*
X66696600Y-120370600D03*
X66696600Y-117830600D03*
X66696600Y-115290600D03*
X66696600Y-112750600D03*
X66696600Y-110210600D03*
X66696600Y-107670600D03*
D10*
X59595000Y-99568000D03*
D11*
X57055000Y-99568000D03*
X54515000Y-99568000D03*
D10*
X95927000Y-103632000D03*
D11*
X93387000Y-103632000D03*
X90847000Y-103632000D03*
X88307000Y-103632000D03*
X85767000Y-103632000D03*
D10*
X60372000Y-86614000D03*
D11*
X60372000Y-89154000D03*
X60372000Y-91694000D03*
D10*
X95932000Y-123952000D03*
D11*
X93392000Y-123952000D03*
X90852000Y-123952000D03*
X88312000Y-123952000D03*
X85772000Y-123952000D03*
D14*
X80184000Y-110998000D03*
X75184000Y-110998000D03*
D10*
X72564000Y-137668000D03*
D11*
X72564000Y-140208000D03*
M02*
