G04 #@! TF.GenerationSoftware,KiCad,Pcbnew,7.0.7*
G04 #@! TF.CreationDate,2024-01-04T23:51:07+01:00*
G04 #@! TF.ProjectId,ExternalPCB,45787465-726e-4616-9c50-43422e6b6963,A*
G04 #@! TF.SameCoordinates,Original*
G04 #@! TF.FileFunction,Copper,L2,Bot*
G04 #@! TF.FilePolarity,Positive*
%FSLAX46Y46*%
G04 Gerber Fmt 4.6, Leading zero omitted, Abs format (unit mm)*
G04 Created by KiCad (PCBNEW 7.0.7) date 2024-01-04 23:51:07*
%MOMM*%
%LPD*%
G01*
G04 APERTURE LIST*
G04 #@! TA.AperFunction,ComponentPad*
%ADD10R,1.700000X1.700000*%
G04 #@! TD*
G04 #@! TA.AperFunction,ComponentPad*
%ADD11O,1.700000X1.700000*%
G04 #@! TD*
G04 #@! TA.AperFunction,ComponentPad*
%ADD12R,1.600000X1.600000*%
G04 #@! TD*
G04 #@! TA.AperFunction,ComponentPad*
%ADD13O,1.600000X1.600000*%
G04 #@! TD*
G04 #@! TA.AperFunction,ComponentPad*
%ADD14C,1.600000*%
G04 #@! TD*
G04 #@! TA.AperFunction,ViaPad*
%ADD15C,0.800000*%
G04 #@! TD*
G04 #@! TA.AperFunction,ViaPad*
%ADD16C,1.200000*%
G04 #@! TD*
G04 #@! TA.AperFunction,Conductor*
%ADD17C,0.254000*%
G04 #@! TD*
G04 #@! TA.AperFunction,Conductor*
%ADD18C,0.381000*%
G04 #@! TD*
G04 #@! TA.AperFunction,Conductor*
%ADD19C,1.270000*%
G04 #@! TD*
G04 #@! TA.AperFunction,Conductor*
%ADD20C,0.508000*%
G04 #@! TD*
G04 APERTURE END LIST*
D10*
X91186000Y-51816000D03*
D11*
X93726000Y-51816000D03*
X96266000Y-51816000D03*
X98806000Y-51816000D03*
D10*
X52752000Y-86614000D03*
D11*
X52752000Y-89154000D03*
X52752000Y-91694000D03*
X52752000Y-94234000D03*
D10*
X80184000Y-124714000D03*
D11*
X80184000Y-127254000D03*
X80184000Y-129794000D03*
X80184000Y-132334000D03*
D10*
X72564000Y-124714000D03*
D11*
X72564000Y-127254000D03*
X72564000Y-129794000D03*
X72564000Y-132334000D03*
D12*
X51456600Y-107670600D03*
D13*
X51456600Y-110210600D03*
X51456600Y-112750600D03*
X51456600Y-115290600D03*
X51456600Y-117830600D03*
X51456600Y-120370600D03*
X51456600Y-122910600D03*
X51456600Y-125450600D03*
X51456600Y-127990600D03*
X51456600Y-130530600D03*
X51456600Y-133070600D03*
X51456600Y-135610600D03*
X51456600Y-138150600D03*
X51456600Y-140690600D03*
X51456600Y-143230600D03*
X66696600Y-143230600D03*
X66696600Y-140690600D03*
X66696600Y-138150600D03*
X66696600Y-135610600D03*
X66696600Y-133070600D03*
X66696600Y-130530600D03*
X66696600Y-127990600D03*
X66696600Y-125450600D03*
X66696600Y-122910600D03*
X66696600Y-120370600D03*
X66696600Y-117830600D03*
X66696600Y-115290600D03*
X66696600Y-112750600D03*
X66696600Y-110210600D03*
X66696600Y-107670600D03*
D10*
X59595000Y-99568000D03*
D11*
X57055000Y-99568000D03*
X54515000Y-99568000D03*
D10*
X95927000Y-103632000D03*
D11*
X93387000Y-103632000D03*
X90847000Y-103632000D03*
X88307000Y-103632000D03*
X85767000Y-103632000D03*
D10*
X60372000Y-86614000D03*
D11*
X60372000Y-89154000D03*
X60372000Y-91694000D03*
D10*
X95932000Y-123952000D03*
D11*
X93392000Y-123952000D03*
X90852000Y-123952000D03*
X88312000Y-123952000D03*
X85772000Y-123952000D03*
D14*
X80184000Y-110998000D03*
X75184000Y-110998000D03*
D10*
X72564000Y-137668000D03*
D11*
X72564000Y-140208000D03*
D15*
X94234000Y-145288000D03*
X94234000Y-146304000D03*
X94234000Y-147320000D03*
X94234000Y-148336000D03*
X94234000Y-149352000D03*
X89074000Y-117094000D03*
X56896000Y-48768000D03*
X49784000Y-66548000D03*
X96520000Y-143510000D03*
X96520000Y-141478000D03*
X96520000Y-142494000D03*
X50546000Y-50800000D03*
X96520000Y-129032000D03*
X96520000Y-131064000D03*
X96520000Y-140462000D03*
D16*
X69088000Y-146558000D03*
D15*
X96520000Y-130048000D03*
X96520000Y-128016000D03*
X49276000Y-83312000D03*
X83740000Y-126746000D03*
X69262000Y-131826000D03*
X78152000Y-129794000D03*
X78406000Y-126746000D03*
X64436000Y-133096000D03*
X71294000Y-134620000D03*
X73834000Y-134620000D03*
X55880000Y-46228000D03*
X70104000Y-102870000D03*
X59944000Y-106172000D03*
X94103200Y-132664200D03*
X88718400Y-132232400D03*
X93722200Y-134188200D03*
X88616800Y-136906000D03*
X56642000Y-52070000D03*
X85090000Y-139446000D03*
X48514000Y-53848000D03*
X59690000Y-121666000D03*
X69596000Y-136652000D03*
D17*
X89074000Y-117094000D02*
X93392000Y-121412000D01*
X93392000Y-121412000D02*
X93392000Y-123952000D01*
X56896000Y-48768000D02*
X52578000Y-48768000D01*
X93726000Y-51816000D02*
X93726000Y-66802000D01*
X52578000Y-48768000D02*
X50546000Y-50800000D01*
D18*
X51456600Y-117830600D02*
X57055000Y-112232200D01*
X57055000Y-112232200D02*
X57055000Y-99568000D01*
D17*
X83740000Y-126746000D02*
X93138000Y-126746000D01*
X93138000Y-126746000D02*
X95932000Y-123952000D01*
X73580000Y-131064000D02*
X74850000Y-129794000D01*
X70024000Y-131064000D02*
X73580000Y-131064000D01*
X74850000Y-129794000D02*
X78152000Y-129794000D01*
X69262000Y-131826000D02*
X70024000Y-131064000D01*
X65452000Y-131826000D02*
X64436000Y-132842000D01*
X70786000Y-128524000D02*
X67992000Y-131318000D01*
X67992000Y-131318000D02*
X67484000Y-131826000D01*
X64436000Y-132842000D02*
X64436000Y-133096000D01*
X71548000Y-128524000D02*
X70786000Y-128524000D01*
X78406000Y-126746000D02*
X76628000Y-128524000D01*
X67484000Y-131826000D02*
X65452000Y-131826000D01*
X76628000Y-128524000D02*
X71548000Y-128524000D01*
X73834000Y-134620000D02*
X71294000Y-134620000D01*
X70104000Y-122043200D02*
X66696600Y-125450600D01*
X93218000Y-46228000D02*
X98806000Y-51816000D01*
X55880000Y-46228000D02*
X93218000Y-46228000D01*
X70104000Y-102870000D02*
X70104000Y-122043200D01*
X59944000Y-116158000D02*
X66696600Y-122910600D01*
X59944000Y-106172000D02*
X59944000Y-116158000D01*
D18*
X89150200Y-132664200D02*
X88718400Y-132232400D01*
D19*
X60372000Y-86614000D02*
X63500000Y-86614000D01*
D18*
X94103200Y-132664200D02*
X89150200Y-132664200D01*
D19*
X63500000Y-86614000D02*
X80184000Y-103298000D01*
X80184000Y-103298000D02*
X80184000Y-110998000D01*
D18*
X93722200Y-134188200D02*
X91004400Y-136906000D01*
X91004400Y-136906000D02*
X88616800Y-136906000D01*
D20*
X75946000Y-139446000D02*
X75184000Y-140208000D01*
X85090000Y-139446000D02*
X85090000Y-130302000D01*
X82550000Y-77978000D02*
X56642000Y-52070000D01*
D17*
X48514000Y-53848000D02*
X54864000Y-53848000D01*
D20*
X78152000Y-119126000D02*
X72564000Y-124714000D01*
X85090000Y-130302000D02*
X82550000Y-127762000D01*
X82550000Y-119126000D02*
X82550000Y-77978000D01*
X85090000Y-139446000D02*
X75946000Y-139446000D01*
D17*
X54864000Y-53848000D02*
X56642000Y-52070000D01*
D20*
X82550000Y-119126000D02*
X78152000Y-119126000D01*
X82550000Y-127762000D02*
X82550000Y-119126000D01*
X75184000Y-140208000D02*
X72564000Y-140208000D01*
D17*
X59690000Y-132842000D02*
X64998600Y-138150600D01*
X59690000Y-121666000D02*
X59690000Y-132842000D01*
X64998600Y-138150600D02*
X66696600Y-138150600D01*
X68554600Y-135610600D02*
X66696600Y-135610600D01*
X69596000Y-136652000D02*
X68554600Y-135610600D01*
G04 #@! TA.AperFunction,Conductor*
G36*
X52929510Y-89653507D02*
G01*
X52982314Y-89699261D01*
X53001999Y-89766301D01*
X53002000Y-90304000D01*
X53001999Y-91081698D01*
X52982314Y-91148738D01*
X52929510Y-91194492D01*
X52860353Y-91204436D01*
X52787764Y-91194000D01*
X52787763Y-91194000D01*
X52716237Y-91194000D01*
X52716233Y-91194000D01*
X52643645Y-91204436D01*
X52574487Y-91194492D01*
X52521684Y-91148736D01*
X52502000Y-91081698D01*
X52502000Y-89766301D01*
X52521685Y-89699262D01*
X52574489Y-89653507D01*
X52643647Y-89643563D01*
X52716237Y-89654000D01*
X52716238Y-89654000D01*
X52787762Y-89654000D01*
X52787763Y-89654000D01*
X52860352Y-89643563D01*
X52929510Y-89653507D01*
G37*
G04 #@! TD.AperFunction*
G04 #@! TA.AperFunction,Conductor*
G36*
X68798653Y-65297685D02*
G01*
X68819295Y-65314319D01*
X81759181Y-78254205D01*
X81792666Y-78315528D01*
X81795500Y-78341886D01*
X81795500Y-118247500D01*
X81775815Y-118314539D01*
X81723011Y-118360294D01*
X81671500Y-118371500D01*
X78215992Y-118371500D01*
X78198023Y-118370191D01*
X78174089Y-118366685D01*
X78130927Y-118370462D01*
X78121758Y-118371264D01*
X78116359Y-118371500D01*
X78108057Y-118371500D01*
X78086227Y-118374051D01*
X78075312Y-118375327D01*
X78066188Y-118376125D01*
X77998392Y-118382056D01*
X77991319Y-118383517D01*
X77991308Y-118383465D01*
X77983832Y-118385122D01*
X77983845Y-118385174D01*
X77976819Y-118386839D01*
X77904260Y-118413247D01*
X77830962Y-118437536D01*
X77824420Y-118440587D01*
X77824397Y-118440539D01*
X77817507Y-118443875D01*
X77817531Y-118443922D01*
X77811076Y-118447163D01*
X77746555Y-118489598D01*
X77680849Y-118530127D01*
X77675179Y-118534611D01*
X77675146Y-118534569D01*
X77669214Y-118539401D01*
X77669248Y-118539442D01*
X77663717Y-118544082D01*
X77610728Y-118600247D01*
X73668502Y-122542472D01*
X73637391Y-122565135D01*
X72106769Y-123349844D01*
X72050199Y-123363500D01*
X71666129Y-123363500D01*
X71666123Y-123363501D01*
X71606516Y-123369908D01*
X71471671Y-123420202D01*
X71471664Y-123420206D01*
X71356455Y-123506452D01*
X71356452Y-123506455D01*
X71270206Y-123621664D01*
X71270202Y-123621671D01*
X71219908Y-123756517D01*
X71213501Y-123816116D01*
X71213500Y-123816135D01*
X71213500Y-125611870D01*
X71213501Y-125611876D01*
X71219908Y-125671483D01*
X71270202Y-125806328D01*
X71270206Y-125806335D01*
X71356452Y-125921544D01*
X71356455Y-125921547D01*
X71471664Y-126007793D01*
X71471671Y-126007797D01*
X71603081Y-126056810D01*
X71659015Y-126098681D01*
X71683432Y-126164145D01*
X71668580Y-126232418D01*
X71647430Y-126260673D01*
X71525503Y-126382600D01*
X71389965Y-126576169D01*
X71389964Y-126576171D01*
X71290098Y-126790335D01*
X71290094Y-126790344D01*
X71228938Y-127018586D01*
X71228936Y-127018596D01*
X71208341Y-127253999D01*
X71208341Y-127254000D01*
X71228936Y-127489403D01*
X71228938Y-127489413D01*
X71290094Y-127717655D01*
X71290096Y-127717660D01*
X71290097Y-127717663D01*
X71291233Y-127720099D01*
X71291411Y-127721272D01*
X71291947Y-127722744D01*
X71291651Y-127722851D01*
X71301723Y-127789176D01*
X71273201Y-127852959D01*
X71214724Y-127891197D01*
X71178849Y-127896500D01*
X70868967Y-127896500D01*
X70853318Y-127894772D01*
X70853292Y-127895054D01*
X70845524Y-127894319D01*
X70776141Y-127896500D01*
X70746522Y-127896500D01*
X70739618Y-127897371D01*
X70733800Y-127897829D01*
X70687060Y-127899298D01*
X70687054Y-127899299D01*
X70667719Y-127904916D01*
X70648680Y-127908859D01*
X70628715Y-127911382D01*
X70628701Y-127911385D01*
X70585235Y-127928594D01*
X70579710Y-127930485D01*
X70534809Y-127943531D01*
X70534806Y-127943533D01*
X70517480Y-127953779D01*
X70500010Y-127962337D01*
X70481298Y-127969745D01*
X70443463Y-127997233D01*
X70438580Y-128000440D01*
X70398346Y-128024234D01*
X70384106Y-128038474D01*
X70369320Y-128051102D01*
X70353033Y-128062936D01*
X70353032Y-128062936D01*
X70323227Y-128098963D01*
X70319295Y-128103285D01*
X68162935Y-130259644D01*
X68101612Y-130293129D01*
X68031920Y-130288145D01*
X67975987Y-130246273D01*
X67955480Y-130204057D01*
X67937740Y-130137848D01*
X67923342Y-130084113D01*
X67923338Y-130084102D01*
X67897836Y-130029413D01*
X67827168Y-129877866D01*
X67696647Y-129691461D01*
X67696645Y-129691458D01*
X67535741Y-129530554D01*
X67349335Y-129400033D01*
X67349336Y-129400033D01*
X67349334Y-129400032D01*
X67291322Y-129372980D01*
X67238884Y-129326808D01*
X67219733Y-129259614D01*
X67239949Y-129192733D01*
X67291321Y-129148219D01*
X67349334Y-129121168D01*
X67535739Y-128990647D01*
X67696647Y-128829739D01*
X67827168Y-128643334D01*
X67923339Y-128437096D01*
X67982235Y-128217292D01*
X67999234Y-128022984D01*
X68002068Y-127990601D01*
X68002068Y-127990598D01*
X67996126Y-127922687D01*
X67982235Y-127763908D01*
X67934866Y-127587125D01*
X67923341Y-127544111D01*
X67923338Y-127544102D01*
X67827168Y-127337866D01*
X67696647Y-127151461D01*
X67696645Y-127151458D01*
X67535741Y-126990554D01*
X67349335Y-126860033D01*
X67349336Y-126860033D01*
X67349334Y-126860032D01*
X67291322Y-126832980D01*
X67238884Y-126786808D01*
X67219733Y-126719614D01*
X67239949Y-126652733D01*
X67291321Y-126608219D01*
X67349334Y-126581168D01*
X67535739Y-126450647D01*
X67696647Y-126289739D01*
X67827168Y-126103334D01*
X67906506Y-125933190D01*
X67907873Y-125930442D01*
X67912576Y-125921547D01*
X67915806Y-125915438D01*
X67918202Y-125908737D01*
X67920371Y-125903459D01*
X67923339Y-125897096D01*
X67925583Y-125888717D01*
X67927094Y-125883878D01*
X67981008Y-125733150D01*
X68350057Y-124701401D01*
X68379129Y-124655488D01*
X70489043Y-122545574D01*
X70501325Y-122535737D01*
X70501144Y-122535518D01*
X70507152Y-122530546D01*
X70507162Y-122530540D01*
X70554677Y-122479941D01*
X70575623Y-122458996D01*
X70579892Y-122453490D01*
X70583676Y-122449059D01*
X70615693Y-122414967D01*
X70625389Y-122397328D01*
X70636073Y-122381061D01*
X70648408Y-122365162D01*
X70666978Y-122322246D01*
X70669534Y-122317027D01*
X70692072Y-122276034D01*
X70697078Y-122256534D01*
X70703382Y-122238124D01*
X70711370Y-122219665D01*
X70711373Y-122219659D01*
X70718687Y-122173480D01*
X70719868Y-122167770D01*
X70731500Y-122122472D01*
X70731500Y-122102335D01*
X70733027Y-122082935D01*
X70736174Y-122063067D01*
X70731775Y-122016529D01*
X70731500Y-122010691D01*
X70731500Y-110998002D01*
X73879034Y-110998002D01*
X73898858Y-111224599D01*
X73898860Y-111224610D01*
X73957730Y-111444317D01*
X73957734Y-111444326D01*
X74053865Y-111650481D01*
X74053866Y-111650483D01*
X74104973Y-111723471D01*
X74104973Y-111723472D01*
X74646580Y-111181865D01*
X74707903Y-111148380D01*
X74777594Y-111153364D01*
X74833528Y-111195235D01*
X74844742Y-111213246D01*
X74850527Y-111224599D01*
X74856358Y-111236044D01*
X74856363Y-111236050D01*
X74945949Y-111325636D01*
X74945951Y-111325637D01*
X74945955Y-111325641D01*
X74968747Y-111337254D01*
X75019542Y-111385228D01*
X75036337Y-111453049D01*
X75013799Y-111519184D01*
X75000132Y-111535419D01*
X74458526Y-112077025D01*
X74458526Y-112077026D01*
X74531512Y-112128131D01*
X74531516Y-112128133D01*
X74737673Y-112224265D01*
X74737682Y-112224269D01*
X74957389Y-112283139D01*
X74957400Y-112283141D01*
X75183998Y-112302966D01*
X75184002Y-112302966D01*
X75410599Y-112283141D01*
X75410610Y-112283139D01*
X75630317Y-112224269D01*
X75630331Y-112224264D01*
X75836478Y-112128136D01*
X75909472Y-112077025D01*
X75367866Y-111535419D01*
X75334381Y-111474096D01*
X75339365Y-111404404D01*
X75381237Y-111348471D01*
X75399245Y-111337258D01*
X75422045Y-111325641D01*
X75511641Y-111236045D01*
X75523254Y-111213252D01*
X75571225Y-111162458D01*
X75639046Y-111145661D01*
X75705181Y-111168197D01*
X75721419Y-111181866D01*
X76263025Y-111723472D01*
X76314136Y-111650478D01*
X76410264Y-111444331D01*
X76410269Y-111444317D01*
X76469139Y-111224610D01*
X76469141Y-111224599D01*
X76488966Y-110998002D01*
X76488966Y-110997997D01*
X76469141Y-110771400D01*
X76469139Y-110771389D01*
X76410269Y-110551682D01*
X76410265Y-110551673D01*
X76314133Y-110345516D01*
X76314131Y-110345512D01*
X76263026Y-110272526D01*
X76263025Y-110272526D01*
X75721419Y-110814132D01*
X75660096Y-110847617D01*
X75590404Y-110842633D01*
X75534471Y-110800761D01*
X75523256Y-110782751D01*
X75511641Y-110759955D01*
X75511637Y-110759951D01*
X75511636Y-110759949D01*
X75422050Y-110670363D01*
X75422044Y-110670358D01*
X75412109Y-110665296D01*
X75399250Y-110658744D01*
X75348456Y-110610773D01*
X75331660Y-110542952D01*
X75354197Y-110476817D01*
X75367865Y-110460580D01*
X75909472Y-109918973D01*
X75836483Y-109867866D01*
X75836481Y-109867865D01*
X75630326Y-109771734D01*
X75630317Y-109771730D01*
X75410610Y-109712860D01*
X75410599Y-109712858D01*
X75184002Y-109693034D01*
X75183998Y-109693034D01*
X74957400Y-109712858D01*
X74957389Y-109712860D01*
X74737682Y-109771730D01*
X74737673Y-109771734D01*
X74531513Y-109867868D01*
X74458526Y-109918973D01*
X75000133Y-110460580D01*
X75033618Y-110521903D01*
X75028634Y-110591595D01*
X74986762Y-110647528D01*
X74968748Y-110658745D01*
X74945956Y-110670358D01*
X74945949Y-110670363D01*
X74856363Y-110759949D01*
X74856358Y-110759956D01*
X74844745Y-110782748D01*
X74796770Y-110833544D01*
X74728949Y-110850338D01*
X74662814Y-110827800D01*
X74646580Y-110814133D01*
X74104973Y-110272526D01*
X74053868Y-110345513D01*
X73957734Y-110551673D01*
X73957730Y-110551682D01*
X73898860Y-110771389D01*
X73898858Y-110771400D01*
X73879034Y-110997997D01*
X73879034Y-110998002D01*
X70731500Y-110998002D01*
X70731500Y-103797465D01*
X70739392Y-103753933D01*
X70878618Y-103382595D01*
X70942916Y-103211100D01*
X70956800Y-103168386D01*
X70957209Y-103165185D01*
X70962280Y-103142563D01*
X70967549Y-103126347D01*
X70989674Y-103058256D01*
X71009460Y-102870000D01*
X70989674Y-102681744D01*
X70931179Y-102501716D01*
X70836533Y-102337784D01*
X70709871Y-102197112D01*
X70709870Y-102197111D01*
X70556734Y-102085851D01*
X70556729Y-102085848D01*
X70383807Y-102008857D01*
X70383802Y-102008855D01*
X70238000Y-101977865D01*
X70198646Y-101969500D01*
X70009354Y-101969500D01*
X69976897Y-101976398D01*
X69824197Y-102008855D01*
X69824192Y-102008857D01*
X69651270Y-102085848D01*
X69651265Y-102085851D01*
X69498129Y-102197111D01*
X69371466Y-102337785D01*
X69276821Y-102501715D01*
X69276818Y-102501722D01*
X69220674Y-102674517D01*
X69218326Y-102681744D01*
X69198540Y-102870000D01*
X69213762Y-103014831D01*
X69218326Y-103058256D01*
X69218327Y-103058259D01*
X69258106Y-103180687D01*
X69259702Y-103186567D01*
X69265080Y-103211090D01*
X69265082Y-103211097D01*
X69334630Y-103396592D01*
X69468607Y-103753933D01*
X69468608Y-103753934D01*
X69476500Y-103797466D01*
X69476500Y-121731918D01*
X69456815Y-121798957D01*
X69440181Y-121819599D01*
X68209689Y-123050090D01*
X68148366Y-123083575D01*
X68078674Y-123078591D01*
X68022741Y-123036719D01*
X67998324Y-122971255D01*
X67998479Y-122951612D01*
X68002068Y-122910600D01*
X67982235Y-122683908D01*
X67937516Y-122517015D01*
X67923341Y-122464111D01*
X67923338Y-122464102D01*
X67920957Y-122458996D01*
X67827168Y-122257866D01*
X67696647Y-122071461D01*
X67696645Y-122071458D01*
X67535741Y-121910554D01*
X67349333Y-121780031D01*
X67291324Y-121752981D01*
X67238885Y-121706808D01*
X67219734Y-121639614D01*
X67239950Y-121572733D01*
X67291321Y-121528219D01*
X67349334Y-121501168D01*
X67535739Y-121370647D01*
X67696647Y-121209739D01*
X67827168Y-121023334D01*
X67923339Y-120817096D01*
X67982235Y-120597292D01*
X68002068Y-120370600D01*
X67982235Y-120143908D01*
X67923339Y-119924104D01*
X67827168Y-119717866D01*
X67696647Y-119531461D01*
X67696645Y-119531458D01*
X67535741Y-119370554D01*
X67349334Y-119240032D01*
X67349328Y-119240029D01*
X67291325Y-119212982D01*
X67238885Y-119166810D01*
X67219733Y-119099617D01*
X67239948Y-119032735D01*
X67291325Y-118988218D01*
X67349334Y-118961168D01*
X67535739Y-118830647D01*
X67696647Y-118669739D01*
X67827168Y-118483334D01*
X67923339Y-118277096D01*
X67982235Y-118057292D01*
X68002068Y-117830600D01*
X67982235Y-117603908D01*
X67923339Y-117384104D01*
X67827168Y-117177866D01*
X67696647Y-116991461D01*
X67696645Y-116991458D01*
X67535741Y-116830554D01*
X67349334Y-116700032D01*
X67349328Y-116700029D01*
X67291325Y-116672982D01*
X67238885Y-116626810D01*
X67219733Y-116559617D01*
X67239948Y-116492735D01*
X67291325Y-116448218D01*
X67349334Y-116421168D01*
X67535739Y-116290647D01*
X67696647Y-116129739D01*
X67827168Y-115943334D01*
X67923339Y-115737096D01*
X67982235Y-115517292D01*
X68002068Y-115290600D01*
X67982235Y-115063908D01*
X67923339Y-114844104D01*
X67827168Y-114637866D01*
X67696647Y-114451461D01*
X67696645Y-114451458D01*
X67535741Y-114290554D01*
X67349334Y-114160032D01*
X67349328Y-114160029D01*
X67291325Y-114132982D01*
X67238885Y-114086810D01*
X67219733Y-114019617D01*
X67239948Y-113952735D01*
X67291325Y-113908218D01*
X67349334Y-113881168D01*
X67535739Y-113750647D01*
X67696647Y-113589739D01*
X67827168Y-113403334D01*
X67923339Y-113197096D01*
X67982235Y-112977292D01*
X68002068Y-112750600D01*
X67982235Y-112523908D01*
X67923339Y-112304104D01*
X67827168Y-112097866D01*
X67696647Y-111911461D01*
X67696645Y-111911458D01*
X67535741Y-111750554D01*
X67349334Y-111620032D01*
X67349332Y-111620031D01*
X67291325Y-111592982D01*
X67290732Y-111592705D01*
X67238294Y-111546534D01*
X67219142Y-111479340D01*
X67239358Y-111412459D01*
X67290734Y-111367941D01*
X67349084Y-111340732D01*
X67535420Y-111210257D01*
X67696257Y-111049420D01*
X67826734Y-110863082D01*
X67922865Y-110656926D01*
X67922869Y-110656917D01*
X67975472Y-110460600D01*
X67309947Y-110460600D01*
X67242908Y-110440915D01*
X67197153Y-110388111D01*
X67187209Y-110318953D01*
X67190969Y-110301667D01*
X67196600Y-110282488D01*
X67196600Y-110138711D01*
X67190969Y-110119533D01*
X67190970Y-110049664D01*
X67228745Y-109990886D01*
X67292301Y-109961862D01*
X67309947Y-109960600D01*
X67975472Y-109960600D01*
X67975472Y-109960599D01*
X67922869Y-109764282D01*
X67922865Y-109764273D01*
X67826734Y-109558117D01*
X67696257Y-109371779D01*
X67535420Y-109210942D01*
X67349082Y-109080465D01*
X67290733Y-109053257D01*
X67238294Y-109007084D01*
X67219142Y-108939891D01*
X67239358Y-108873010D01*
X67290729Y-108828495D01*
X67349334Y-108801168D01*
X67535739Y-108670647D01*
X67696647Y-108509739D01*
X67827168Y-108323334D01*
X67923339Y-108117096D01*
X67982235Y-107897292D01*
X68002068Y-107670600D01*
X67982235Y-107443908D01*
X67923339Y-107224104D01*
X67827168Y-107017866D01*
X67696647Y-106831461D01*
X67696645Y-106831458D01*
X67535741Y-106670554D01*
X67349334Y-106540032D01*
X67349332Y-106540031D01*
X67143097Y-106443861D01*
X67143088Y-106443858D01*
X66923297Y-106384966D01*
X66923293Y-106384965D01*
X66923292Y-106384965D01*
X66923291Y-106384964D01*
X66923286Y-106384964D01*
X66696602Y-106365132D01*
X66696598Y-106365132D01*
X66469913Y-106384964D01*
X66469902Y-106384966D01*
X66250111Y-106443858D01*
X66250102Y-106443861D01*
X66043867Y-106540031D01*
X66043865Y-106540032D01*
X65857458Y-106670554D01*
X65696554Y-106831458D01*
X65566032Y-107017865D01*
X65566031Y-107017867D01*
X65469861Y-107224102D01*
X65469858Y-107224111D01*
X65410966Y-107443902D01*
X65410964Y-107443913D01*
X65391132Y-107670598D01*
X65391132Y-107670601D01*
X65410964Y-107897286D01*
X65410966Y-107897297D01*
X65469858Y-108117088D01*
X65469861Y-108117097D01*
X65566031Y-108323332D01*
X65566032Y-108323334D01*
X65696554Y-108509741D01*
X65857458Y-108670645D01*
X65857461Y-108670647D01*
X66043866Y-108801168D01*
X66102465Y-108828493D01*
X66154905Y-108874665D01*
X66174057Y-108941858D01*
X66153842Y-109008739D01*
X66102467Y-109053257D01*
X66044115Y-109080467D01*
X65857779Y-109210942D01*
X65696942Y-109371779D01*
X65566465Y-109558117D01*
X65470334Y-109764273D01*
X65470330Y-109764282D01*
X65417727Y-109960599D01*
X65417728Y-109960600D01*
X66083253Y-109960600D01*
X66150292Y-109980285D01*
X66196047Y-110033089D01*
X66205991Y-110102247D01*
X66202231Y-110119533D01*
X66196600Y-110138711D01*
X66196600Y-110282488D01*
X66202231Y-110301667D01*
X66202230Y-110371536D01*
X66164455Y-110430314D01*
X66100899Y-110459338D01*
X66083253Y-110460600D01*
X65417728Y-110460600D01*
X65470330Y-110656917D01*
X65470334Y-110656926D01*
X65566465Y-110863082D01*
X65696942Y-111049420D01*
X65857779Y-111210257D01*
X66044118Y-111340734D01*
X66044120Y-111340735D01*
X66102465Y-111367942D01*
X66154905Y-111414114D01*
X66174057Y-111481307D01*
X66153842Y-111548189D01*
X66102467Y-111592705D01*
X66043868Y-111620031D01*
X66043864Y-111620033D01*
X65857458Y-111750554D01*
X65696554Y-111911458D01*
X65566032Y-112097865D01*
X65566031Y-112097867D01*
X65469861Y-112304102D01*
X65469858Y-112304111D01*
X65410966Y-112523902D01*
X65410964Y-112523913D01*
X65391132Y-112750598D01*
X65391132Y-112750601D01*
X65410964Y-112977286D01*
X65410966Y-112977297D01*
X65469858Y-113197088D01*
X65469861Y-113197097D01*
X65566031Y-113403332D01*
X65566032Y-113403334D01*
X65696554Y-113589741D01*
X65857458Y-113750645D01*
X65857461Y-113750647D01*
X66043866Y-113881168D01*
X66101875Y-113908218D01*
X66154314Y-113954391D01*
X66173466Y-114021584D01*
X66153250Y-114088465D01*
X66101875Y-114132982D01*
X66043867Y-114160031D01*
X66043865Y-114160032D01*
X65857458Y-114290554D01*
X65696554Y-114451458D01*
X65566032Y-114637865D01*
X65566031Y-114637867D01*
X65469861Y-114844102D01*
X65469858Y-114844111D01*
X65410966Y-115063902D01*
X65410964Y-115063913D01*
X65391132Y-115290598D01*
X65391132Y-115290601D01*
X65410964Y-115517286D01*
X65410966Y-115517297D01*
X65469858Y-115737088D01*
X65469861Y-115737097D01*
X65566031Y-115943332D01*
X65566032Y-115943334D01*
X65696554Y-116129741D01*
X65857458Y-116290645D01*
X66043785Y-116421111D01*
X66043866Y-116421168D01*
X66101878Y-116448219D01*
X66154313Y-116494388D01*
X66173466Y-116561582D01*
X66153251Y-116628463D01*
X66101877Y-116672980D01*
X66043868Y-116700030D01*
X66043865Y-116700032D01*
X65857458Y-116830554D01*
X65696554Y-116991458D01*
X65566032Y-117177865D01*
X65566031Y-117177867D01*
X65469861Y-117384102D01*
X65469858Y-117384111D01*
X65410966Y-117603902D01*
X65410964Y-117603913D01*
X65391132Y-117830598D01*
X65391132Y-117830601D01*
X65410964Y-118057286D01*
X65410966Y-118057297D01*
X65469858Y-118277088D01*
X65469861Y-118277097D01*
X65566031Y-118483332D01*
X65566032Y-118483334D01*
X65696554Y-118669741D01*
X65857458Y-118830645D01*
X65857461Y-118830647D01*
X66043866Y-118961168D01*
X66101878Y-118988219D01*
X66154313Y-119034388D01*
X66173466Y-119101582D01*
X66153251Y-119168463D01*
X66101877Y-119212980D01*
X66043868Y-119240030D01*
X66043865Y-119240032D01*
X65857458Y-119370554D01*
X65696554Y-119531458D01*
X65566032Y-119717865D01*
X65566031Y-119717867D01*
X65469861Y-119924102D01*
X65469858Y-119924111D01*
X65410966Y-120143902D01*
X65410964Y-120143913D01*
X65391132Y-120370598D01*
X65391132Y-120370602D01*
X65394719Y-120411603D01*
X65380952Y-120480103D01*
X65332337Y-120530286D01*
X65264308Y-120546219D01*
X65198465Y-120522843D01*
X65183510Y-120510091D01*
X60607819Y-115934400D01*
X60574334Y-115873077D01*
X60571500Y-115846719D01*
X60571500Y-107099465D01*
X60579392Y-107055933D01*
X60593665Y-107017866D01*
X60782916Y-106513100D01*
X60796800Y-106470386D01*
X60797209Y-106467185D01*
X60802280Y-106444563D01*
X60808050Y-106426806D01*
X60829674Y-106360256D01*
X60849460Y-106172000D01*
X60829674Y-105983744D01*
X60771179Y-105803716D01*
X60676533Y-105639784D01*
X60549871Y-105499112D01*
X60549870Y-105499111D01*
X60396734Y-105387851D01*
X60396729Y-105387848D01*
X60223807Y-105310857D01*
X60223802Y-105310855D01*
X60078001Y-105279865D01*
X60038646Y-105271500D01*
X59849354Y-105271500D01*
X59816897Y-105278398D01*
X59664197Y-105310855D01*
X59664192Y-105310857D01*
X59491270Y-105387848D01*
X59491265Y-105387851D01*
X59338129Y-105499111D01*
X59211466Y-105639785D01*
X59116821Y-105803715D01*
X59116818Y-105803722D01*
X59058327Y-105983740D01*
X59058326Y-105983744D01*
X59038540Y-106172000D01*
X59058326Y-106360256D01*
X59061525Y-106370101D01*
X59098106Y-106482687D01*
X59099702Y-106488567D01*
X59105080Y-106513090D01*
X59105082Y-106513097D01*
X59308607Y-107055934D01*
X59316499Y-107099466D01*
X59316499Y-116075040D01*
X59314772Y-116090687D01*
X59315053Y-116090714D01*
X59314319Y-116098473D01*
X59316500Y-116167859D01*
X59316500Y-116197477D01*
X59317371Y-116204380D01*
X59317829Y-116210199D01*
X59319298Y-116256942D01*
X59324916Y-116276275D01*
X59328862Y-116295329D01*
X59331383Y-116315287D01*
X59331386Y-116315299D01*
X59348595Y-116358765D01*
X59350487Y-116364293D01*
X59363530Y-116409187D01*
X59363530Y-116409188D01*
X59373777Y-116426515D01*
X59382335Y-116443985D01*
X59389745Y-116462701D01*
X59417229Y-116500529D01*
X59420437Y-116505413D01*
X59444234Y-116545652D01*
X59444240Y-116545660D01*
X59458469Y-116559888D01*
X59471109Y-116574687D01*
X59482934Y-116590964D01*
X59482936Y-116590965D01*
X59482937Y-116590967D01*
X59516209Y-116618492D01*
X59518957Y-116620765D01*
X59523268Y-116624687D01*
X62269134Y-119370553D01*
X65014066Y-122115485D01*
X65043141Y-122161403D01*
X65466106Y-123343883D01*
X65467615Y-123348717D01*
X65469859Y-123357090D01*
X65469861Y-123357096D01*
X65472823Y-123363449D01*
X65475002Y-123368752D01*
X65475415Y-123369908D01*
X65479332Y-123380857D01*
X65481593Y-123386753D01*
X65509628Y-123447482D01*
X65509629Y-123447484D01*
X65509630Y-123447485D01*
X65512944Y-123453051D01*
X65512764Y-123453158D01*
X65521359Y-123467534D01*
X65566031Y-123563333D01*
X65696554Y-123749741D01*
X65857458Y-123910645D01*
X65857461Y-123910647D01*
X66043866Y-124041168D01*
X66101873Y-124068217D01*
X66154312Y-124114389D01*
X66173464Y-124181583D01*
X66153248Y-124248464D01*
X66101875Y-124292980D01*
X66043868Y-124320030D01*
X66043864Y-124320032D01*
X65857458Y-124450554D01*
X65696554Y-124611458D01*
X65566032Y-124797865D01*
X65566031Y-124797867D01*
X65469861Y-125004102D01*
X65469858Y-125004111D01*
X65410966Y-125223902D01*
X65410964Y-125223913D01*
X65391132Y-125450598D01*
X65391132Y-125450601D01*
X65410964Y-125677286D01*
X65410966Y-125677297D01*
X65469858Y-125897088D01*
X65469861Y-125897097D01*
X65566031Y-126103332D01*
X65566032Y-126103334D01*
X65696554Y-126289741D01*
X65857458Y-126450645D01*
X66036727Y-126576169D01*
X66043866Y-126581168D01*
X66101878Y-126608219D01*
X66154313Y-126654388D01*
X66173466Y-126721582D01*
X66153251Y-126788463D01*
X66101877Y-126832980D01*
X66043868Y-126860030D01*
X66043865Y-126860032D01*
X65857458Y-126990554D01*
X65696554Y-127151458D01*
X65566032Y-127337865D01*
X65566031Y-127337867D01*
X65469861Y-127544102D01*
X65469858Y-127544111D01*
X65410966Y-127763902D01*
X65410964Y-127763913D01*
X65391132Y-127990598D01*
X65391132Y-127990601D01*
X65410964Y-128217286D01*
X65410966Y-128217297D01*
X65469858Y-128437088D01*
X65469861Y-128437097D01*
X65566031Y-128643332D01*
X65566032Y-128643334D01*
X65696554Y-128829741D01*
X65857458Y-128990645D01*
X66043785Y-129121111D01*
X66043866Y-129121168D01*
X66101878Y-129148219D01*
X66154313Y-129194388D01*
X66173466Y-129261582D01*
X66153251Y-129328463D01*
X66101877Y-129372980D01*
X66043868Y-129400030D01*
X66043865Y-129400032D01*
X65857458Y-129530554D01*
X65696554Y-129691458D01*
X65566032Y-129877865D01*
X65566031Y-129877867D01*
X65469861Y-130084102D01*
X65469858Y-130084111D01*
X65410966Y-130303902D01*
X65410964Y-130303913D01*
X65391132Y-130530598D01*
X65391132Y-130530601D01*
X65410964Y-130757286D01*
X65410966Y-130757297D01*
X65469858Y-130977088D01*
X65469863Y-130977102D01*
X65491735Y-131024006D01*
X65502227Y-131093083D01*
X65473707Y-131156867D01*
X65415230Y-131195106D01*
X65383252Y-131200349D01*
X65353057Y-131201298D01*
X65333713Y-131206918D01*
X65314669Y-131210862D01*
X65311709Y-131211235D01*
X65294707Y-131213384D01*
X65294703Y-131213385D01*
X65294700Y-131213386D01*
X65251235Y-131230594D01*
X65245710Y-131232485D01*
X65200809Y-131245531D01*
X65200806Y-131245533D01*
X65183480Y-131255779D01*
X65166010Y-131264337D01*
X65147298Y-131271745D01*
X65109463Y-131299233D01*
X65104580Y-131302440D01*
X65064346Y-131326234D01*
X65050106Y-131340474D01*
X65035320Y-131353102D01*
X65019033Y-131364936D01*
X65019032Y-131364936D01*
X64989227Y-131400963D01*
X64985295Y-131405285D01*
X64450955Y-131939624D01*
X64435456Y-131952363D01*
X64435506Y-131952427D01*
X64433067Y-131954326D01*
X64432320Y-131954941D01*
X64432024Y-131955139D01*
X63847382Y-132410576D01*
X63830129Y-132423112D01*
X63805372Y-132450606D01*
X63769721Y-132487787D01*
X63765463Y-132493375D01*
X63765257Y-132493218D01*
X63757336Y-132503954D01*
X63703468Y-132563782D01*
X63703464Y-132563787D01*
X63608821Y-132727715D01*
X63608818Y-132727722D01*
X63554727Y-132894199D01*
X63550326Y-132907744D01*
X63530540Y-133096000D01*
X63550326Y-133284256D01*
X63550327Y-133284259D01*
X63608818Y-133464277D01*
X63608821Y-133464284D01*
X63703467Y-133628216D01*
X63740246Y-133669063D01*
X63830129Y-133768888D01*
X63983265Y-133880148D01*
X63983270Y-133880151D01*
X64156192Y-133957142D01*
X64156197Y-133957144D01*
X64341354Y-133996500D01*
X64341355Y-133996500D01*
X64530644Y-133996500D01*
X64530646Y-133996500D01*
X64715803Y-133957144D01*
X64888730Y-133880151D01*
X65041871Y-133768888D01*
X65168533Y-133628216D01*
X65245197Y-133495428D01*
X65295762Y-133447215D01*
X65364369Y-133433991D01*
X65429234Y-133459959D01*
X65467187Y-133512368D01*
X65467573Y-133512189D01*
X65468504Y-133514187D01*
X65469102Y-133515012D01*
X65469858Y-133517090D01*
X65566031Y-133723332D01*
X65566032Y-133723334D01*
X65696554Y-133909741D01*
X65857458Y-134070645D01*
X65857461Y-134070647D01*
X66043866Y-134201168D01*
X66097425Y-134226143D01*
X66101875Y-134228218D01*
X66154314Y-134274391D01*
X66173466Y-134341584D01*
X66153250Y-134408465D01*
X66101875Y-134452982D01*
X66043867Y-134480031D01*
X66043865Y-134480032D01*
X65857458Y-134610554D01*
X65696554Y-134771458D01*
X65566032Y-134957865D01*
X65566031Y-134957867D01*
X65469861Y-135164102D01*
X65469858Y-135164111D01*
X65410966Y-135383902D01*
X65410964Y-135383913D01*
X65391132Y-135610598D01*
X65391132Y-135610601D01*
X65410964Y-135837286D01*
X65410966Y-135837297D01*
X65469858Y-136057088D01*
X65469861Y-136057097D01*
X65566031Y-136263332D01*
X65566032Y-136263334D01*
X65696554Y-136449741D01*
X65857458Y-136610645D01*
X65857461Y-136610647D01*
X66043866Y-136741168D01*
X66097423Y-136766142D01*
X66149862Y-136812315D01*
X66169014Y-136879508D01*
X66148798Y-136946389D01*
X66098046Y-136990613D01*
X65245609Y-137393889D01*
X65176591Y-137404765D01*
X65112649Y-137376600D01*
X65104900Y-137369481D01*
X62746639Y-135011220D01*
X60353816Y-132618396D01*
X60320333Y-132557076D01*
X60317499Y-132530727D01*
X60317499Y-122593462D01*
X60325392Y-122549931D01*
X60485660Y-122122472D01*
X60528916Y-122007100D01*
X60542800Y-121964386D01*
X60543209Y-121961185D01*
X60548280Y-121938563D01*
X60557381Y-121910554D01*
X60575674Y-121854256D01*
X60595460Y-121666000D01*
X60575674Y-121477744D01*
X60517179Y-121297716D01*
X60422533Y-121133784D01*
X60295871Y-120993112D01*
X60276489Y-120979030D01*
X60142734Y-120881851D01*
X60142729Y-120881848D01*
X59969807Y-120804857D01*
X59969802Y-120804855D01*
X59824001Y-120773865D01*
X59784646Y-120765500D01*
X59595354Y-120765500D01*
X59562897Y-120772398D01*
X59410197Y-120804855D01*
X59410192Y-120804857D01*
X59237270Y-120881848D01*
X59237265Y-120881851D01*
X59084129Y-120993111D01*
X58957466Y-121133785D01*
X58862821Y-121297715D01*
X58862818Y-121297722D01*
X58804327Y-121477740D01*
X58804326Y-121477744D01*
X58787818Y-121634810D01*
X58784540Y-121666000D01*
X58804326Y-121854256D01*
X58804327Y-121854259D01*
X58844106Y-121976687D01*
X58845702Y-121982567D01*
X58851080Y-122007090D01*
X58851082Y-122007097D01*
X58913464Y-122173480D01*
X59047336Y-122530540D01*
X59054608Y-122549934D01*
X59062500Y-122593466D01*
X59062500Y-132759032D01*
X59060772Y-132774681D01*
X59061054Y-132774708D01*
X59060319Y-132782475D01*
X59062500Y-132851859D01*
X59062500Y-132881477D01*
X59063371Y-132888380D01*
X59063829Y-132894199D01*
X59065298Y-132940942D01*
X59070916Y-132960275D01*
X59074862Y-132979329D01*
X59077383Y-132999287D01*
X59077386Y-132999299D01*
X59094595Y-133042765D01*
X59096487Y-133048293D01*
X59109530Y-133093187D01*
X59109530Y-133093188D01*
X59119777Y-133110515D01*
X59128335Y-133127985D01*
X59135745Y-133146701D01*
X59163229Y-133184529D01*
X59166437Y-133189413D01*
X59190234Y-133229652D01*
X59190240Y-133229660D01*
X59204469Y-133243888D01*
X59217106Y-133258684D01*
X59220778Y-133263738D01*
X59228934Y-133274964D01*
X59228936Y-133274965D01*
X59228937Y-133274967D01*
X59262693Y-133302892D01*
X59264957Y-133304765D01*
X59269268Y-133308687D01*
X61939692Y-135979111D01*
X64496224Y-138535643D01*
X64506071Y-138547933D01*
X64506289Y-138547754D01*
X64511257Y-138553760D01*
X64561857Y-138601277D01*
X64582801Y-138622220D01*
X64582807Y-138622226D01*
X64588297Y-138626483D01*
X64592748Y-138630284D01*
X64626835Y-138662295D01*
X64626837Y-138662296D01*
X64644468Y-138671988D01*
X64660737Y-138682674D01*
X64676637Y-138695007D01*
X64676637Y-138695008D01*
X64719544Y-138713575D01*
X64724793Y-138716147D01*
X64765761Y-138738670D01*
X64765764Y-138738671D01*
X64765766Y-138738672D01*
X64785259Y-138743676D01*
X64803667Y-138749979D01*
X64822141Y-138757974D01*
X64854490Y-138763097D01*
X64868323Y-138765288D01*
X64874038Y-138766471D01*
X64919328Y-138778100D01*
X64939459Y-138778100D01*
X64958843Y-138779624D01*
X64966639Y-138780859D01*
X65000271Y-138791242D01*
X66098049Y-139310586D01*
X66150230Y-139357048D01*
X66169009Y-139424346D01*
X66148422Y-139491114D01*
X66097427Y-139535055D01*
X66043868Y-139560030D01*
X66043865Y-139560032D01*
X65857458Y-139690554D01*
X65696554Y-139851458D01*
X65566032Y-140037865D01*
X65566031Y-140037867D01*
X65469861Y-140244102D01*
X65469858Y-140244111D01*
X65410966Y-140463902D01*
X65410964Y-140463913D01*
X65391132Y-140690598D01*
X65391132Y-140690601D01*
X65410964Y-140917286D01*
X65410966Y-140917297D01*
X65469858Y-141137088D01*
X65469861Y-141137097D01*
X65566031Y-141343332D01*
X65566032Y-141343334D01*
X65696554Y-141529741D01*
X65857458Y-141690645D01*
X65857461Y-141690647D01*
X66043866Y-141821168D01*
X66101875Y-141848218D01*
X66154314Y-141894391D01*
X66173466Y-141961584D01*
X66153250Y-142028465D01*
X66101875Y-142072982D01*
X66043867Y-142100031D01*
X66043865Y-142100032D01*
X65857458Y-142230554D01*
X65696554Y-142391458D01*
X65566032Y-142577865D01*
X65566031Y-142577867D01*
X65469861Y-142784102D01*
X65469858Y-142784111D01*
X65410966Y-143003902D01*
X65410964Y-143003913D01*
X65391132Y-143230598D01*
X65391132Y-143230601D01*
X65410964Y-143457286D01*
X65410966Y-143457297D01*
X65469858Y-143677088D01*
X65469861Y-143677097D01*
X65566031Y-143883332D01*
X65566032Y-143883334D01*
X65696554Y-144069741D01*
X65857458Y-144230645D01*
X65857461Y-144230647D01*
X66043866Y-144361168D01*
X66250104Y-144457339D01*
X66469908Y-144516235D01*
X66631830Y-144530401D01*
X66696598Y-144536068D01*
X66696600Y-144536068D01*
X66696602Y-144536068D01*
X66753272Y-144531109D01*
X66923292Y-144516235D01*
X67143096Y-144457339D01*
X67349334Y-144361168D01*
X67535739Y-144230647D01*
X67696647Y-144069739D01*
X67827168Y-143883334D01*
X67923339Y-143677096D01*
X67982235Y-143457292D01*
X68002068Y-143230600D01*
X67982235Y-143003908D01*
X67923339Y-142784104D01*
X67827168Y-142577866D01*
X67696647Y-142391461D01*
X67696645Y-142391458D01*
X67535741Y-142230554D01*
X67349334Y-142100032D01*
X67349328Y-142100029D01*
X67291325Y-142072982D01*
X67238885Y-142026810D01*
X67219733Y-141959617D01*
X67239948Y-141892735D01*
X67291325Y-141848218D01*
X67349334Y-141821168D01*
X67535739Y-141690647D01*
X67696647Y-141529739D01*
X67827168Y-141343334D01*
X67923339Y-141137096D01*
X67982235Y-140917292D01*
X68002068Y-140690600D01*
X67982235Y-140463908D01*
X67923339Y-140244104D01*
X67827168Y-140037866D01*
X67696647Y-139851461D01*
X67696645Y-139851458D01*
X67535741Y-139690554D01*
X67349334Y-139560032D01*
X67349328Y-139560029D01*
X67291325Y-139532982D01*
X67238885Y-139486810D01*
X67219733Y-139419617D01*
X67239948Y-139352735D01*
X67291325Y-139308218D01*
X67349334Y-139281168D01*
X67535739Y-139150647D01*
X67696647Y-138989739D01*
X67827168Y-138803334D01*
X67923339Y-138597096D01*
X67982235Y-138377292D01*
X68002068Y-138150600D01*
X67982235Y-137923908D01*
X67923339Y-137704104D01*
X67827168Y-137497866D01*
X67696647Y-137311461D01*
X67696645Y-137311458D01*
X67535741Y-137150554D01*
X67349334Y-137020032D01*
X67349332Y-137020031D01*
X67314979Y-137004012D01*
X67295772Y-136995055D01*
X67243334Y-136948883D01*
X67224182Y-136881690D01*
X67244398Y-136814809D01*
X67295148Y-136770585D01*
X68256205Y-136315922D01*
X68325221Y-136305047D01*
X68389162Y-136333212D01*
X68396912Y-136340331D01*
X68496471Y-136439890D01*
X68521672Y-136476252D01*
X68761601Y-137004007D01*
X68761604Y-137004012D01*
X68762509Y-137005790D01*
X68766074Y-137014397D01*
X68766180Y-137014351D01*
X68768821Y-137020284D01*
X68777119Y-137034657D01*
X68778669Y-137037511D01*
X68782009Y-137044068D01*
X68782962Y-137045571D01*
X68786245Y-137050464D01*
X68863465Y-137184214D01*
X68990129Y-137324888D01*
X69143265Y-137436148D01*
X69143270Y-137436151D01*
X69316192Y-137513142D01*
X69316197Y-137513144D01*
X69501354Y-137552500D01*
X69501355Y-137552500D01*
X69690644Y-137552500D01*
X69690646Y-137552500D01*
X69875803Y-137513144D01*
X70048730Y-137436151D01*
X70201871Y-137324888D01*
X70328533Y-137184216D01*
X70423179Y-137020284D01*
X70481674Y-136840256D01*
X70501460Y-136652000D01*
X70481674Y-136463744D01*
X70423179Y-136283716D01*
X70328533Y-136119784D01*
X70201871Y-135979112D01*
X70201870Y-135979111D01*
X70048730Y-135867848D01*
X69984259Y-135839144D01*
X69967837Y-135830297D01*
X69948007Y-135817601D01*
X69948004Y-135817599D01*
X69948000Y-135817597D01*
X69420253Y-135577673D01*
X69383891Y-135552472D01*
X69056976Y-135225557D01*
X69047131Y-135213268D01*
X69046913Y-135213449D01*
X69041940Y-135207438D01*
X69041940Y-135207437D01*
X68991341Y-135159922D01*
X68980868Y-135149449D01*
X68970397Y-135138977D01*
X68964896Y-135134711D01*
X68960448Y-135130912D01*
X68926368Y-135098908D01*
X68926363Y-135098904D01*
X68908722Y-135089206D01*
X68892457Y-135078522D01*
X68876563Y-135066193D01*
X68876562Y-135066192D01*
X68861404Y-135059632D01*
X68833654Y-135047623D01*
X68828407Y-135045053D01*
X68787437Y-135022529D01*
X68787428Y-135022526D01*
X68767934Y-135017520D01*
X68749533Y-135011220D01*
X68731059Y-135003226D01*
X68731052Y-135003224D01*
X68684887Y-134995913D01*
X68679163Y-134994728D01*
X68633879Y-134983100D01*
X68633872Y-134983100D01*
X68613742Y-134983100D01*
X68594343Y-134981573D01*
X68574468Y-134978425D01*
X68574467Y-134978425D01*
X68527921Y-134982825D01*
X68522083Y-134983100D01*
X68448560Y-134983100D01*
X68395532Y-134971189D01*
X67653196Y-134620000D01*
X70388540Y-134620000D01*
X70408326Y-134808256D01*
X70408327Y-134808259D01*
X70466818Y-134988277D01*
X70466821Y-134988284D01*
X70561467Y-135152216D01*
X70654368Y-135255393D01*
X70688129Y-135292888D01*
X70841265Y-135404148D01*
X70841270Y-135404151D01*
X71014192Y-135481142D01*
X71014195Y-135481143D01*
X71014197Y-135481144D01*
X71199354Y-135520500D01*
X71199355Y-135520500D01*
X71388644Y-135520500D01*
X71388646Y-135520500D01*
X71573803Y-135481144D01*
X71601148Y-135468968D01*
X71625016Y-135461127D01*
X71635101Y-135458916D01*
X72177930Y-135255392D01*
X72221462Y-135247500D01*
X72906538Y-135247500D01*
X72950070Y-135255393D01*
X73492897Y-135458916D01*
X73531943Y-135471607D01*
X73538001Y-135473933D01*
X73554193Y-135481143D01*
X73554197Y-135481144D01*
X73739354Y-135520500D01*
X73739355Y-135520500D01*
X73928644Y-135520500D01*
X73928646Y-135520500D01*
X74113803Y-135481144D01*
X74286730Y-135404151D01*
X74439871Y-135292888D01*
X74566533Y-135152216D01*
X74661179Y-134988284D01*
X74719674Y-134808256D01*
X74739460Y-134620000D01*
X74719674Y-134431744D01*
X74661179Y-134251716D01*
X74566533Y-134087784D01*
X74439871Y-133947112D01*
X74439870Y-133947111D01*
X74286734Y-133835851D01*
X74286729Y-133835848D01*
X74113807Y-133758857D01*
X74113802Y-133758855D01*
X73968000Y-133727865D01*
X73928646Y-133719500D01*
X73739354Y-133719500D01*
X73689375Y-133730123D01*
X73554199Y-133758855D01*
X73554196Y-133758856D01*
X73526850Y-133771031D01*
X73502992Y-133778869D01*
X73492897Y-133781083D01*
X73492892Y-133781085D01*
X72950068Y-133984607D01*
X72906536Y-133992500D01*
X72221467Y-133992500D01*
X72177935Y-133984608D01*
X71899322Y-133880148D01*
X71635099Y-133781083D01*
X71604175Y-133771031D01*
X71596057Y-133768392D01*
X71590004Y-133766068D01*
X71573803Y-133758856D01*
X71573801Y-133758855D01*
X71438624Y-133730123D01*
X71388646Y-133719500D01*
X71199354Y-133719500D01*
X71166897Y-133726398D01*
X71014197Y-133758855D01*
X71014192Y-133758857D01*
X70841270Y-133835848D01*
X70841265Y-133835851D01*
X70688129Y-133947111D01*
X70561466Y-134087785D01*
X70466821Y-134251715D01*
X70466818Y-134251722D01*
X70413926Y-134414509D01*
X70408326Y-134431744D01*
X70388540Y-134620000D01*
X67653196Y-134620000D01*
X67357328Y-134480029D01*
X67295150Y-134450613D01*
X67242969Y-134404152D01*
X67224190Y-134336853D01*
X67244777Y-134270085D01*
X67295775Y-134226143D01*
X67349334Y-134201168D01*
X67535739Y-134070647D01*
X67696647Y-133909739D01*
X67827168Y-133723334D01*
X67923339Y-133517096D01*
X67982235Y-133297292D01*
X68002068Y-133070600D01*
X68000116Y-133048293D01*
X67987820Y-132907744D01*
X67982235Y-132843908D01*
X67923339Y-132624104D01*
X67848720Y-132464084D01*
X67838228Y-132395006D01*
X67866748Y-132331222D01*
X67873414Y-132324005D01*
X67874149Y-132323269D01*
X67885891Y-132311527D01*
X67900678Y-132298897D01*
X67916967Y-132287063D01*
X67916969Y-132287059D01*
X67916971Y-132287059D01*
X67928845Y-132272703D01*
X67946776Y-132251028D01*
X67950689Y-132246728D01*
X68185874Y-132011543D01*
X68247195Y-131978060D01*
X68316887Y-131983044D01*
X68372820Y-132024916D01*
X68391484Y-132060908D01*
X68434818Y-132194277D01*
X68434821Y-132194283D01*
X68434821Y-132194284D01*
X68529467Y-132358216D01*
X68635470Y-132475944D01*
X68656129Y-132498888D01*
X68809265Y-132610148D01*
X68809270Y-132610151D01*
X68982192Y-132687142D01*
X68982197Y-132687144D01*
X69167354Y-132726500D01*
X69167355Y-132726500D01*
X69356644Y-132726500D01*
X69356646Y-132726500D01*
X69541803Y-132687144D01*
X69714730Y-132610151D01*
X69867871Y-132498888D01*
X69994533Y-132358216D01*
X70089179Y-132194284D01*
X70089180Y-132194280D01*
X70091824Y-132188344D01*
X70092051Y-132188445D01*
X70094765Y-132182133D01*
X70094564Y-132182042D01*
X70284532Y-131764181D01*
X70330196Y-131711299D01*
X70397202Y-131691500D01*
X71178849Y-131691500D01*
X71245888Y-131711185D01*
X71291643Y-131763989D01*
X71301587Y-131833147D01*
X71291233Y-131867898D01*
X71290970Y-131868465D01*
X71290096Y-131870339D01*
X71290094Y-131870344D01*
X71228938Y-132098586D01*
X71228936Y-132098596D01*
X71208341Y-132333999D01*
X71208341Y-132334000D01*
X71228936Y-132569403D01*
X71228938Y-132569413D01*
X71290094Y-132797655D01*
X71290096Y-132797659D01*
X71290097Y-132797663D01*
X71384116Y-132999287D01*
X71389965Y-133011830D01*
X71389967Y-133011834D01*
X71484403Y-133146701D01*
X71525505Y-133205401D01*
X71692599Y-133372495D01*
X71707559Y-133382970D01*
X71886165Y-133508032D01*
X71886167Y-133508033D01*
X71886170Y-133508035D01*
X72100337Y-133607903D01*
X72328592Y-133669063D01*
X72516918Y-133685539D01*
X72563999Y-133689659D01*
X72564000Y-133689659D01*
X72564001Y-133689659D01*
X72603234Y-133686226D01*
X72799408Y-133669063D01*
X73027663Y-133607903D01*
X73241830Y-133508035D01*
X73435401Y-133372495D01*
X73602495Y-133205401D01*
X73738035Y-133011830D01*
X73837903Y-132797663D01*
X73899063Y-132569408D01*
X73919659Y-132334000D01*
X73899063Y-132098592D01*
X73837903Y-131870337D01*
X73805384Y-131800600D01*
X73801578Y-131792438D01*
X73791086Y-131723360D01*
X73819606Y-131659576D01*
X73868319Y-131624738D01*
X73884703Y-131618253D01*
X73922542Y-131590759D01*
X73927391Y-131587574D01*
X73967656Y-131563763D01*
X73981897Y-131549520D01*
X73996678Y-131536897D01*
X74012967Y-131525063D01*
X74012969Y-131525059D01*
X74012971Y-131525059D01*
X74024845Y-131510703D01*
X74042776Y-131489028D01*
X74046689Y-131484728D01*
X75073599Y-130457819D01*
X75134923Y-130424334D01*
X75161281Y-130421500D01*
X77224538Y-130421500D01*
X77268069Y-130429392D01*
X77281208Y-130434319D01*
X77810897Y-130632916D01*
X77849943Y-130645607D01*
X77856001Y-130647933D01*
X77872193Y-130655143D01*
X77872197Y-130655144D01*
X78057354Y-130694500D01*
X78057355Y-130694500D01*
X78246644Y-130694500D01*
X78246646Y-130694500D01*
X78431803Y-130655144D01*
X78604730Y-130578151D01*
X78757871Y-130466888D01*
X78797079Y-130423343D01*
X78856562Y-130386696D01*
X78926419Y-130388025D01*
X78984468Y-130426911D01*
X79001609Y-130453911D01*
X79009964Y-130471829D01*
X79009965Y-130471831D01*
X79145501Y-130665395D01*
X79145506Y-130665402D01*
X79312597Y-130832493D01*
X79312603Y-130832498D01*
X79498158Y-130962425D01*
X79541783Y-131017002D01*
X79548977Y-131086500D01*
X79517454Y-131148855D01*
X79498158Y-131165575D01*
X79312597Y-131295505D01*
X79145505Y-131462597D01*
X79009965Y-131656169D01*
X79009964Y-131656171D01*
X78937655Y-131811239D01*
X78911233Y-131867902D01*
X78910098Y-131870335D01*
X78910094Y-131870344D01*
X78848938Y-132098586D01*
X78848936Y-132098596D01*
X78828341Y-132333999D01*
X78828341Y-132334000D01*
X78848936Y-132569403D01*
X78848938Y-132569413D01*
X78910094Y-132797655D01*
X78910096Y-132797659D01*
X78910097Y-132797663D01*
X79004116Y-132999287D01*
X79009965Y-133011830D01*
X79009967Y-133011834D01*
X79104403Y-133146701D01*
X79145505Y-133205401D01*
X79312599Y-133372495D01*
X79327559Y-133382970D01*
X79506165Y-133508032D01*
X79506167Y-133508033D01*
X79506170Y-133508035D01*
X79720337Y-133607903D01*
X79948592Y-133669063D01*
X80136918Y-133685539D01*
X80183999Y-133689659D01*
X80184000Y-133689659D01*
X80184001Y-133689659D01*
X80223234Y-133686226D01*
X80419408Y-133669063D01*
X80647663Y-133607903D01*
X80861830Y-133508035D01*
X81055401Y-133372495D01*
X81222495Y-133205401D01*
X81358035Y-133011830D01*
X81457903Y-132797663D01*
X81519063Y-132569408D01*
X81539659Y-132334000D01*
X81519063Y-132098592D01*
X81457903Y-131870337D01*
X81358035Y-131656171D01*
X81293331Y-131563763D01*
X81222494Y-131462597D01*
X81055402Y-131295506D01*
X81055396Y-131295501D01*
X80869842Y-131165575D01*
X80826217Y-131110998D01*
X80819023Y-131041500D01*
X80850546Y-130979145D01*
X80869842Y-130962425D01*
X80892026Y-130946891D01*
X81055401Y-130832495D01*
X81222495Y-130665401D01*
X81358035Y-130471830D01*
X81457903Y-130257663D01*
X81519063Y-130029408D01*
X81539659Y-129794000D01*
X81519063Y-129558592D01*
X81468253Y-129368964D01*
X81457905Y-129330344D01*
X81457904Y-129330343D01*
X81457903Y-129330337D01*
X81358035Y-129116171D01*
X81342519Y-129094011D01*
X81222494Y-128922597D01*
X81055402Y-128755506D01*
X81055396Y-128755501D01*
X80869842Y-128625575D01*
X80826217Y-128570998D01*
X80819023Y-128501500D01*
X80850546Y-128439145D01*
X80869842Y-128422425D01*
X80892026Y-128406891D01*
X81055401Y-128292495D01*
X81222495Y-128125401D01*
X81358035Y-127931830D01*
X81457903Y-127717663D01*
X81519063Y-127489408D01*
X81539659Y-127254000D01*
X81519063Y-127018592D01*
X81457903Y-126790337D01*
X81358035Y-126576171D01*
X81227651Y-126389963D01*
X81222496Y-126382600D01*
X81165124Y-126325228D01*
X81100179Y-126260283D01*
X81066696Y-126198963D01*
X81071680Y-126129271D01*
X81113551Y-126073337D01*
X81144529Y-126056422D01*
X81276086Y-126007354D01*
X81276093Y-126007350D01*
X81391187Y-125921190D01*
X81391190Y-125921187D01*
X81477350Y-125806093D01*
X81477354Y-125806086D01*
X81527596Y-125671379D01*
X81527598Y-125671372D01*
X81533999Y-125611844D01*
X81534000Y-125611827D01*
X81534000Y-124964000D01*
X80797347Y-124964000D01*
X80730308Y-124944315D01*
X80684553Y-124891511D01*
X80674609Y-124822353D01*
X80678369Y-124805067D01*
X80684000Y-124785888D01*
X80684000Y-124642111D01*
X80678369Y-124622933D01*
X80678370Y-124553064D01*
X80716145Y-124494286D01*
X80779701Y-124465262D01*
X80797347Y-124464000D01*
X81534000Y-124464000D01*
X81534000Y-123816172D01*
X81533999Y-123816155D01*
X81527598Y-123756627D01*
X81527596Y-123756620D01*
X81477354Y-123621913D01*
X81477350Y-123621906D01*
X81391190Y-123506812D01*
X81391187Y-123506809D01*
X81276093Y-123420649D01*
X81276086Y-123420645D01*
X81141379Y-123370403D01*
X81141372Y-123370401D01*
X81081844Y-123364000D01*
X80434000Y-123364000D01*
X80433999Y-124101698D01*
X80414314Y-124168738D01*
X80361510Y-124214492D01*
X80292353Y-124224436D01*
X80219764Y-124214000D01*
X80219763Y-124214000D01*
X80148237Y-124214000D01*
X80148233Y-124214000D01*
X80075645Y-124224436D01*
X80006487Y-124214492D01*
X79953684Y-124168736D01*
X79934000Y-124101698D01*
X79934000Y-123364000D01*
X79286155Y-123364000D01*
X79226627Y-123370401D01*
X79226620Y-123370403D01*
X79091913Y-123420645D01*
X79091906Y-123420649D01*
X78976812Y-123506809D01*
X78976809Y-123506812D01*
X78890649Y-123621906D01*
X78890645Y-123621913D01*
X78840403Y-123756620D01*
X78840401Y-123756627D01*
X78834000Y-123816155D01*
X78834000Y-124464000D01*
X79570653Y-124464000D01*
X79637692Y-124483685D01*
X79683447Y-124536489D01*
X79693391Y-124605647D01*
X79689631Y-124622933D01*
X79684000Y-124642111D01*
X79684000Y-124785888D01*
X79689631Y-124805067D01*
X79689630Y-124874936D01*
X79651855Y-124933714D01*
X79588299Y-124962738D01*
X79570653Y-124964000D01*
X78834000Y-124964000D01*
X78834000Y-125611844D01*
X78840401Y-125671372D01*
X78840403Y-125671379D01*
X78863442Y-125733150D01*
X78868426Y-125802842D01*
X78834941Y-125864165D01*
X78773618Y-125897649D01*
X78703926Y-125892665D01*
X78696826Y-125889763D01*
X78685807Y-125884857D01*
X78685802Y-125884855D01*
X78540001Y-125853865D01*
X78500646Y-125845500D01*
X78311354Y-125845500D01*
X78278897Y-125852398D01*
X78126197Y-125884855D01*
X78126192Y-125884857D01*
X77953270Y-125961848D01*
X77953265Y-125961851D01*
X77800129Y-126073111D01*
X77673466Y-126213785D01*
X77578821Y-126377715D01*
X77576176Y-126383656D01*
X77575951Y-126383555D01*
X77573235Y-126389872D01*
X77573433Y-126389963D01*
X77331673Y-126921745D01*
X77306472Y-126958107D01*
X76404400Y-127860181D01*
X76343077Y-127893666D01*
X76316719Y-127896500D01*
X73949151Y-127896500D01*
X73882112Y-127876815D01*
X73836357Y-127824011D01*
X73826413Y-127754853D01*
X73836766Y-127720101D01*
X73837903Y-127717663D01*
X73899063Y-127489408D01*
X73919659Y-127254000D01*
X73899063Y-127018592D01*
X73837903Y-126790337D01*
X73738035Y-126576171D01*
X73607651Y-126389963D01*
X73602496Y-126382600D01*
X73545124Y-126325228D01*
X73480567Y-126260671D01*
X73447084Y-126199351D01*
X73452068Y-126129659D01*
X73493939Y-126073725D01*
X73524915Y-126056810D01*
X73656331Y-126007796D01*
X73771546Y-125921546D01*
X73857796Y-125806331D01*
X73908091Y-125671483D01*
X73914500Y-125611873D01*
X73914499Y-125227793D01*
X73928155Y-125171224D01*
X74712861Y-123640607D01*
X74735519Y-123609503D01*
X78428204Y-119916819D01*
X78489528Y-119883334D01*
X78515886Y-119880500D01*
X81671500Y-119880500D01*
X81738539Y-119900185D01*
X81784294Y-119952989D01*
X81795500Y-120004500D01*
X81795500Y-127698000D01*
X81794191Y-127715969D01*
X81790684Y-127739908D01*
X81795264Y-127792241D01*
X81795500Y-127797648D01*
X81795500Y-127805946D01*
X81799325Y-127838674D01*
X81806056Y-127915610D01*
X81807516Y-127922677D01*
X81807464Y-127922687D01*
X81809123Y-127930167D01*
X81809174Y-127930155D01*
X81810839Y-127937180D01*
X81810839Y-127937182D01*
X81810840Y-127937184D01*
X81819995Y-127962337D01*
X81837247Y-128009740D01*
X81861535Y-128083034D01*
X81864586Y-128089575D01*
X81864536Y-128089598D01*
X81867876Y-128096497D01*
X81867925Y-128096473D01*
X81871162Y-128102920D01*
X81871164Y-128102924D01*
X81885943Y-128125395D01*
X81913599Y-128167444D01*
X81954131Y-128233156D01*
X81958611Y-128238822D01*
X81958569Y-128238855D01*
X81963401Y-128244786D01*
X81963443Y-128244752D01*
X81968081Y-128250280D01*
X81968085Y-128250285D01*
X81996166Y-128276777D01*
X82024247Y-128303272D01*
X84299181Y-130578205D01*
X84332666Y-130639528D01*
X84335500Y-130665886D01*
X84335500Y-138561630D01*
X84333485Y-138583894D01*
X84332579Y-138588858D01*
X84301177Y-138651274D01*
X84241016Y-138686804D01*
X84232858Y-138688579D01*
X84227894Y-138689485D01*
X84205630Y-138691500D01*
X76010000Y-138691500D01*
X75992031Y-138690191D01*
X75968091Y-138686684D01*
X75928019Y-138690191D01*
X75915751Y-138691264D01*
X75910351Y-138691500D01*
X75902053Y-138691500D01*
X75869325Y-138695325D01*
X75792387Y-138702056D01*
X75785321Y-138703516D01*
X75785310Y-138703464D01*
X75777831Y-138705122D01*
X75777844Y-138705174D01*
X75770817Y-138706839D01*
X75698254Y-138733250D01*
X75624962Y-138757536D01*
X75618421Y-138760587D01*
X75618398Y-138760539D01*
X75611505Y-138763876D01*
X75611529Y-138763923D01*
X75605075Y-138767164D01*
X75540563Y-138809594D01*
X75474846Y-138850128D01*
X75469180Y-138854609D01*
X75469148Y-138854568D01*
X75463214Y-138859402D01*
X75463248Y-138859442D01*
X75457717Y-138864082D01*
X75404743Y-138920230D01*
X75404744Y-138920230D01*
X75014391Y-139310585D01*
X74907795Y-139417181D01*
X74846472Y-139450666D01*
X74820114Y-139453500D01*
X74394350Y-139453500D01*
X74349649Y-139445163D01*
X73674689Y-139184306D01*
X73619254Y-139141778D01*
X73595611Y-139076031D01*
X73611267Y-139007938D01*
X73650656Y-138969015D01*
X73649231Y-138967112D01*
X73729136Y-138907293D01*
X73771546Y-138875546D01*
X73857796Y-138760331D01*
X73908091Y-138625483D01*
X73914500Y-138565873D01*
X73914499Y-136770128D01*
X73908091Y-136710517D01*
X73857796Y-136575669D01*
X73857795Y-136575668D01*
X73857793Y-136575664D01*
X73771547Y-136460455D01*
X73771544Y-136460452D01*
X73656335Y-136374206D01*
X73656328Y-136374202D01*
X73521482Y-136323908D01*
X73521483Y-136323908D01*
X73461883Y-136317501D01*
X73461881Y-136317500D01*
X73461873Y-136317500D01*
X73461864Y-136317500D01*
X71666129Y-136317500D01*
X71666123Y-136317501D01*
X71606516Y-136323908D01*
X71471671Y-136374202D01*
X71471664Y-136374206D01*
X71356455Y-136460452D01*
X71356452Y-136460455D01*
X71270206Y-136575664D01*
X71270202Y-136575671D01*
X71219908Y-136710517D01*
X71216613Y-136741170D01*
X71213501Y-136770123D01*
X71213500Y-136770135D01*
X71213500Y-138565870D01*
X71213501Y-138565876D01*
X71219908Y-138625483D01*
X71270202Y-138760328D01*
X71270206Y-138760335D01*
X71356452Y-138875544D01*
X71356455Y-138875547D01*
X71471664Y-138961793D01*
X71471671Y-138961797D01*
X71603081Y-139010810D01*
X71659015Y-139052681D01*
X71683432Y-139118145D01*
X71668580Y-139186418D01*
X71647430Y-139214673D01*
X71525503Y-139336600D01*
X71389965Y-139530169D01*
X71389964Y-139530171D01*
X71290098Y-139744335D01*
X71290094Y-139744344D01*
X71228938Y-139972586D01*
X71228936Y-139972596D01*
X71208341Y-140207999D01*
X71208341Y-140208000D01*
X71228936Y-140443403D01*
X71228938Y-140443413D01*
X71290094Y-140671655D01*
X71290096Y-140671659D01*
X71290097Y-140671663D01*
X71351747Y-140803872D01*
X71389965Y-140885830D01*
X71389967Y-140885834D01*
X71498281Y-141040521D01*
X71525505Y-141079401D01*
X71692599Y-141246495D01*
X71789384Y-141314265D01*
X71886165Y-141382032D01*
X71886167Y-141382033D01*
X71886170Y-141382035D01*
X72100337Y-141481903D01*
X72328592Y-141543063D01*
X72516918Y-141559539D01*
X72563999Y-141563659D01*
X72564000Y-141563659D01*
X72564001Y-141563659D01*
X72603234Y-141560226D01*
X72799408Y-141543063D01*
X73027663Y-141481903D01*
X73052517Y-141470312D01*
X73077143Y-141461847D01*
X73078069Y-141461633D01*
X73082154Y-141460695D01*
X74349647Y-140970836D01*
X74394348Y-140962500D01*
X75120000Y-140962500D01*
X75137969Y-140963809D01*
X75143350Y-140964596D01*
X75161906Y-140967315D01*
X75214248Y-140962735D01*
X75219649Y-140962500D01*
X75227934Y-140962500D01*
X75227941Y-140962500D01*
X75260674Y-140958674D01*
X75337612Y-140951943D01*
X75337615Y-140951941D01*
X75344693Y-140950481D01*
X75344704Y-140950535D01*
X75352163Y-140948881D01*
X75352151Y-140948827D01*
X75359178Y-140947160D01*
X75359184Y-140947160D01*
X75413600Y-140927354D01*
X75431740Y-140920752D01*
X75505034Y-140896465D01*
X75511581Y-140893412D01*
X75511604Y-140893462D01*
X75518498Y-140890125D01*
X75518473Y-140890075D01*
X75524916Y-140886838D01*
X75524924Y-140886836D01*
X75567937Y-140858545D01*
X75589443Y-140844401D01*
X75619051Y-140826138D01*
X75655154Y-140803870D01*
X75655159Y-140803864D01*
X75660823Y-140799387D01*
X75660857Y-140799430D01*
X75666782Y-140794604D01*
X75666747Y-140794562D01*
X75672283Y-140789916D01*
X75672282Y-140789916D01*
X75672285Y-140789915D01*
X75725271Y-140733752D01*
X76222204Y-140236819D01*
X76283528Y-140203334D01*
X76309886Y-140200500D01*
X84205639Y-140200500D01*
X84227901Y-140202515D01*
X84455774Y-140244102D01*
X84864792Y-140318748D01*
X84995354Y-140346500D01*
X85023144Y-140346500D01*
X85028803Y-140346758D01*
X85032145Y-140347065D01*
X85117337Y-140346503D01*
X85117888Y-140346500D01*
X85184644Y-140346500D01*
X85184646Y-140346500D01*
X85369803Y-140307144D01*
X85542730Y-140230151D01*
X85695871Y-140118888D01*
X85822533Y-139978216D01*
X85917179Y-139814284D01*
X85975674Y-139634256D01*
X85995460Y-139446000D01*
X85985156Y-139347969D01*
X85984862Y-139343841D01*
X85984774Y-139341479D01*
X85984491Y-139339928D01*
X85983822Y-139335272D01*
X85975674Y-139257744D01*
X85962851Y-139218281D01*
X85960826Y-139210259D01*
X85846515Y-138583891D01*
X85844500Y-138561629D01*
X85844500Y-136906000D01*
X87711340Y-136906000D01*
X87731126Y-137094256D01*
X87731127Y-137094259D01*
X87789618Y-137274277D01*
X87789621Y-137274284D01*
X87884267Y-137438216D01*
X87979542Y-137544029D01*
X88010929Y-137578888D01*
X88164065Y-137690148D01*
X88164070Y-137690151D01*
X88336992Y-137767142D01*
X88336997Y-137767144D01*
X88522154Y-137806500D01*
X88522155Y-137806500D01*
X88711445Y-137806500D01*
X88711446Y-137806500D01*
X88896603Y-137767144D01*
X88901003Y-137765184D01*
X88918349Y-137758960D01*
X89487292Y-137601492D01*
X89520368Y-137597000D01*
X90981647Y-137597000D01*
X90985392Y-137597113D01*
X91046426Y-137600805D01*
X91046426Y-137600804D01*
X91046428Y-137600805D01*
X91106585Y-137589779D01*
X91110270Y-137589219D01*
X91170982Y-137581848D01*
X91180188Y-137578356D01*
X91201803Y-137572330D01*
X91211485Y-137570557D01*
X91267265Y-137545451D01*
X91270681Y-137544037D01*
X91327882Y-137522344D01*
X91335979Y-137516754D01*
X91355539Y-137505722D01*
X91364505Y-137501688D01*
X91412649Y-137463968D01*
X91415655Y-137461757D01*
X91465983Y-137427020D01*
X91506544Y-137381234D01*
X91509078Y-137378542D01*
X93571892Y-135315727D01*
X93598448Y-135295522D01*
X94003305Y-135066193D01*
X94115436Y-135002677D01*
X94137672Y-134989417D01*
X94144191Y-134986036D01*
X94174930Y-134972351D01*
X94328071Y-134861088D01*
X94454733Y-134720416D01*
X94549379Y-134556484D01*
X94607874Y-134376456D01*
X94627660Y-134188200D01*
X94607874Y-133999944D01*
X94549379Y-133819916D01*
X94454733Y-133655984D01*
X94451484Y-133650356D01*
X94452835Y-133649575D01*
X94432010Y-133591236D01*
X94447826Y-133523180D01*
X94497925Y-133474478D01*
X94505343Y-133470873D01*
X94555930Y-133448351D01*
X94709071Y-133337088D01*
X94835733Y-133196416D01*
X94930379Y-133032484D01*
X94988874Y-132852456D01*
X95008660Y-132664200D01*
X94988874Y-132475944D01*
X94930379Y-132295916D01*
X94835733Y-132131984D01*
X94709071Y-131991312D01*
X94697691Y-131983044D01*
X94555934Y-131880051D01*
X94555929Y-131880048D01*
X94383007Y-131803057D01*
X94383002Y-131803055D01*
X94237200Y-131772065D01*
X94197846Y-131763700D01*
X94008554Y-131763700D01*
X93969199Y-131772065D01*
X93823398Y-131803055D01*
X93823394Y-131803057D01*
X93818994Y-131805016D01*
X93801645Y-131811239D01*
X93553024Y-131880051D01*
X93232703Y-131968707D01*
X93199629Y-131973200D01*
X89687831Y-131973200D01*
X89620792Y-131953515D01*
X89583293Y-131915891D01*
X89554236Y-131870344D01*
X89519387Y-131815718D01*
X89514118Y-131807629D01*
X89514117Y-131807628D01*
X89514114Y-131807623D01*
X89511886Y-131804714D01*
X89507415Y-131798014D01*
X89469726Y-131732735D01*
X89450933Y-131700184D01*
X89324271Y-131559512D01*
X89324270Y-131559511D01*
X89171134Y-131448251D01*
X89171129Y-131448248D01*
X88998207Y-131371257D01*
X88998202Y-131371255D01*
X88852401Y-131340265D01*
X88813046Y-131331900D01*
X88623754Y-131331900D01*
X88591297Y-131338798D01*
X88438597Y-131371255D01*
X88438592Y-131371257D01*
X88265670Y-131448248D01*
X88265665Y-131448251D01*
X88112529Y-131559511D01*
X87985866Y-131700185D01*
X87891221Y-131864115D01*
X87891218Y-131864122D01*
X87832727Y-132044140D01*
X87832726Y-132044144D01*
X87812940Y-132232400D01*
X87832726Y-132420656D01*
X87832727Y-132420659D01*
X87891218Y-132600677D01*
X87891221Y-132600684D01*
X87985867Y-132764616D01*
X88097305Y-132888380D01*
X88112529Y-132905288D01*
X88265665Y-133016548D01*
X88265666Y-133016548D01*
X88265670Y-133016551D01*
X88400754Y-133076695D01*
X88420438Y-133086407D01*
X88420440Y-133086407D01*
X88420443Y-133086409D01*
X88425367Y-133088016D01*
X88431350Y-133090318D01*
X88438589Y-133093541D01*
X88438594Y-133093543D01*
X88438595Y-133093543D01*
X88438597Y-133093544D01*
X88445994Y-133095115D01*
X88452335Y-133096819D01*
X88644009Y-133159393D01*
X88682221Y-133181285D01*
X88682446Y-133180960D01*
X88686318Y-133183633D01*
X88687753Y-133184455D01*
X88688613Y-133185217D01*
X88738955Y-133219967D01*
X88741955Y-133222174D01*
X88790094Y-133259888D01*
X88799065Y-133263925D01*
X88818620Y-133274954D01*
X88826718Y-133280544D01*
X88883895Y-133302228D01*
X88887349Y-133303659D01*
X88943115Y-133328757D01*
X88952796Y-133330531D01*
X88974418Y-133336559D01*
X88983616Y-133340047D01*
X88983617Y-133340048D01*
X88992880Y-133341172D01*
X89044335Y-133347420D01*
X89048006Y-133347979D01*
X89108171Y-133359005D01*
X89165243Y-133355552D01*
X89169207Y-133355313D01*
X89172952Y-133355200D01*
X92981986Y-133355200D01*
X93049025Y-133374885D01*
X93094780Y-133427689D01*
X93104724Y-133496847D01*
X93075699Y-133560403D01*
X93074136Y-133562172D01*
X92989667Y-133655983D01*
X92916549Y-133782627D01*
X92911905Y-133789550D01*
X92907728Y-133794952D01*
X92614875Y-134311949D01*
X92594663Y-134338514D01*
X90754497Y-136178681D01*
X90693174Y-136212166D01*
X90666816Y-136215000D01*
X89520373Y-136215000D01*
X89487297Y-136210507D01*
X88918353Y-136053038D01*
X88901001Y-136046814D01*
X88896603Y-136044856D01*
X88896600Y-136044855D01*
X88779902Y-136020050D01*
X88711446Y-136005500D01*
X88522154Y-136005500D01*
X88489697Y-136012398D01*
X88336997Y-136044855D01*
X88336992Y-136044857D01*
X88164070Y-136121848D01*
X88164065Y-136121851D01*
X88010929Y-136233111D01*
X87884266Y-136373785D01*
X87789621Y-136537715D01*
X87789618Y-136537722D01*
X87733474Y-136710517D01*
X87731126Y-136717744D01*
X87711340Y-136906000D01*
X85844500Y-136906000D01*
X85844500Y-130365992D01*
X85845809Y-130348022D01*
X85848569Y-130329176D01*
X85849314Y-130324093D01*
X85844735Y-130271763D01*
X85844500Y-130266361D01*
X85844500Y-130258066D01*
X85844500Y-130258059D01*
X85840670Y-130225292D01*
X85833942Y-130148388D01*
X85833940Y-130148383D01*
X85832482Y-130141318D01*
X85832535Y-130141306D01*
X85830878Y-130133830D01*
X85830825Y-130133843D01*
X85829161Y-130126824D01*
X85829160Y-130126816D01*
X85802747Y-130054246D01*
X85778464Y-129980964D01*
X85778460Y-129980957D01*
X85775410Y-129974416D01*
X85775460Y-129974392D01*
X85772128Y-129967509D01*
X85772079Y-129967534D01*
X85768835Y-129961075D01*
X85726400Y-129896555D01*
X85685872Y-129830849D01*
X85681392Y-129825183D01*
X85681434Y-129825149D01*
X85676597Y-129819211D01*
X85676556Y-129819246D01*
X85671912Y-129813711D01*
X85615752Y-129760728D01*
X83713205Y-127858181D01*
X83679720Y-127796858D01*
X83684704Y-127727166D01*
X83726576Y-127671233D01*
X83792040Y-127646816D01*
X83800886Y-127646500D01*
X83834644Y-127646500D01*
X83834646Y-127646500D01*
X84019803Y-127607144D01*
X84047148Y-127594968D01*
X84071016Y-127587127D01*
X84081101Y-127584916D01*
X84093152Y-127580398D01*
X84623930Y-127381393D01*
X84667462Y-127373500D01*
X93055033Y-127373500D01*
X93070681Y-127375227D01*
X93070708Y-127374946D01*
X93078475Y-127375680D01*
X93078476Y-127375679D01*
X93078477Y-127375680D01*
X93147860Y-127373500D01*
X93177476Y-127373500D01*
X93184378Y-127372627D01*
X93190190Y-127372169D01*
X93236943Y-127370701D01*
X93256272Y-127365084D01*
X93275328Y-127361137D01*
X93295293Y-127358616D01*
X93338770Y-127341401D01*
X93344276Y-127339516D01*
X93389191Y-127326468D01*
X93406515Y-127316221D01*
X93423983Y-127307663D01*
X93442703Y-127300253D01*
X93480542Y-127272759D01*
X93485391Y-127269574D01*
X93525656Y-127245763D01*
X93539897Y-127231520D01*
X93554678Y-127218897D01*
X93570967Y-127207063D01*
X93570969Y-127207059D01*
X93570971Y-127207059D01*
X93582845Y-127192703D01*
X93600776Y-127171028D01*
X93604689Y-127166728D01*
X94725670Y-126045747D01*
X94763594Y-126019851D01*
X96377564Y-125312916D01*
X96427314Y-125302499D01*
X96829871Y-125302499D01*
X96829872Y-125302499D01*
X96889483Y-125296091D01*
X97024331Y-125245796D01*
X97139546Y-125159546D01*
X97225796Y-125044331D01*
X97276091Y-124909483D01*
X97282500Y-124849873D01*
X97282499Y-123054128D01*
X97276091Y-122994517D01*
X97246019Y-122913891D01*
X97225797Y-122859671D01*
X97225793Y-122859664D01*
X97139547Y-122744455D01*
X97139544Y-122744452D01*
X97024335Y-122658206D01*
X97024328Y-122658202D01*
X96889482Y-122607908D01*
X96889483Y-122607908D01*
X96829883Y-122601501D01*
X96829881Y-122601500D01*
X96829873Y-122601500D01*
X96829864Y-122601500D01*
X95034129Y-122601500D01*
X95034123Y-122601501D01*
X94974516Y-122607908D01*
X94839671Y-122658202D01*
X94839664Y-122658206D01*
X94724455Y-122744452D01*
X94724452Y-122744455D01*
X94638206Y-122859664D01*
X94638201Y-122859674D01*
X94622951Y-122900560D01*
X94581079Y-122956493D01*
X94515614Y-122980909D01*
X94447342Y-122966056D01*
X94397937Y-122916650D01*
X94394939Y-122910796D01*
X94113113Y-122322259D01*
X94031661Y-122152163D01*
X94019500Y-122098608D01*
X94019500Y-121494964D01*
X94021228Y-121479314D01*
X94020946Y-121479288D01*
X94021680Y-121471525D01*
X94019500Y-121402154D01*
X94019500Y-121372528D01*
X94019500Y-121372524D01*
X94018627Y-121365614D01*
X94018168Y-121359785D01*
X94016700Y-121313057D01*
X94011082Y-121293720D01*
X94007138Y-121274674D01*
X94004616Y-121254707D01*
X93987402Y-121211231D01*
X93985513Y-121205710D01*
X93972468Y-121160808D01*
X93962225Y-121143489D01*
X93953662Y-121126011D01*
X93946253Y-121107297D01*
X93946253Y-121107296D01*
X93918771Y-121069472D01*
X93915567Y-121064596D01*
X93891763Y-121024344D01*
X93891761Y-121024342D01*
X93891759Y-121024339D01*
X93877531Y-121010112D01*
X93864896Y-120995320D01*
X93853063Y-120979033D01*
X93853060Y-120979031D01*
X93853060Y-120979030D01*
X93853059Y-120979029D01*
X93817035Y-120949228D01*
X93812713Y-120945294D01*
X90173526Y-117306107D01*
X90148325Y-117269745D01*
X89908398Y-116741992D01*
X89907492Y-116740213D01*
X89903926Y-116731603D01*
X89903821Y-116731651D01*
X89901179Y-116725716D01*
X89901178Y-116725715D01*
X89892853Y-116711295D01*
X89891333Y-116708494D01*
X89887990Y-116701932D01*
X89887988Y-116701929D01*
X89887039Y-116700432D01*
X89883757Y-116695540D01*
X89844872Y-116628189D01*
X89806533Y-116561784D01*
X89679871Y-116421112D01*
X89679351Y-116420734D01*
X89526734Y-116309851D01*
X89526729Y-116309848D01*
X89353807Y-116232857D01*
X89353802Y-116232855D01*
X89187356Y-116197477D01*
X89168646Y-116193500D01*
X88979354Y-116193500D01*
X88960644Y-116197477D01*
X88794197Y-116232855D01*
X88794192Y-116232857D01*
X88621270Y-116309848D01*
X88621265Y-116309851D01*
X88468129Y-116421111D01*
X88341466Y-116561785D01*
X88246821Y-116725715D01*
X88246818Y-116725722D01*
X88188327Y-116905740D01*
X88188326Y-116905744D01*
X88168540Y-117094000D01*
X88188326Y-117282256D01*
X88188327Y-117282259D01*
X88246818Y-117462277D01*
X88246821Y-117462284D01*
X88341467Y-117626216D01*
X88468128Y-117766888D01*
X88468129Y-117766888D01*
X88621268Y-117878150D01*
X88621272Y-117878152D01*
X88685738Y-117906854D01*
X88702166Y-117915705D01*
X88721007Y-117927767D01*
X88721992Y-117928398D01*
X89249745Y-118168325D01*
X89286107Y-118193526D01*
X92728181Y-121635600D01*
X92761666Y-121696923D01*
X92764500Y-121723281D01*
X92764500Y-122098607D01*
X92752339Y-122152162D01*
X92554583Y-122565135D01*
X92280600Y-123137292D01*
X92229958Y-123243047D01*
X92183250Y-123295010D01*
X92115863Y-123313471D01*
X92049193Y-123292571D01*
X92016544Y-123260615D01*
X91890494Y-123080597D01*
X91723402Y-122913506D01*
X91723395Y-122913501D01*
X91719253Y-122910601D01*
X91684521Y-122886281D01*
X91529834Y-122777967D01*
X91529830Y-122777965D01*
X91529830Y-122777964D01*
X91315663Y-122678097D01*
X91315659Y-122678096D01*
X91315655Y-122678094D01*
X91087413Y-122616938D01*
X91087403Y-122616936D01*
X90852001Y-122596341D01*
X90851999Y-122596341D01*
X90616596Y-122616936D01*
X90616586Y-122616938D01*
X90388344Y-122678094D01*
X90388335Y-122678098D01*
X90174171Y-122777964D01*
X90174169Y-122777965D01*
X89980597Y-122913505D01*
X89813508Y-123080594D01*
X89683269Y-123266595D01*
X89628692Y-123310219D01*
X89559193Y-123317412D01*
X89496839Y-123285890D01*
X89480119Y-123266594D01*
X89350113Y-123080926D01*
X89350108Y-123080920D01*
X89183082Y-122913894D01*
X88989578Y-122778399D01*
X88775492Y-122678570D01*
X88775486Y-122678567D01*
X88562000Y-122621364D01*
X88562000Y-123339698D01*
X88542315Y-123406737D01*
X88489511Y-123452492D01*
X88420355Y-123462436D01*
X88347766Y-123452000D01*
X88347763Y-123452000D01*
X88276237Y-123452000D01*
X88276233Y-123452000D01*
X88203644Y-123462436D01*
X88134486Y-123452492D01*
X88081683Y-123406736D01*
X88061999Y-123339698D01*
X88061999Y-122621364D01*
X87848513Y-122678567D01*
X87848507Y-122678570D01*
X87634422Y-122778399D01*
X87634420Y-122778400D01*
X87440926Y-122913886D01*
X87440920Y-122913891D01*
X87273891Y-123080920D01*
X87273890Y-123080922D01*
X87143880Y-123266595D01*
X87089303Y-123310219D01*
X87019804Y-123317412D01*
X86957450Y-123285890D01*
X86940730Y-123266594D01*
X86810494Y-123080597D01*
X86643402Y-122913506D01*
X86643395Y-122913501D01*
X86639253Y-122910601D01*
X86604521Y-122886281D01*
X86449834Y-122777967D01*
X86449830Y-122777965D01*
X86449830Y-122777964D01*
X86235663Y-122678097D01*
X86235659Y-122678096D01*
X86235655Y-122678094D01*
X86007413Y-122616938D01*
X86007403Y-122616936D01*
X85772001Y-122596341D01*
X85771999Y-122596341D01*
X85536596Y-122616936D01*
X85536586Y-122616938D01*
X85308344Y-122678094D01*
X85308335Y-122678098D01*
X85094171Y-122777964D01*
X85094169Y-122777965D01*
X84900597Y-122913505D01*
X84733505Y-123080597D01*
X84597965Y-123274169D01*
X84597964Y-123274171D01*
X84498098Y-123488335D01*
X84498094Y-123488344D01*
X84436938Y-123716586D01*
X84436936Y-123716596D01*
X84416341Y-123951999D01*
X84416341Y-123952000D01*
X84436936Y-124187403D01*
X84436938Y-124187413D01*
X84498094Y-124415655D01*
X84498096Y-124415659D01*
X84498097Y-124415663D01*
X84577801Y-124586588D01*
X84597965Y-124629830D01*
X84597967Y-124629834D01*
X84706281Y-124784521D01*
X84733505Y-124823401D01*
X84900599Y-124990495D01*
X84978152Y-125044798D01*
X85094165Y-125126032D01*
X85094167Y-125126033D01*
X85094170Y-125126035D01*
X85308337Y-125225903D01*
X85536592Y-125287063D01*
X85724918Y-125303539D01*
X85771999Y-125307659D01*
X85772000Y-125307659D01*
X85772001Y-125307659D01*
X85811234Y-125304226D01*
X86007408Y-125287063D01*
X86235663Y-125225903D01*
X86449830Y-125126035D01*
X86643401Y-124990495D01*
X86810495Y-124823401D01*
X86940730Y-124637405D01*
X86995307Y-124593781D01*
X87064805Y-124586587D01*
X87127160Y-124618110D01*
X87143879Y-124637405D01*
X87273890Y-124823078D01*
X87440917Y-124990105D01*
X87634421Y-125125600D01*
X87848507Y-125225429D01*
X87848516Y-125225433D01*
X88061999Y-125282633D01*
X88061999Y-124564301D01*
X88081683Y-124497262D01*
X88134487Y-124451507D01*
X88203646Y-124441563D01*
X88210380Y-124442531D01*
X88276237Y-124452000D01*
X88276238Y-124452000D01*
X88347762Y-124452000D01*
X88347763Y-124452000D01*
X88420353Y-124441563D01*
X88489512Y-124451507D01*
X88542315Y-124497262D01*
X88562000Y-124564301D01*
X88562000Y-125282633D01*
X88775483Y-125225433D01*
X88775492Y-125225429D01*
X88989578Y-125125600D01*
X89183082Y-124990105D01*
X89350105Y-124823082D01*
X89480119Y-124637405D01*
X89534696Y-124593781D01*
X89604195Y-124586588D01*
X89666549Y-124618110D01*
X89683269Y-124637405D01*
X89813505Y-124823401D01*
X89980599Y-124990495D01*
X90058152Y-125044798D01*
X90174165Y-125126032D01*
X90174167Y-125126033D01*
X90174170Y-125126035D01*
X90388337Y-125225903D01*
X90616592Y-125287063D01*
X90804918Y-125303539D01*
X90851999Y-125307659D01*
X90852000Y-125307659D01*
X90852001Y-125307659D01*
X90891234Y-125304226D01*
X91087408Y-125287063D01*
X91315663Y-125225903D01*
X91529830Y-125126035D01*
X91723401Y-124990495D01*
X91890495Y-124823401D01*
X92020424Y-124637842D01*
X92075002Y-124594217D01*
X92144500Y-124587023D01*
X92206855Y-124618546D01*
X92223575Y-124637842D01*
X92353500Y-124823395D01*
X92353505Y-124823401D01*
X92520599Y-124990495D01*
X92598152Y-125044798D01*
X92714165Y-125126032D01*
X92714167Y-125126033D01*
X92714170Y-125126035D01*
X92928337Y-125225903D01*
X93156592Y-125287063D01*
X93354705Y-125304396D01*
X93397394Y-125308131D01*
X93397238Y-125309913D01*
X93456598Y-125327344D01*
X93502353Y-125380148D01*
X93512297Y-125449306D01*
X93483272Y-125512862D01*
X93477240Y-125519340D01*
X92914400Y-126082181D01*
X92853077Y-126115666D01*
X92826719Y-126118500D01*
X84667467Y-126118500D01*
X84623935Y-126110608D01*
X84349720Y-126007797D01*
X84081099Y-125907083D01*
X84050375Y-125897096D01*
X84042057Y-125894392D01*
X84036004Y-125892068D01*
X84019803Y-125884856D01*
X84019801Y-125884855D01*
X83884624Y-125856123D01*
X83834646Y-125845500D01*
X83645354Y-125845500D01*
X83645353Y-125845500D01*
X83454280Y-125886113D01*
X83384613Y-125880797D01*
X83328880Y-125838660D01*
X83304775Y-125773080D01*
X83304500Y-125764823D01*
X83304500Y-119149746D01*
X83304605Y-119146140D01*
X83307200Y-119101584D01*
X83308351Y-119081831D01*
X83306384Y-119070674D01*
X83304500Y-119049143D01*
X83304500Y-103632000D01*
X84411341Y-103632000D01*
X84431936Y-103867403D01*
X84431938Y-103867413D01*
X84493094Y-104095655D01*
X84493096Y-104095659D01*
X84493097Y-104095663D01*
X84497000Y-104104032D01*
X84592965Y-104309830D01*
X84592967Y-104309834D01*
X84701281Y-104464521D01*
X84728505Y-104503401D01*
X84895599Y-104670495D01*
X84992384Y-104738265D01*
X85089165Y-104806032D01*
X85089167Y-104806033D01*
X85089170Y-104806035D01*
X85303337Y-104905903D01*
X85531592Y-104967063D01*
X85708034Y-104982500D01*
X85766999Y-104987659D01*
X85767000Y-104987659D01*
X85767001Y-104987659D01*
X85825966Y-104982500D01*
X86002408Y-104967063D01*
X86230663Y-104905903D01*
X86444830Y-104806035D01*
X86638401Y-104670495D01*
X86805495Y-104503401D01*
X86935424Y-104317842D01*
X86990002Y-104274217D01*
X87059500Y-104267023D01*
X87121855Y-104298546D01*
X87138575Y-104317842D01*
X87268500Y-104503395D01*
X87268505Y-104503401D01*
X87435599Y-104670495D01*
X87532384Y-104738264D01*
X87629165Y-104806032D01*
X87629167Y-104806033D01*
X87629170Y-104806035D01*
X87843337Y-104905903D01*
X88071592Y-104967063D01*
X88248034Y-104982500D01*
X88306999Y-104987659D01*
X88307000Y-104987659D01*
X88307001Y-104987659D01*
X88365966Y-104982500D01*
X88542408Y-104967063D01*
X88770663Y-104905903D01*
X88984830Y-104806035D01*
X89178401Y-104670495D01*
X89345495Y-104503401D01*
X89475424Y-104317842D01*
X89530002Y-104274217D01*
X89599500Y-104267023D01*
X89661855Y-104298546D01*
X89678575Y-104317842D01*
X89808500Y-104503395D01*
X89808505Y-104503401D01*
X89975599Y-104670495D01*
X90072384Y-104738264D01*
X90169165Y-104806032D01*
X90169167Y-104806033D01*
X90169170Y-104806035D01*
X90383337Y-104905903D01*
X90611592Y-104967063D01*
X90788034Y-104982500D01*
X90846999Y-104987659D01*
X90847000Y-104987659D01*
X90847001Y-104987659D01*
X90905966Y-104982500D01*
X91082408Y-104967063D01*
X91310663Y-104905903D01*
X91524830Y-104806035D01*
X91718401Y-104670495D01*
X91885495Y-104503401D01*
X92015424Y-104317842D01*
X92070002Y-104274217D01*
X92139500Y-104267023D01*
X92201855Y-104298546D01*
X92218575Y-104317842D01*
X92348500Y-104503395D01*
X92348505Y-104503401D01*
X92515599Y-104670495D01*
X92612384Y-104738264D01*
X92709165Y-104806032D01*
X92709167Y-104806033D01*
X92709170Y-104806035D01*
X92923337Y-104905903D01*
X93151592Y-104967063D01*
X93328034Y-104982500D01*
X93386999Y-104987659D01*
X93387000Y-104987659D01*
X93387001Y-104987659D01*
X93445966Y-104982500D01*
X93622408Y-104967063D01*
X93850663Y-104905903D01*
X94064830Y-104806035D01*
X94258401Y-104670495D01*
X94380329Y-104548566D01*
X94441648Y-104515084D01*
X94511340Y-104520068D01*
X94567274Y-104561939D01*
X94584189Y-104592917D01*
X94633202Y-104724328D01*
X94633206Y-104724335D01*
X94719452Y-104839544D01*
X94719455Y-104839547D01*
X94834664Y-104925793D01*
X94834671Y-104925797D01*
X94969517Y-104976091D01*
X94969516Y-104976091D01*
X94976444Y-104976835D01*
X95029127Y-104982500D01*
X96824872Y-104982499D01*
X96884483Y-104976091D01*
X97019331Y-104925796D01*
X97134546Y-104839546D01*
X97220796Y-104724331D01*
X97271091Y-104589483D01*
X97277500Y-104529873D01*
X97277499Y-102734128D01*
X97271091Y-102674517D01*
X97269810Y-102671083D01*
X97220797Y-102539671D01*
X97220793Y-102539664D01*
X97134547Y-102424455D01*
X97134544Y-102424452D01*
X97019335Y-102338206D01*
X97019328Y-102338202D01*
X96884482Y-102287908D01*
X96884483Y-102287908D01*
X96824883Y-102281501D01*
X96824881Y-102281500D01*
X96824873Y-102281500D01*
X96824864Y-102281500D01*
X95029129Y-102281500D01*
X95029123Y-102281501D01*
X94969516Y-102287908D01*
X94834671Y-102338202D01*
X94834664Y-102338206D01*
X94719455Y-102424452D01*
X94719452Y-102424455D01*
X94633206Y-102539664D01*
X94633203Y-102539669D01*
X94584189Y-102671083D01*
X94542317Y-102727016D01*
X94476853Y-102751433D01*
X94408580Y-102736581D01*
X94380326Y-102715430D01*
X94258402Y-102593506D01*
X94258395Y-102593501D01*
X94064834Y-102457967D01*
X94064830Y-102457965D01*
X94064830Y-102457964D01*
X93850663Y-102358097D01*
X93850659Y-102358096D01*
X93850655Y-102358094D01*
X93622413Y-102296938D01*
X93622403Y-102296936D01*
X93387001Y-102276341D01*
X93386999Y-102276341D01*
X93151596Y-102296936D01*
X93151586Y-102296938D01*
X92923344Y-102358094D01*
X92923335Y-102358098D01*
X92709171Y-102457964D01*
X92709169Y-102457965D01*
X92515597Y-102593505D01*
X92348508Y-102760594D01*
X92218574Y-102946159D01*
X92163997Y-102989784D01*
X92094498Y-102996976D01*
X92032144Y-102965454D01*
X92015424Y-102946158D01*
X91994720Y-102916590D01*
X91962097Y-102869999D01*
X91885494Y-102760597D01*
X91718402Y-102593506D01*
X91718395Y-102593501D01*
X91524834Y-102457967D01*
X91524830Y-102457965D01*
X91524828Y-102457964D01*
X91310663Y-102358097D01*
X91310659Y-102358096D01*
X91310655Y-102358094D01*
X91082413Y-102296938D01*
X91082403Y-102296936D01*
X90847001Y-102276341D01*
X90846999Y-102276341D01*
X90611596Y-102296936D01*
X90611586Y-102296938D01*
X90383344Y-102358094D01*
X90383335Y-102358098D01*
X90169171Y-102457964D01*
X90169169Y-102457965D01*
X89975597Y-102593505D01*
X89808505Y-102760597D01*
X89678575Y-102946158D01*
X89623998Y-102989783D01*
X89554500Y-102996977D01*
X89492145Y-102965454D01*
X89475425Y-102946158D01*
X89345494Y-102760597D01*
X89178402Y-102593506D01*
X89178395Y-102593501D01*
X88984834Y-102457967D01*
X88984830Y-102457965D01*
X88984829Y-102457964D01*
X88770663Y-102358097D01*
X88770659Y-102358096D01*
X88770655Y-102358094D01*
X88542413Y-102296938D01*
X88542403Y-102296936D01*
X88307001Y-102276341D01*
X88306999Y-102276341D01*
X88071596Y-102296936D01*
X88071586Y-102296938D01*
X87843344Y-102358094D01*
X87843335Y-102358098D01*
X87629171Y-102457964D01*
X87629169Y-102457965D01*
X87435597Y-102593505D01*
X87268505Y-102760597D01*
X87138575Y-102946158D01*
X87083998Y-102989783D01*
X87014500Y-102996977D01*
X86952145Y-102965454D01*
X86935425Y-102946158D01*
X86805494Y-102760597D01*
X86638402Y-102593506D01*
X86638395Y-102593501D01*
X86444834Y-102457967D01*
X86444830Y-102457965D01*
X86444828Y-102457964D01*
X86230663Y-102358097D01*
X86230659Y-102358096D01*
X86230655Y-102358094D01*
X86002413Y-102296938D01*
X86002403Y-102296936D01*
X85767001Y-102276341D01*
X85766999Y-102276341D01*
X85531596Y-102296936D01*
X85531586Y-102296938D01*
X85303344Y-102358094D01*
X85303335Y-102358098D01*
X85089171Y-102457964D01*
X85089169Y-102457965D01*
X84895597Y-102593505D01*
X84728505Y-102760597D01*
X84592965Y-102954169D01*
X84592964Y-102954171D01*
X84493098Y-103168335D01*
X84493094Y-103168344D01*
X84431938Y-103396586D01*
X84431936Y-103396596D01*
X84411341Y-103631999D01*
X84411341Y-103632000D01*
X83304500Y-103632000D01*
X83304500Y-78041999D01*
X83305809Y-78024029D01*
X83306030Y-78022516D01*
X83309315Y-78000094D01*
X83304735Y-77947753D01*
X83304500Y-77942350D01*
X83304500Y-77934066D01*
X83304500Y-77934059D01*
X83300674Y-77901325D01*
X83293943Y-77824388D01*
X83293941Y-77824383D01*
X83292483Y-77817319D01*
X83292537Y-77817307D01*
X83290881Y-77809837D01*
X83290827Y-77809850D01*
X83289160Y-77802822D01*
X83289160Y-77802816D01*
X83262752Y-77730260D01*
X83238464Y-77656964D01*
X83238461Y-77656960D01*
X83235412Y-77650419D01*
X83235461Y-77650395D01*
X83232128Y-77643509D01*
X83232079Y-77643534D01*
X83228835Y-77637075D01*
X83186400Y-77572555D01*
X83145872Y-77506849D01*
X83141392Y-77501183D01*
X83141434Y-77501149D01*
X83136597Y-77495211D01*
X83136556Y-77495246D01*
X83131912Y-77489711D01*
X83075752Y-77436728D01*
X71128705Y-65489681D01*
X71095220Y-65428358D01*
X71100204Y-65358666D01*
X71142076Y-65302733D01*
X71207540Y-65278316D01*
X71216386Y-65278000D01*
X101222000Y-65278000D01*
X101289039Y-65297685D01*
X101334794Y-65350489D01*
X101346000Y-65402000D01*
X101346000Y-71834277D01*
X101326315Y-71901316D01*
X101273511Y-71947071D01*
X101204353Y-71957015D01*
X101140797Y-71927990D01*
X101109803Y-71887077D01*
X101095881Y-71857492D01*
X101094335Y-71853920D01*
X101083412Y-71826331D01*
X101069113Y-71800323D01*
X101067347Y-71796855D01*
X101014245Y-71684007D01*
X100947428Y-71578721D01*
X100945449Y-71575374D01*
X100931151Y-71549367D01*
X100931138Y-71549345D01*
X100913697Y-71525341D01*
X100911517Y-71522135D01*
X100844678Y-71416813D01*
X100844674Y-71416808D01*
X100844672Y-71416805D01*
X100765173Y-71320708D01*
X100762794Y-71317642D01*
X100745349Y-71293631D01*
X100745347Y-71293629D01*
X100745344Y-71293625D01*
X100725040Y-71272003D01*
X100722464Y-71269082D01*
X100721661Y-71268111D01*
X100642961Y-71172979D01*
X100642955Y-71172973D01*
X100642947Y-71172964D01*
X100552036Y-71087595D01*
X100549281Y-71084839D01*
X100528979Y-71063220D01*
X100528978Y-71063219D01*
X100528976Y-71063217D01*
X100506103Y-71044294D01*
X100503187Y-71041723D01*
X100498893Y-71037691D01*
X100412273Y-70956349D01*
X100354704Y-70914523D01*
X100311380Y-70883045D01*
X100308301Y-70880657D01*
X100285453Y-70861754D01*
X100285435Y-70861741D01*
X100285431Y-70861738D01*
X100260352Y-70845822D01*
X100257163Y-70843655D01*
X100156254Y-70770340D01*
X100156255Y-70770340D01*
X100156253Y-70770339D01*
X100046971Y-70710260D01*
X100043618Y-70708277D01*
X100018575Y-70692384D01*
X100018530Y-70692359D01*
X99991670Y-70679720D01*
X99988214Y-70677959D01*
X99888770Y-70623290D01*
X99878946Y-70617889D01*
X99878944Y-70617888D01*
X99878940Y-70617886D01*
X99828110Y-70597761D01*
X99762980Y-70571973D01*
X99759407Y-70570427D01*
X99732560Y-70557795D01*
X99732554Y-70557792D01*
X99704327Y-70548620D01*
X99700664Y-70547301D01*
X99584707Y-70501390D01*
X99507403Y-70481542D01*
X99463916Y-70470376D01*
X99460180Y-70469290D01*
X99431977Y-70460125D01*
X99431926Y-70460112D01*
X99402783Y-70454553D01*
X99398982Y-70453704D01*
X99278194Y-70422690D01*
X99278183Y-70422688D01*
X99154463Y-70407059D01*
X99150616Y-70406450D01*
X99121467Y-70400890D01*
X99121449Y-70400887D01*
X99114212Y-70400432D01*
X99091840Y-70399025D01*
X99087960Y-70398658D01*
X98964240Y-70383028D01*
X98964229Y-70383028D01*
X98839517Y-70383028D01*
X98835631Y-70382906D01*
X98829335Y-70382510D01*
X98806572Y-70381077D01*
X98806556Y-70381077D01*
X98806000Y-70381042D01*
X98805998Y-70381042D01*
X98805997Y-70381042D01*
X98805992Y-70381042D01*
X98786784Y-70382250D01*
X98776368Y-70382906D01*
X98772483Y-70383028D01*
X98647759Y-70383028D01*
X98524038Y-70398658D01*
X98520158Y-70399025D01*
X98493401Y-70400708D01*
X98490554Y-70400887D01*
X98490535Y-70400890D01*
X98461381Y-70406450D01*
X98457535Y-70407059D01*
X98333818Y-70422688D01*
X98333811Y-70422689D01*
X98333809Y-70422690D01*
X98310959Y-70428557D01*
X98213016Y-70453704D01*
X98209215Y-70454553D01*
X98180068Y-70460113D01*
X98180028Y-70460124D01*
X98151813Y-70469292D01*
X98148072Y-70470379D01*
X98027291Y-70501390D01*
X97911324Y-70547303D01*
X97907664Y-70548621D01*
X97879447Y-70557791D01*
X97879441Y-70557793D01*
X97852600Y-70570423D01*
X97849029Y-70571968D01*
X97733060Y-70617886D01*
X97623793Y-70677955D01*
X97620323Y-70679723D01*
X97593483Y-70692353D01*
X97593408Y-70692394D01*
X97568379Y-70708278D01*
X97565026Y-70710261D01*
X97455745Y-70770340D01*
X97354851Y-70843643D01*
X97351632Y-70845830D01*
X97326583Y-70861728D01*
X97326530Y-70861766D01*
X97303688Y-70880664D01*
X97300610Y-70883051D01*
X97199724Y-70956351D01*
X97199723Y-70956352D01*
X97108807Y-71041726D01*
X97105888Y-71044300D01*
X97083027Y-71063213D01*
X97083008Y-71063231D01*
X97069586Y-71077525D01*
X97062706Y-71084850D01*
X97059955Y-71087601D01*
X96969038Y-71172979D01*
X96969034Y-71172983D01*
X96889527Y-71269089D01*
X96886954Y-71272008D01*
X96866646Y-71293636D01*
X96866643Y-71293640D01*
X96849215Y-71317627D01*
X96846829Y-71320703D01*
X96767321Y-71416814D01*
X96700495Y-71522114D01*
X96698309Y-71525332D01*
X96696719Y-71527520D01*
X96684066Y-71544935D01*
X96680860Y-71549348D01*
X96680831Y-71549395D01*
X96666547Y-71575377D01*
X96664565Y-71578729D01*
X96597756Y-71684004D01*
X96597752Y-71684010D01*
X96544651Y-71796857D01*
X96542883Y-71800328D01*
X96528593Y-71826320D01*
X96528583Y-71826340D01*
X96517663Y-71853920D01*
X96516117Y-71857492D01*
X96463017Y-71970337D01*
X96463013Y-71970348D01*
X96424476Y-72088950D01*
X96423157Y-72092613D01*
X96412242Y-72120182D01*
X96412228Y-72120227D01*
X96408057Y-72136474D01*
X96404849Y-72148963D01*
X96403763Y-72152697D01*
X96365223Y-72271319D01*
X96341854Y-72393817D01*
X96341005Y-72397618D01*
X96333626Y-72426357D01*
X96333621Y-72426383D01*
X96329903Y-72455813D01*
X96329294Y-72459658D01*
X96305926Y-72582163D01*
X96305924Y-72582177D01*
X96298096Y-72706611D01*
X96297730Y-72710488D01*
X96294010Y-72739934D01*
X96294008Y-72739976D01*
X96294008Y-72769648D01*
X96293886Y-72773523D01*
X96286055Y-72898000D01*
X96293886Y-73022478D01*
X96294008Y-73026350D01*
X96294008Y-73056023D01*
X96294011Y-73056078D01*
X96297730Y-73085510D01*
X96298096Y-73089387D01*
X96305924Y-73213822D01*
X96305926Y-73213833D01*
X96329294Y-73336339D01*
X96329903Y-73340185D01*
X96333624Y-73369634D01*
X96333624Y-73369636D01*
X96341005Y-73398379D01*
X96341854Y-73402181D01*
X96365222Y-73524680D01*
X96365224Y-73524686D01*
X96403761Y-73643291D01*
X96404847Y-73647030D01*
X96412229Y-73675781D01*
X96412231Y-73675785D01*
X96423155Y-73703375D01*
X96424475Y-73707042D01*
X96463011Y-73825647D01*
X96463014Y-73825655D01*
X96516120Y-73938511D01*
X96517667Y-73942086D01*
X96528588Y-73969670D01*
X96542883Y-73995671D01*
X96544651Y-73999142D01*
X96597753Y-74111989D01*
X96597756Y-74111995D01*
X96664566Y-74217271D01*
X96666549Y-74220625D01*
X96680833Y-74246607D01*
X96680854Y-74246640D01*
X96680862Y-74246654D01*
X96691860Y-74261792D01*
X96698303Y-74270659D01*
X96700494Y-74273883D01*
X96767318Y-74379182D01*
X96846825Y-74475290D01*
X96849212Y-74478368D01*
X96866645Y-74502361D01*
X96866651Y-74502369D01*
X96866656Y-74502374D01*
X96886959Y-74523996D01*
X96889533Y-74526916D01*
X96947920Y-74597493D01*
X96969037Y-74623019D01*
X96969040Y-74623022D01*
X97059961Y-74708402D01*
X97062716Y-74711157D01*
X97083013Y-74732773D01*
X97083020Y-74732779D01*
X97083024Y-74732783D01*
X97105900Y-74751708D01*
X97108790Y-74754255D01*
X97199727Y-74839651D01*
X97300608Y-74912945D01*
X97303681Y-74915329D01*
X97326537Y-74934238D01*
X97326562Y-74934256D01*
X97326569Y-74934262D01*
X97326574Y-74934265D01*
X97351622Y-74950161D01*
X97354841Y-74952348D01*
X97455746Y-75025660D01*
X97565036Y-75085742D01*
X97568371Y-75087715D01*
X97593414Y-75103609D01*
X97593433Y-75103619D01*
X97593446Y-75103627D01*
X97593458Y-75103632D01*
X97593468Y-75103638D01*
X97620312Y-75116270D01*
X97623764Y-75118028D01*
X97733060Y-75178114D01*
X97849024Y-75224027D01*
X97852570Y-75225561D01*
X97879446Y-75238208D01*
X97907689Y-75247384D01*
X97911318Y-75248691D01*
X98027294Y-75294610D01*
X98148116Y-75325632D01*
X98151819Y-75326708D01*
X98180047Y-75335880D01*
X98180051Y-75335880D01*
X98180058Y-75335883D01*
X98209082Y-75341419D01*
X98209215Y-75341445D01*
X98212987Y-75342288D01*
X98333809Y-75373310D01*
X98333817Y-75373311D01*
X98333821Y-75373312D01*
X98362649Y-75376953D01*
X98457573Y-75388944D01*
X98461376Y-75389547D01*
X98490542Y-75395111D01*
X98520174Y-75396975D01*
X98524023Y-75397339D01*
X98584143Y-75404934D01*
X98647761Y-75412971D01*
X98647767Y-75412971D01*
X98647771Y-75412972D01*
X98647773Y-75412972D01*
X98772457Y-75412972D01*
X98776352Y-75413094D01*
X98805963Y-75414958D01*
X98806000Y-75414958D01*
X98806037Y-75414958D01*
X98835648Y-75413094D01*
X98839543Y-75412972D01*
X98964229Y-75412972D01*
X98964238Y-75412971D01*
X98990780Y-75409617D01*
X99087982Y-75397338D01*
X99091822Y-75396975D01*
X99121458Y-75395111D01*
X99150648Y-75389542D01*
X99154420Y-75388945D01*
X99278191Y-75373310D01*
X99399025Y-75342284D01*
X99402782Y-75341446D01*
X99414307Y-75339246D01*
X99431942Y-75335883D01*
X99431945Y-75335881D01*
X99431955Y-75335880D01*
X99460192Y-75326705D01*
X99463888Y-75325630D01*
X99584706Y-75294610D01*
X99700689Y-75248688D01*
X99704302Y-75247387D01*
X99732554Y-75238208D01*
X99759433Y-75225559D01*
X99762940Y-75224041D01*
X99878940Y-75178114D01*
X99988260Y-75118014D01*
X99991671Y-75116277D01*
X100018531Y-75103638D01*
X100018540Y-75103634D01*
X100018543Y-75103631D01*
X100018554Y-75103627D01*
X100043635Y-75087709D01*
X100046931Y-75085760D01*
X100156254Y-75025660D01*
X100257204Y-74952314D01*
X100260325Y-74950194D01*
X100285431Y-74934262D01*
X100308334Y-74915314D01*
X100311355Y-74912972D01*
X100412273Y-74839651D01*
X100503217Y-74754248D01*
X100506089Y-74751716D01*
X100528976Y-74732783D01*
X100549301Y-74711138D01*
X100552001Y-74708437D01*
X100642961Y-74623021D01*
X100722492Y-74526884D01*
X100725020Y-74524016D01*
X100745349Y-74502369D01*
X100762812Y-74478332D01*
X100765140Y-74475331D01*
X100844678Y-74379187D01*
X100911531Y-74273842D01*
X100913673Y-74270691D01*
X100931138Y-74246654D01*
X100931141Y-74246649D01*
X100931147Y-74246640D01*
X100945451Y-74220621D01*
X100947411Y-74217305D01*
X101014245Y-74111993D01*
X101067368Y-73999099D01*
X101069106Y-73995690D01*
X101083412Y-73969669D01*
X101094345Y-73942054D01*
X101095879Y-73938511D01*
X101109804Y-73908919D01*
X101156160Y-73856644D01*
X101223421Y-73837729D01*
X101290230Y-73858180D01*
X101335377Y-73911505D01*
X101346000Y-73961721D01*
X101346000Y-146510277D01*
X101326315Y-146577316D01*
X101273511Y-146623071D01*
X101204353Y-146633015D01*
X101140797Y-146603990D01*
X101109803Y-146563077D01*
X101095881Y-146533492D01*
X101094335Y-146529920D01*
X101083412Y-146502331D01*
X101069113Y-146476323D01*
X101067347Y-146472855D01*
X101014245Y-146360007D01*
X100947428Y-146254721D01*
X100945449Y-146251374D01*
X100931151Y-146225367D01*
X100931138Y-146225345D01*
X100913697Y-146201341D01*
X100911517Y-146198135D01*
X100844678Y-146092813D01*
X100844674Y-146092808D01*
X100844672Y-146092805D01*
X100765173Y-145996708D01*
X100762794Y-145993642D01*
X100745349Y-145969631D01*
X100745347Y-145969629D01*
X100745344Y-145969625D01*
X100725040Y-145948003D01*
X100722464Y-145945082D01*
X100721661Y-145944111D01*
X100642961Y-145848979D01*
X100642955Y-145848973D01*
X100642947Y-145848964D01*
X100552036Y-145763595D01*
X100549281Y-145760839D01*
X100528979Y-145739220D01*
X100528978Y-145739219D01*
X100528976Y-145739217D01*
X100506103Y-145720294D01*
X100503187Y-145717723D01*
X100498893Y-145713691D01*
X100412273Y-145632349D01*
X100354704Y-145590523D01*
X100311380Y-145559045D01*
X100308301Y-145556657D01*
X100285453Y-145537754D01*
X100285435Y-145537741D01*
X100285431Y-145537738D01*
X100260352Y-145521822D01*
X100257163Y-145519655D01*
X100156254Y-145446340D01*
X100156255Y-145446340D01*
X100156253Y-145446339D01*
X100046971Y-145386260D01*
X100043618Y-145384277D01*
X100018575Y-145368384D01*
X100018530Y-145368359D01*
X99991670Y-145355720D01*
X99988214Y-145353959D01*
X99888770Y-145299290D01*
X99878946Y-145293889D01*
X99878944Y-145293888D01*
X99878940Y-145293886D01*
X99828110Y-145273761D01*
X99762980Y-145247973D01*
X99759407Y-145246427D01*
X99732560Y-145233795D01*
X99732554Y-145233792D01*
X99704327Y-145224620D01*
X99700664Y-145223301D01*
X99584707Y-145177390D01*
X99507403Y-145157542D01*
X99463916Y-145146376D01*
X99460180Y-145145290D01*
X99431977Y-145136125D01*
X99431926Y-145136112D01*
X99402783Y-145130553D01*
X99398982Y-145129704D01*
X99278194Y-145098690D01*
X99278183Y-145098688D01*
X99154463Y-145083059D01*
X99150616Y-145082450D01*
X99121467Y-145076890D01*
X99121449Y-145076887D01*
X99114212Y-145076432D01*
X99091840Y-145075025D01*
X99087960Y-145074658D01*
X98964240Y-145059028D01*
X98964229Y-145059028D01*
X98839517Y-145059028D01*
X98835631Y-145058906D01*
X98829335Y-145058510D01*
X98806572Y-145057077D01*
X98806556Y-145057077D01*
X98806000Y-145057042D01*
X98805998Y-145057042D01*
X98805997Y-145057042D01*
X98805992Y-145057042D01*
X98786784Y-145058250D01*
X98776368Y-145058906D01*
X98772483Y-145059028D01*
X98647759Y-145059028D01*
X98524038Y-145074658D01*
X98520158Y-145075025D01*
X98493401Y-145076708D01*
X98490554Y-145076887D01*
X98490535Y-145076890D01*
X98461381Y-145082450D01*
X98457535Y-145083059D01*
X98333818Y-145098688D01*
X98333811Y-145098689D01*
X98333809Y-145098690D01*
X98310959Y-145104557D01*
X98213016Y-145129704D01*
X98209215Y-145130553D01*
X98180068Y-145136113D01*
X98180028Y-145136124D01*
X98151813Y-145145292D01*
X98148072Y-145146379D01*
X98027291Y-145177390D01*
X97911324Y-145223303D01*
X97907664Y-145224621D01*
X97879447Y-145233791D01*
X97879441Y-145233793D01*
X97852600Y-145246423D01*
X97849029Y-145247968D01*
X97733060Y-145293886D01*
X97623793Y-145353955D01*
X97620323Y-145355723D01*
X97593483Y-145368353D01*
X97593408Y-145368394D01*
X97568379Y-145384278D01*
X97565026Y-145386261D01*
X97455745Y-145446340D01*
X97354851Y-145519643D01*
X97351632Y-145521830D01*
X97326583Y-145537728D01*
X97326530Y-145537766D01*
X97303688Y-145556664D01*
X97300610Y-145559051D01*
X97199724Y-145632351D01*
X97199723Y-145632352D01*
X97108807Y-145717726D01*
X97105888Y-145720300D01*
X97083027Y-145739213D01*
X97083008Y-145739231D01*
X97069586Y-145753525D01*
X97062706Y-145760850D01*
X97059955Y-145763601D01*
X96969038Y-145848979D01*
X96969034Y-145848983D01*
X96889527Y-145945089D01*
X96886954Y-145948008D01*
X96866646Y-145969636D01*
X96866643Y-145969640D01*
X96849215Y-145993627D01*
X96846829Y-145996703D01*
X96767321Y-146092814D01*
X96700495Y-146198114D01*
X96698309Y-146201332D01*
X96696719Y-146203520D01*
X96684066Y-146220935D01*
X96680860Y-146225348D01*
X96680831Y-146225395D01*
X96666547Y-146251377D01*
X96664565Y-146254729D01*
X96597756Y-146360004D01*
X96597752Y-146360010D01*
X96544651Y-146472857D01*
X96542883Y-146476328D01*
X96528593Y-146502320D01*
X96528583Y-146502340D01*
X96517663Y-146529920D01*
X96516117Y-146533492D01*
X96463017Y-146646337D01*
X96463013Y-146646348D01*
X96424476Y-146764950D01*
X96423157Y-146768613D01*
X96412242Y-146796182D01*
X96412228Y-146796227D01*
X96408057Y-146812474D01*
X96404849Y-146824963D01*
X96403763Y-146828697D01*
X96365223Y-146947319D01*
X96341854Y-147069817D01*
X96341005Y-147073618D01*
X96333626Y-147102357D01*
X96333621Y-147102383D01*
X96329903Y-147131813D01*
X96329294Y-147135658D01*
X96305926Y-147258163D01*
X96305924Y-147258177D01*
X96298096Y-147382611D01*
X96297730Y-147386488D01*
X96294010Y-147415934D01*
X96294008Y-147415976D01*
X96294008Y-147445648D01*
X96293886Y-147449523D01*
X96286055Y-147574000D01*
X96293886Y-147698478D01*
X96294008Y-147702350D01*
X96294008Y-147732023D01*
X96294011Y-147732078D01*
X96297730Y-147761510D01*
X96298096Y-147765387D01*
X96305924Y-147889822D01*
X96305926Y-147889833D01*
X96329294Y-148012339D01*
X96329903Y-148016185D01*
X96333624Y-148045634D01*
X96333624Y-148045636D01*
X96341005Y-148074379D01*
X96341854Y-148078181D01*
X96365222Y-148200680D01*
X96365224Y-148200686D01*
X96403761Y-148319291D01*
X96404847Y-148323030D01*
X96412229Y-148351781D01*
X96412231Y-148351785D01*
X96423155Y-148379375D01*
X96424475Y-148383042D01*
X96463011Y-148501647D01*
X96463014Y-148501655D01*
X96516120Y-148614511D01*
X96517667Y-148618086D01*
X96528588Y-148645670D01*
X96542883Y-148671671D01*
X96544651Y-148675142D01*
X96597753Y-148787989D01*
X96597756Y-148787995D01*
X96664566Y-148893271D01*
X96666549Y-148896625D01*
X96680833Y-148922607D01*
X96680854Y-148922640D01*
X96680862Y-148922654D01*
X96691860Y-148937792D01*
X96698303Y-148946659D01*
X96700494Y-148949883D01*
X96767318Y-149055182D01*
X96846825Y-149151290D01*
X96849212Y-149154368D01*
X96866645Y-149178361D01*
X96866651Y-149178369D01*
X96866656Y-149178374D01*
X96886959Y-149199996D01*
X96889533Y-149202916D01*
X96947920Y-149273493D01*
X96969037Y-149299019D01*
X96969040Y-149299022D01*
X97059961Y-149384402D01*
X97062716Y-149387157D01*
X97083013Y-149408773D01*
X97083020Y-149408779D01*
X97083024Y-149408783D01*
X97105900Y-149427708D01*
X97108790Y-149430255D01*
X97199727Y-149515651D01*
X97300608Y-149588945D01*
X97303681Y-149591329D01*
X97326537Y-149610238D01*
X97326562Y-149610256D01*
X97326569Y-149610262D01*
X97326574Y-149610265D01*
X97351622Y-149626161D01*
X97354841Y-149628348D01*
X97455746Y-149701660D01*
X97565036Y-149761742D01*
X97568371Y-149763715D01*
X97593414Y-149779609D01*
X97593433Y-149779619D01*
X97593446Y-149779627D01*
X97593458Y-149779632D01*
X97593468Y-149779638D01*
X97620312Y-149792270D01*
X97623764Y-149794028D01*
X97733060Y-149854114D01*
X97733064Y-149854115D01*
X97733065Y-149854116D01*
X97785073Y-149874708D01*
X97840158Y-149917689D01*
X97863261Y-149983629D01*
X97847047Y-150051591D01*
X97796664Y-150099999D01*
X97739425Y-150114000D01*
X51548466Y-150114000D01*
X51481427Y-150094315D01*
X51435672Y-150041511D01*
X51425728Y-149972353D01*
X51454753Y-149908797D01*
X51495619Y-149877825D01*
X51499441Y-149876026D01*
X51502919Y-149874520D01*
X51618940Y-149828585D01*
X51728260Y-149768485D01*
X51731671Y-149766748D01*
X51758531Y-149754109D01*
X51758540Y-149754105D01*
X51758543Y-149754102D01*
X51758554Y-149754098D01*
X51783635Y-149738180D01*
X51786931Y-149736231D01*
X51896254Y-149676131D01*
X51997204Y-149602785D01*
X52000325Y-149600665D01*
X52025431Y-149584733D01*
X52048334Y-149565785D01*
X52051355Y-149563443D01*
X52152273Y-149490122D01*
X52243217Y-149404719D01*
X52246089Y-149402187D01*
X52268976Y-149383254D01*
X52289301Y-149361609D01*
X52292001Y-149358908D01*
X52382961Y-149273492D01*
X52462492Y-149177355D01*
X52465020Y-149174487D01*
X52485349Y-149152840D01*
X52502812Y-149128803D01*
X52505140Y-149125802D01*
X52584678Y-149029658D01*
X52651536Y-148924305D01*
X52653677Y-148921156D01*
X52671138Y-148897125D01*
X52671139Y-148897122D01*
X52671147Y-148897111D01*
X52685451Y-148871092D01*
X52687411Y-148867776D01*
X52754245Y-148762464D01*
X52807368Y-148649570D01*
X52809106Y-148646161D01*
X52823412Y-148620140D01*
X52834351Y-148592510D01*
X52835865Y-148589011D01*
X52888986Y-148476125D01*
X52927558Y-148357409D01*
X52928836Y-148353866D01*
X52939769Y-148326254D01*
X52947153Y-148297492D01*
X52948232Y-148293782D01*
X52978483Y-148200680D01*
X52986776Y-148175156D01*
X52987060Y-148173670D01*
X52989361Y-148161602D01*
X53010153Y-148052603D01*
X53010984Y-148048891D01*
X53018376Y-148020102D01*
X53022096Y-147990649D01*
X53022700Y-147986834D01*
X53046074Y-147864304D01*
X53046122Y-147863555D01*
X53047774Y-147837272D01*
X53053907Y-147739799D01*
X53054269Y-147735975D01*
X53057990Y-147706521D01*
X53057990Y-147706517D01*
X53057991Y-147706512D01*
X53058630Y-147665804D01*
X53058742Y-147662949D01*
X53065945Y-147548471D01*
X53058742Y-147433995D01*
X53058629Y-147431134D01*
X53057991Y-147390430D01*
X53054269Y-147360965D01*
X53053906Y-147357136D01*
X53046074Y-147232638D01*
X53022699Y-147110102D01*
X53022095Y-147106283D01*
X53021602Y-147102383D01*
X53018376Y-147076840D01*
X53010989Y-147048070D01*
X53010152Y-147044331D01*
X52986776Y-146921786D01*
X52948223Y-146803134D01*
X52947153Y-146799449D01*
X52939769Y-146770688D01*
X52928843Y-146743092D01*
X52927535Y-146739459D01*
X52888986Y-146620817D01*
X52874399Y-146589819D01*
X52835880Y-146507961D01*
X52834332Y-146504384D01*
X52833520Y-146502333D01*
X52823412Y-146476802D01*
X52809113Y-146450794D01*
X52807347Y-146447326D01*
X52766259Y-146360010D01*
X52754245Y-146334478D01*
X52687428Y-146229192D01*
X52685449Y-146225845D01*
X52671151Y-146199838D01*
X52671138Y-146199816D01*
X52653697Y-146175812D01*
X52651517Y-146172606D01*
X52584678Y-146067284D01*
X52584674Y-146067279D01*
X52584672Y-146067276D01*
X52505173Y-145971179D01*
X52502794Y-145968113D01*
X52485349Y-145944102D01*
X52485347Y-145944100D01*
X52485344Y-145944096D01*
X52465040Y-145922474D01*
X52462464Y-145919553D01*
X52382961Y-145823450D01*
X52382955Y-145823444D01*
X52382947Y-145823435D01*
X52293262Y-145739217D01*
X52292034Y-145738064D01*
X52289281Y-145735310D01*
X52268979Y-145713691D01*
X52268978Y-145713690D01*
X52268976Y-145713688D01*
X52246103Y-145694765D01*
X52243187Y-145692194D01*
X52179458Y-145632349D01*
X52152273Y-145606820D01*
X52086525Y-145559051D01*
X52051380Y-145533516D01*
X52048301Y-145531128D01*
X52025453Y-145512225D01*
X52025435Y-145512212D01*
X52025431Y-145512209D01*
X52000352Y-145496293D01*
X51997163Y-145494126D01*
X51896254Y-145420811D01*
X51896255Y-145420811D01*
X51896253Y-145420810D01*
X51786971Y-145360731D01*
X51783618Y-145358748D01*
X51758575Y-145342855D01*
X51758530Y-145342830D01*
X51731670Y-145330191D01*
X51728214Y-145328430D01*
X51628770Y-145273761D01*
X51618946Y-145268360D01*
X51618944Y-145268359D01*
X51618940Y-145268357D01*
X51567456Y-145247973D01*
X51502980Y-145222444D01*
X51499407Y-145220898D01*
X51472560Y-145208266D01*
X51472554Y-145208263D01*
X51444327Y-145199091D01*
X51440664Y-145197772D01*
X51324707Y-145151861D01*
X51241717Y-145130553D01*
X51203916Y-145120847D01*
X51200180Y-145119761D01*
X51171977Y-145110596D01*
X51171926Y-145110583D01*
X51142783Y-145105024D01*
X51138982Y-145104175D01*
X51018194Y-145073161D01*
X51018183Y-145073159D01*
X50894463Y-145057530D01*
X50890616Y-145056921D01*
X50861467Y-145051361D01*
X50861449Y-145051358D01*
X50854212Y-145050903D01*
X50831840Y-145049496D01*
X50827960Y-145049129D01*
X50704240Y-145033499D01*
X50704229Y-145033499D01*
X50579517Y-145033499D01*
X50575631Y-145033377D01*
X50569335Y-145032981D01*
X50546572Y-145031548D01*
X50546556Y-145031548D01*
X50546000Y-145031513D01*
X50545998Y-145031513D01*
X50545997Y-145031513D01*
X50545992Y-145031513D01*
X50526784Y-145032721D01*
X50516368Y-145033377D01*
X50512483Y-145033499D01*
X50387759Y-145033499D01*
X50264038Y-145049129D01*
X50260158Y-145049496D01*
X50233401Y-145051179D01*
X50230554Y-145051358D01*
X50230535Y-145051361D01*
X50201381Y-145056921D01*
X50197535Y-145057530D01*
X50073818Y-145073159D01*
X50073811Y-145073160D01*
X50073809Y-145073161D01*
X50059286Y-145076890D01*
X49953016Y-145104175D01*
X49949215Y-145105024D01*
X49920068Y-145110584D01*
X49920028Y-145110595D01*
X49891813Y-145119763D01*
X49888072Y-145120850D01*
X49767291Y-145151861D01*
X49651324Y-145197774D01*
X49647664Y-145199092D01*
X49619447Y-145208262D01*
X49619441Y-145208264D01*
X49592600Y-145220894D01*
X49589029Y-145222439D01*
X49473060Y-145268357D01*
X49363793Y-145328426D01*
X49360323Y-145330194D01*
X49333483Y-145342824D01*
X49333408Y-145342865D01*
X49308379Y-145358749D01*
X49305026Y-145360732D01*
X49195745Y-145420811D01*
X49094851Y-145494114D01*
X49091632Y-145496301D01*
X49066583Y-145512199D01*
X49066530Y-145512237D01*
X49043688Y-145531135D01*
X49040610Y-145533522D01*
X48939724Y-145606822D01*
X48939723Y-145606823D01*
X48848807Y-145692197D01*
X48845888Y-145694771D01*
X48823027Y-145713684D01*
X48823008Y-145713702D01*
X48809586Y-145727996D01*
X48802706Y-145735321D01*
X48799955Y-145738072D01*
X48709038Y-145823450D01*
X48709034Y-145823454D01*
X48629527Y-145919560D01*
X48626954Y-145922479D01*
X48606646Y-145944107D01*
X48606643Y-145944111D01*
X48589215Y-145968098D01*
X48586829Y-145971174D01*
X48507321Y-146067285D01*
X48440497Y-146172582D01*
X48438315Y-146175793D01*
X48436063Y-146178894D01*
X48422178Y-146198005D01*
X48420859Y-146199821D01*
X48420830Y-146199867D01*
X48406554Y-146225839D01*
X48404570Y-146229193D01*
X48337756Y-146334475D01*
X48337752Y-146334481D01*
X48284651Y-146447328D01*
X48282883Y-146450799D01*
X48268593Y-146476791D01*
X48268583Y-146476811D01*
X48257663Y-146504391D01*
X48256117Y-146507963D01*
X48242200Y-146537540D01*
X48195846Y-146589819D01*
X48128586Y-146608738D01*
X48061775Y-146588290D01*
X48016626Y-146534968D01*
X48006000Y-146484746D01*
X48006000Y-143230601D01*
X50151132Y-143230601D01*
X50170964Y-143457286D01*
X50170966Y-143457297D01*
X50229858Y-143677088D01*
X50229861Y-143677097D01*
X50326031Y-143883332D01*
X50326032Y-143883334D01*
X50456554Y-144069741D01*
X50617458Y-144230645D01*
X50617461Y-144230647D01*
X50803866Y-144361168D01*
X51010104Y-144457339D01*
X51229908Y-144516235D01*
X51391830Y-144530401D01*
X51456598Y-144536068D01*
X51456600Y-144536068D01*
X51456602Y-144536068D01*
X51513273Y-144531109D01*
X51683292Y-144516235D01*
X51903096Y-144457339D01*
X52109334Y-144361168D01*
X52295739Y-144230647D01*
X52456647Y-144069739D01*
X52587168Y-143883334D01*
X52683339Y-143677096D01*
X52742235Y-143457292D01*
X52762068Y-143230600D01*
X52742235Y-143003908D01*
X52683339Y-142784104D01*
X52587168Y-142577866D01*
X52456647Y-142391461D01*
X52456645Y-142391458D01*
X52295741Y-142230554D01*
X52109334Y-142100032D01*
X52109328Y-142100029D01*
X52051325Y-142072982D01*
X51998885Y-142026810D01*
X51979733Y-141959617D01*
X51999948Y-141892735D01*
X52051325Y-141848218D01*
X52109334Y-141821168D01*
X52295739Y-141690647D01*
X52456647Y-141529739D01*
X52587168Y-141343334D01*
X52683339Y-141137096D01*
X52742235Y-140917292D01*
X52762068Y-140690600D01*
X52742235Y-140463908D01*
X52683339Y-140244104D01*
X52587168Y-140037866D01*
X52456647Y-139851461D01*
X52456645Y-139851458D01*
X52295741Y-139690554D01*
X52109334Y-139560032D01*
X52109328Y-139560029D01*
X52051325Y-139532982D01*
X51998885Y-139486810D01*
X51979733Y-139419617D01*
X51999948Y-139352735D01*
X52051325Y-139308218D01*
X52109334Y-139281168D01*
X52295739Y-139150647D01*
X52456647Y-138989739D01*
X52587168Y-138803334D01*
X52683339Y-138597096D01*
X52742235Y-138377292D01*
X52762068Y-138150600D01*
X52742235Y-137923908D01*
X52683339Y-137704104D01*
X52587168Y-137497866D01*
X52456647Y-137311461D01*
X52456645Y-137311458D01*
X52295741Y-137150554D01*
X52109334Y-137020032D01*
X52109328Y-137020029D01*
X52074979Y-137004012D01*
X52051324Y-136992981D01*
X51998885Y-136946810D01*
X51979733Y-136879617D01*
X51999948Y-136812735D01*
X52051325Y-136768218D01*
X52055777Y-136766142D01*
X52109334Y-136741168D01*
X52295739Y-136610647D01*
X52456647Y-136449739D01*
X52587168Y-136263334D01*
X52683339Y-136057096D01*
X52742235Y-135837292D01*
X52762068Y-135610600D01*
X52742235Y-135383908D01*
X52683339Y-135164104D01*
X52587168Y-134957866D01*
X52456647Y-134771461D01*
X52456645Y-134771458D01*
X52295741Y-134610554D01*
X52109334Y-134480032D01*
X52109328Y-134480029D01*
X52051325Y-134452982D01*
X51998885Y-134406810D01*
X51979733Y-134339617D01*
X51999948Y-134272735D01*
X52051325Y-134228218D01*
X52055775Y-134226143D01*
X52109334Y-134201168D01*
X52295739Y-134070647D01*
X52456647Y-133909739D01*
X52587168Y-133723334D01*
X52683339Y-133517096D01*
X52742235Y-133297292D01*
X52762068Y-133070600D01*
X52760116Y-133048293D01*
X52747820Y-132907744D01*
X52742235Y-132843908D01*
X52683339Y-132624104D01*
X52587168Y-132417866D01*
X52467329Y-132246717D01*
X52456645Y-132231458D01*
X52295741Y-132070554D01*
X52109334Y-131940032D01*
X52109328Y-131940029D01*
X52081638Y-131927117D01*
X52051324Y-131912981D01*
X51998885Y-131866810D01*
X51979733Y-131799617D01*
X51999948Y-131732735D01*
X52051325Y-131688218D01*
X52109334Y-131661168D01*
X52295739Y-131530647D01*
X52456647Y-131369739D01*
X52587168Y-131183334D01*
X52683339Y-130977096D01*
X52742235Y-130757292D01*
X52762068Y-130530600D01*
X52742235Y-130303908D01*
X52694783Y-130126812D01*
X52683341Y-130084111D01*
X52683338Y-130084102D01*
X52657836Y-130029413D01*
X52587168Y-129877866D01*
X52456647Y-129691461D01*
X52456645Y-129691458D01*
X52295741Y-129530554D01*
X52109335Y-129400033D01*
X52109336Y-129400033D01*
X52109334Y-129400032D01*
X52051322Y-129372980D01*
X51998884Y-129326808D01*
X51979733Y-129259614D01*
X51999949Y-129192733D01*
X52051321Y-129148219D01*
X52109334Y-129121168D01*
X52295739Y-128990647D01*
X52456647Y-128829739D01*
X52587168Y-128643334D01*
X52683339Y-128437096D01*
X52742235Y-128217292D01*
X52759234Y-128022984D01*
X52762068Y-127990601D01*
X52762068Y-127990598D01*
X52756126Y-127922687D01*
X52742235Y-127763908D01*
X52694866Y-127587125D01*
X52683341Y-127544111D01*
X52683338Y-127544102D01*
X52587168Y-127337866D01*
X52456647Y-127151461D01*
X52456645Y-127151458D01*
X52295741Y-126990554D01*
X52109335Y-126860033D01*
X52109336Y-126860033D01*
X52109334Y-126860032D01*
X52051322Y-126832980D01*
X51998884Y-126786808D01*
X51979733Y-126719614D01*
X51999949Y-126652733D01*
X52051321Y-126608219D01*
X52109334Y-126581168D01*
X52295739Y-126450647D01*
X52456647Y-126289739D01*
X52587168Y-126103334D01*
X52683339Y-125897096D01*
X52742235Y-125677292D01*
X52762068Y-125450600D01*
X52742235Y-125223908D01*
X52683339Y-125004104D01*
X52587168Y-124797866D01*
X52456647Y-124611461D01*
X52456645Y-124611458D01*
X52295741Y-124450554D01*
X52109335Y-124320033D01*
X52109336Y-124320033D01*
X52109334Y-124320032D01*
X52051322Y-124292980D01*
X51998884Y-124246808D01*
X51979733Y-124179614D01*
X51999949Y-124112733D01*
X52051321Y-124068219D01*
X52109334Y-124041168D01*
X52295739Y-123910647D01*
X52456647Y-123749739D01*
X52587168Y-123563334D01*
X52683339Y-123357096D01*
X52742235Y-123137292D01*
X52762068Y-122910600D01*
X52742235Y-122683908D01*
X52697516Y-122517015D01*
X52683341Y-122464111D01*
X52683338Y-122464102D01*
X52680957Y-122458996D01*
X52587168Y-122257866D01*
X52456647Y-122071461D01*
X52456645Y-122071458D01*
X52295741Y-121910554D01*
X52109335Y-121780033D01*
X52109336Y-121780033D01*
X52109334Y-121780032D01*
X52051322Y-121752980D01*
X51998884Y-121706808D01*
X51979733Y-121639614D01*
X51999949Y-121572733D01*
X52051321Y-121528219D01*
X52109334Y-121501168D01*
X52295739Y-121370647D01*
X52456647Y-121209739D01*
X52587168Y-121023334D01*
X52683339Y-120817096D01*
X52742235Y-120597292D01*
X52762068Y-120370600D01*
X52742235Y-120143908D01*
X52683339Y-119924104D01*
X52587168Y-119717866D01*
X52456647Y-119531461D01*
X52456645Y-119531458D01*
X52295741Y-119370554D01*
X52109335Y-119240033D01*
X52109336Y-119240033D01*
X52109334Y-119240032D01*
X52051322Y-119212980D01*
X51998884Y-119166808D01*
X51979733Y-119099614D01*
X51999949Y-119032733D01*
X52051321Y-118988219D01*
X52109334Y-118961168D01*
X52295739Y-118830647D01*
X52456647Y-118669739D01*
X52587168Y-118483334D01*
X52651227Y-118345959D01*
X52653818Y-118341001D01*
X52668739Y-118315371D01*
X52845589Y-117878150D01*
X53148116Y-117130218D01*
X53175385Y-117089035D01*
X57527542Y-112736878D01*
X57530234Y-112734344D01*
X57576020Y-112693783D01*
X57610759Y-112643454D01*
X57612962Y-112640458D01*
X57650688Y-112592306D01*
X57654729Y-112583326D01*
X57665750Y-112563784D01*
X57671344Y-112555682D01*
X57693031Y-112498496D01*
X57694451Y-112495065D01*
X57719557Y-112439285D01*
X57721330Y-112429603D01*
X57727356Y-112407988D01*
X57730848Y-112398782D01*
X57738219Y-112338070D01*
X57738781Y-112334379D01*
X57744328Y-112304111D01*
X57749805Y-112274228D01*
X57746113Y-112213192D01*
X57746000Y-112209447D01*
X57746000Y-101409898D01*
X57756195Y-101360659D01*
X58066838Y-100642685D01*
X58111525Y-100588975D01*
X58178157Y-100567950D01*
X58245577Y-100586286D01*
X58292382Y-100638162D01*
X58296825Y-100648591D01*
X58301203Y-100660329D01*
X58301206Y-100660335D01*
X58387452Y-100775544D01*
X58387455Y-100775547D01*
X58502664Y-100861793D01*
X58502671Y-100861797D01*
X58637517Y-100912091D01*
X58637516Y-100912091D01*
X58644444Y-100912835D01*
X58697127Y-100918500D01*
X60492872Y-100918499D01*
X60552483Y-100912091D01*
X60687331Y-100861796D01*
X60802546Y-100775546D01*
X60888796Y-100660331D01*
X60939091Y-100525483D01*
X60945500Y-100465873D01*
X60945499Y-98670128D01*
X60939091Y-98610517D01*
X60937810Y-98607083D01*
X60888797Y-98475671D01*
X60888793Y-98475664D01*
X60802547Y-98360455D01*
X60802544Y-98360452D01*
X60687335Y-98274206D01*
X60687328Y-98274202D01*
X60552482Y-98223908D01*
X60552483Y-98223908D01*
X60492883Y-98217501D01*
X60492881Y-98217500D01*
X60492873Y-98217500D01*
X60492864Y-98217500D01*
X58697129Y-98217500D01*
X58697123Y-98217501D01*
X58637516Y-98223908D01*
X58502671Y-98274202D01*
X58502664Y-98274206D01*
X58387455Y-98360452D01*
X58387452Y-98360455D01*
X58301206Y-98475664D01*
X58301203Y-98475669D01*
X58252189Y-98607083D01*
X58210317Y-98663016D01*
X58144853Y-98687433D01*
X58076580Y-98672581D01*
X58048326Y-98651430D01*
X57926402Y-98529506D01*
X57926395Y-98529501D01*
X57732834Y-98393967D01*
X57732830Y-98393965D01*
X57732828Y-98393964D01*
X57518663Y-98294097D01*
X57518659Y-98294096D01*
X57518655Y-98294094D01*
X57290413Y-98232938D01*
X57290403Y-98232936D01*
X57055001Y-98212341D01*
X57054999Y-98212341D01*
X56819596Y-98232936D01*
X56819586Y-98232938D01*
X56591344Y-98294094D01*
X56591335Y-98294098D01*
X56377171Y-98393964D01*
X56377169Y-98393965D01*
X56183597Y-98529505D01*
X56016505Y-98696597D01*
X55886575Y-98882158D01*
X55831998Y-98925783D01*
X55762500Y-98932977D01*
X55700145Y-98901454D01*
X55683425Y-98882158D01*
X55553494Y-98696597D01*
X55386402Y-98529506D01*
X55386395Y-98529501D01*
X55192834Y-98393967D01*
X55192830Y-98393965D01*
X55192829Y-98393964D01*
X54978663Y-98294097D01*
X54978659Y-98294096D01*
X54978655Y-98294094D01*
X54750413Y-98232938D01*
X54750403Y-98232936D01*
X54515001Y-98212341D01*
X54514999Y-98212341D01*
X54279596Y-98232936D01*
X54279586Y-98232938D01*
X54051344Y-98294094D01*
X54051335Y-98294098D01*
X53837171Y-98393964D01*
X53837169Y-98393965D01*
X53643597Y-98529505D01*
X53476505Y-98696597D01*
X53340965Y-98890169D01*
X53340964Y-98890171D01*
X53241098Y-99104335D01*
X53241094Y-99104344D01*
X53179938Y-99332586D01*
X53179936Y-99332596D01*
X53159341Y-99567999D01*
X53159341Y-99568000D01*
X53179936Y-99803403D01*
X53179938Y-99803413D01*
X53241094Y-100031655D01*
X53241096Y-100031659D01*
X53241097Y-100031663D01*
X53326938Y-100215749D01*
X53340965Y-100245830D01*
X53340967Y-100245834D01*
X53449281Y-100400521D01*
X53476505Y-100439401D01*
X53643599Y-100606495D01*
X53740384Y-100674265D01*
X53837165Y-100742032D01*
X53837167Y-100742033D01*
X53837170Y-100742035D01*
X54051337Y-100841903D01*
X54279592Y-100903063D01*
X54456034Y-100918500D01*
X54514999Y-100923659D01*
X54515000Y-100923659D01*
X54515001Y-100923659D01*
X54573966Y-100918500D01*
X54750408Y-100903063D01*
X54978663Y-100841903D01*
X55192830Y-100742035D01*
X55386401Y-100606495D01*
X55553495Y-100439401D01*
X55674515Y-100266566D01*
X55729089Y-100222943D01*
X55798588Y-100215749D01*
X55860943Y-100247272D01*
X55889892Y-100288451D01*
X56353804Y-101360659D01*
X56364000Y-101409899D01*
X56364000Y-111894615D01*
X56344315Y-111961654D01*
X56327681Y-111982296D01*
X52805695Y-115504281D01*
X52744372Y-115537766D01*
X52718014Y-115540600D01*
X52069947Y-115540600D01*
X52002908Y-115520915D01*
X51957153Y-115468111D01*
X51947209Y-115398953D01*
X51950969Y-115381667D01*
X51956600Y-115362488D01*
X51956600Y-115218711D01*
X51950969Y-115199533D01*
X51950970Y-115129664D01*
X51988745Y-115070886D01*
X52052301Y-115041862D01*
X52069947Y-115040600D01*
X52735472Y-115040600D01*
X52735472Y-115040599D01*
X52682869Y-114844282D01*
X52682865Y-114844273D01*
X52586734Y-114638117D01*
X52456257Y-114451779D01*
X52295420Y-114290942D01*
X52109082Y-114160465D01*
X52050733Y-114133257D01*
X51998294Y-114087084D01*
X51979142Y-114019891D01*
X51999358Y-113953010D01*
X52050729Y-113908495D01*
X52109334Y-113881168D01*
X52295739Y-113750647D01*
X52456647Y-113589739D01*
X52587168Y-113403334D01*
X52683339Y-113197096D01*
X52742235Y-112977292D01*
X52762068Y-112750600D01*
X52742235Y-112523908D01*
X52683339Y-112304104D01*
X52587168Y-112097866D01*
X52456647Y-111911461D01*
X52456645Y-111911458D01*
X52295741Y-111750554D01*
X52109334Y-111620032D01*
X52109328Y-111620029D01*
X52051325Y-111592982D01*
X51998885Y-111546810D01*
X51979733Y-111479617D01*
X51999948Y-111412735D01*
X52051325Y-111368218D01*
X52051919Y-111367941D01*
X52109334Y-111341168D01*
X52295739Y-111210647D01*
X52456647Y-111049739D01*
X52587168Y-110863334D01*
X52683339Y-110657096D01*
X52742235Y-110437292D01*
X52762068Y-110210600D01*
X52742235Y-109983908D01*
X52689112Y-109785648D01*
X52683341Y-109764111D01*
X52683338Y-109764102D01*
X52659442Y-109712858D01*
X52587168Y-109557866D01*
X52456647Y-109371461D01*
X52456645Y-109371458D01*
X52295743Y-109210556D01*
X52271136Y-109193326D01*
X52227512Y-109138749D01*
X52220319Y-109069250D01*
X52251841Y-109006896D01*
X52312071Y-108971482D01*
X52329004Y-108968461D01*
X52364083Y-108964691D01*
X52498931Y-108914396D01*
X52614146Y-108828146D01*
X52700396Y-108712931D01*
X52750691Y-108578083D01*
X52757100Y-108518473D01*
X52757099Y-106822728D01*
X52750691Y-106763117D01*
X52716167Y-106670554D01*
X52700397Y-106628271D01*
X52700393Y-106628264D01*
X52614147Y-106513055D01*
X52614144Y-106513052D01*
X52498935Y-106426806D01*
X52498928Y-106426802D01*
X52364082Y-106376508D01*
X52364083Y-106376508D01*
X52304483Y-106370101D01*
X52304481Y-106370100D01*
X52304473Y-106370100D01*
X52304464Y-106370100D01*
X50608729Y-106370100D01*
X50608723Y-106370101D01*
X50549116Y-106376508D01*
X50414271Y-106426802D01*
X50414264Y-106426806D01*
X50299055Y-106513052D01*
X50299052Y-106513055D01*
X50212806Y-106628264D01*
X50212802Y-106628271D01*
X50162508Y-106763117D01*
X50156101Y-106822716D01*
X50156101Y-106822723D01*
X50156100Y-106822735D01*
X50156100Y-108518470D01*
X50156101Y-108518476D01*
X50162508Y-108578083D01*
X50212802Y-108712928D01*
X50212806Y-108712935D01*
X50299052Y-108828144D01*
X50299055Y-108828147D01*
X50414264Y-108914393D01*
X50414271Y-108914397D01*
X50459218Y-108931160D01*
X50549117Y-108964691D01*
X50584196Y-108968462D01*
X50648744Y-108995199D01*
X50688593Y-109052591D01*
X50691088Y-109122416D01*
X50655436Y-109182505D01*
X50642064Y-109193325D01*
X50617458Y-109210554D01*
X50456554Y-109371458D01*
X50326032Y-109557865D01*
X50326031Y-109557867D01*
X50229861Y-109764102D01*
X50229858Y-109764111D01*
X50170966Y-109983902D01*
X50170964Y-109983913D01*
X50151132Y-110210598D01*
X50151132Y-110210601D01*
X50170964Y-110437286D01*
X50170966Y-110437297D01*
X50229858Y-110657088D01*
X50229861Y-110657097D01*
X50326031Y-110863332D01*
X50326032Y-110863334D01*
X50456554Y-111049741D01*
X50617458Y-111210645D01*
X50637527Y-111224697D01*
X50803866Y-111341168D01*
X50861281Y-111367941D01*
X50861875Y-111368218D01*
X50914314Y-111414391D01*
X50933466Y-111481584D01*
X50913250Y-111548465D01*
X50861875Y-111592982D01*
X50803867Y-111620031D01*
X50803865Y-111620032D01*
X50617458Y-111750554D01*
X50456554Y-111911458D01*
X50326032Y-112097865D01*
X50326031Y-112097867D01*
X50229861Y-112304102D01*
X50229858Y-112304111D01*
X50170966Y-112523902D01*
X50170964Y-112523913D01*
X50151132Y-112750598D01*
X50151132Y-112750601D01*
X50170964Y-112977286D01*
X50170966Y-112977297D01*
X50229858Y-113197088D01*
X50229861Y-113197097D01*
X50326031Y-113403332D01*
X50326032Y-113403334D01*
X50456554Y-113589741D01*
X50617458Y-113750645D01*
X50617461Y-113750647D01*
X50803866Y-113881168D01*
X50862465Y-113908493D01*
X50914905Y-113954665D01*
X50934057Y-114021858D01*
X50913842Y-114088739D01*
X50862467Y-114133257D01*
X50804115Y-114160467D01*
X50617779Y-114290942D01*
X50456942Y-114451779D01*
X50326465Y-114638117D01*
X50230334Y-114844273D01*
X50230330Y-114844282D01*
X50177727Y-115040599D01*
X50177728Y-115040600D01*
X50843253Y-115040600D01*
X50910292Y-115060285D01*
X50956047Y-115113089D01*
X50965991Y-115182247D01*
X50962231Y-115199533D01*
X50956600Y-115218711D01*
X50956600Y-115362488D01*
X50962231Y-115381667D01*
X50962230Y-115451536D01*
X50924455Y-115510314D01*
X50860899Y-115539338D01*
X50843253Y-115540600D01*
X50177728Y-115540600D01*
X50230330Y-115736917D01*
X50230334Y-115736926D01*
X50326465Y-115943082D01*
X50456942Y-116129420D01*
X50617779Y-116290257D01*
X50804117Y-116420734D01*
X50862465Y-116447942D01*
X50914904Y-116494114D01*
X50934056Y-116561308D01*
X50913840Y-116628189D01*
X50862466Y-116672706D01*
X50803866Y-116700031D01*
X50617458Y-116830554D01*
X50456554Y-116991458D01*
X50326032Y-117177865D01*
X50326031Y-117177867D01*
X50229861Y-117384102D01*
X50229858Y-117384111D01*
X50170966Y-117603902D01*
X50170964Y-117603913D01*
X50151132Y-117830598D01*
X50151132Y-117830601D01*
X50170964Y-118057286D01*
X50170966Y-118057297D01*
X50229858Y-118277088D01*
X50229861Y-118277097D01*
X50326031Y-118483332D01*
X50326032Y-118483334D01*
X50456554Y-118669741D01*
X50617458Y-118830645D01*
X50617461Y-118830647D01*
X50803866Y-118961168D01*
X50861875Y-118988218D01*
X50914314Y-119034391D01*
X50933466Y-119101584D01*
X50913250Y-119168465D01*
X50861875Y-119212982D01*
X50803867Y-119240031D01*
X50803865Y-119240032D01*
X50617458Y-119370554D01*
X50456554Y-119531458D01*
X50326032Y-119717865D01*
X50326031Y-119717867D01*
X50229861Y-119924102D01*
X50229858Y-119924111D01*
X50170966Y-120143902D01*
X50170964Y-120143913D01*
X50151132Y-120370598D01*
X50151132Y-120370601D01*
X50170964Y-120597286D01*
X50170966Y-120597297D01*
X50229858Y-120817088D01*
X50229861Y-120817097D01*
X50326031Y-121023332D01*
X50326032Y-121023334D01*
X50456554Y-121209741D01*
X50617458Y-121370645D01*
X50617461Y-121370647D01*
X50803866Y-121501168D01*
X50861875Y-121528218D01*
X50914314Y-121574391D01*
X50933466Y-121641584D01*
X50913250Y-121708465D01*
X50861875Y-121752982D01*
X50803867Y-121780031D01*
X50803865Y-121780032D01*
X50617458Y-121910554D01*
X50456554Y-122071458D01*
X50326032Y-122257865D01*
X50326031Y-122257867D01*
X50229861Y-122464102D01*
X50229858Y-122464111D01*
X50170966Y-122683902D01*
X50170964Y-122683913D01*
X50151132Y-122910598D01*
X50151132Y-122910601D01*
X50170964Y-123137286D01*
X50170966Y-123137297D01*
X50229858Y-123357088D01*
X50229861Y-123357097D01*
X50326031Y-123563332D01*
X50326032Y-123563334D01*
X50456554Y-123749741D01*
X50617458Y-123910645D01*
X50617461Y-123910647D01*
X50803866Y-124041168D01*
X50861875Y-124068218D01*
X50914314Y-124114391D01*
X50933466Y-124181584D01*
X50913250Y-124248465D01*
X50861875Y-124292982D01*
X50803867Y-124320031D01*
X50803865Y-124320032D01*
X50617458Y-124450554D01*
X50456554Y-124611458D01*
X50326032Y-124797865D01*
X50326031Y-124797867D01*
X50229861Y-125004102D01*
X50229858Y-125004111D01*
X50170966Y-125223902D01*
X50170964Y-125223913D01*
X50151132Y-125450598D01*
X50151132Y-125450601D01*
X50170964Y-125677286D01*
X50170966Y-125677297D01*
X50229858Y-125897088D01*
X50229861Y-125897097D01*
X50326031Y-126103332D01*
X50326032Y-126103334D01*
X50456554Y-126289741D01*
X50617458Y-126450645D01*
X50796727Y-126576169D01*
X50803866Y-126581168D01*
X50861878Y-126608219D01*
X50914313Y-126654388D01*
X50933466Y-126721582D01*
X50913251Y-126788463D01*
X50861877Y-126832980D01*
X50803868Y-126860030D01*
X50803865Y-126860032D01*
X50617458Y-126990554D01*
X50456554Y-127151458D01*
X50326032Y-127337865D01*
X50326031Y-127337867D01*
X50229861Y-127544102D01*
X50229858Y-127544111D01*
X50170966Y-127763902D01*
X50170964Y-127763913D01*
X50151132Y-127990598D01*
X50151132Y-127990601D01*
X50170964Y-128217286D01*
X50170966Y-128217297D01*
X50229858Y-128437088D01*
X50229861Y-128437097D01*
X50326031Y-128643332D01*
X50326032Y-128643334D01*
X50456554Y-128829741D01*
X50617458Y-128990645D01*
X50803785Y-129121111D01*
X50803866Y-129121168D01*
X50861878Y-129148219D01*
X50914313Y-129194388D01*
X50933466Y-129261582D01*
X50913251Y-129328463D01*
X50861877Y-129372980D01*
X50803868Y-129400030D01*
X50803865Y-129400032D01*
X50617458Y-129530554D01*
X50456554Y-129691458D01*
X50326032Y-129877865D01*
X50326031Y-129877867D01*
X50229861Y-130084102D01*
X50229858Y-130084111D01*
X50170966Y-130303902D01*
X50170964Y-130303913D01*
X50151132Y-130530598D01*
X50151132Y-130530601D01*
X50170964Y-130757286D01*
X50170966Y-130757297D01*
X50229858Y-130977088D01*
X50229861Y-130977097D01*
X50326031Y-131183332D01*
X50326032Y-131183334D01*
X50456554Y-131369741D01*
X50617458Y-131530645D01*
X50617461Y-131530647D01*
X50803866Y-131661168D01*
X50861875Y-131688218D01*
X50914314Y-131734391D01*
X50933466Y-131801584D01*
X50913250Y-131868465D01*
X50861875Y-131912982D01*
X50803867Y-131940031D01*
X50803865Y-131940032D01*
X50617458Y-132070554D01*
X50456554Y-132231458D01*
X50326032Y-132417865D01*
X50326031Y-132417867D01*
X50229861Y-132624102D01*
X50229858Y-132624111D01*
X50170966Y-132843902D01*
X50170964Y-132843913D01*
X50151132Y-133070598D01*
X50151132Y-133070601D01*
X50170964Y-133297286D01*
X50170966Y-133297297D01*
X50229858Y-133517088D01*
X50229861Y-133517097D01*
X50326031Y-133723332D01*
X50326032Y-133723334D01*
X50456554Y-133909741D01*
X50617458Y-134070645D01*
X50617461Y-134070647D01*
X50803866Y-134201168D01*
X50857425Y-134226143D01*
X50861875Y-134228218D01*
X50914314Y-134274391D01*
X50933466Y-134341584D01*
X50913250Y-134408465D01*
X50861875Y-134452982D01*
X50803867Y-134480031D01*
X50803865Y-134480032D01*
X50617458Y-134610554D01*
X50456554Y-134771458D01*
X50326032Y-134957865D01*
X50326031Y-134957867D01*
X50229861Y-135164102D01*
X50229858Y-135164111D01*
X50170966Y-135383902D01*
X50170964Y-135383913D01*
X50151132Y-135610598D01*
X50151132Y-135610601D01*
X50170964Y-135837286D01*
X50170966Y-135837297D01*
X50229858Y-136057088D01*
X50229861Y-136057097D01*
X50326031Y-136263332D01*
X50326032Y-136263334D01*
X50456554Y-136449741D01*
X50617458Y-136610645D01*
X50617461Y-136610647D01*
X50803866Y-136741168D01*
X50857423Y-136766142D01*
X50861875Y-136768218D01*
X50914314Y-136814391D01*
X50933466Y-136881584D01*
X50913250Y-136948465D01*
X50861875Y-136992982D01*
X50803867Y-137020031D01*
X50803865Y-137020032D01*
X50617458Y-137150554D01*
X50456554Y-137311458D01*
X50326032Y-137497865D01*
X50326031Y-137497867D01*
X50229861Y-137704102D01*
X50229858Y-137704111D01*
X50170966Y-137923902D01*
X50170964Y-137923913D01*
X50151132Y-138150598D01*
X50151132Y-138150601D01*
X50170964Y-138377286D01*
X50170966Y-138377297D01*
X50229858Y-138597088D01*
X50229861Y-138597097D01*
X50326031Y-138803332D01*
X50326032Y-138803334D01*
X50456554Y-138989741D01*
X50617458Y-139150645D01*
X50617461Y-139150647D01*
X50803866Y-139281168D01*
X50861875Y-139308218D01*
X50914314Y-139354391D01*
X50933466Y-139421584D01*
X50913250Y-139488465D01*
X50861875Y-139532982D01*
X50803867Y-139560031D01*
X50803865Y-139560032D01*
X50617458Y-139690554D01*
X50456554Y-139851458D01*
X50326032Y-140037865D01*
X50326031Y-140037867D01*
X50229861Y-140244102D01*
X50229858Y-140244111D01*
X50170966Y-140463902D01*
X50170964Y-140463913D01*
X50151132Y-140690598D01*
X50151132Y-140690601D01*
X50170964Y-140917286D01*
X50170966Y-140917297D01*
X50229858Y-141137088D01*
X50229861Y-141137097D01*
X50326031Y-141343332D01*
X50326032Y-141343334D01*
X50456554Y-141529741D01*
X50617458Y-141690645D01*
X50617461Y-141690647D01*
X50803866Y-141821168D01*
X50861875Y-141848218D01*
X50914314Y-141894391D01*
X50933466Y-141961584D01*
X50913250Y-142028465D01*
X50861875Y-142072982D01*
X50803867Y-142100031D01*
X50803865Y-142100032D01*
X50617458Y-142230554D01*
X50456554Y-142391458D01*
X50326032Y-142577865D01*
X50326031Y-142577867D01*
X50229861Y-142784102D01*
X50229858Y-142784111D01*
X50170966Y-143003902D01*
X50170964Y-143003913D01*
X50151132Y-143230598D01*
X50151132Y-143230601D01*
X48006000Y-143230601D01*
X48006000Y-94234000D01*
X51396341Y-94234000D01*
X51416936Y-94469403D01*
X51416938Y-94469413D01*
X51478094Y-94697655D01*
X51478096Y-94697659D01*
X51478097Y-94697663D01*
X51577964Y-94911829D01*
X51577965Y-94911830D01*
X51577967Y-94911834D01*
X51686281Y-95066521D01*
X51713505Y-95105401D01*
X51880599Y-95272495D01*
X51977384Y-95340264D01*
X52074165Y-95408032D01*
X52074167Y-95408033D01*
X52074170Y-95408035D01*
X52288337Y-95507903D01*
X52516592Y-95569063D01*
X52704918Y-95585539D01*
X52751999Y-95589659D01*
X52752000Y-95589659D01*
X52752001Y-95589659D01*
X52791234Y-95586226D01*
X52987408Y-95569063D01*
X53215663Y-95507903D01*
X53429830Y-95408035D01*
X53623401Y-95272495D01*
X53790495Y-95105401D01*
X53926035Y-94911830D01*
X54025903Y-94697663D01*
X54087063Y-94469408D01*
X54107659Y-94234000D01*
X54087063Y-93998592D01*
X54025903Y-93770337D01*
X53926035Y-93556171D01*
X53790495Y-93362599D01*
X53790494Y-93362597D01*
X53623402Y-93195506D01*
X53623401Y-93195505D01*
X53437405Y-93065269D01*
X53393781Y-93010692D01*
X53386588Y-92941193D01*
X53418110Y-92878839D01*
X53437405Y-92862119D01*
X53623082Y-92732105D01*
X53790105Y-92565082D01*
X53925600Y-92371578D01*
X54025429Y-92157492D01*
X54025432Y-92157486D01*
X54082636Y-91944000D01*
X53365347Y-91944000D01*
X53298308Y-91924315D01*
X53252553Y-91871511D01*
X53242609Y-91802353D01*
X53246369Y-91785067D01*
X53252000Y-91765888D01*
X53252000Y-91622111D01*
X53246369Y-91602933D01*
X53246370Y-91533064D01*
X53284145Y-91474286D01*
X53347701Y-91445262D01*
X53365347Y-91444000D01*
X54082636Y-91444000D01*
X54082635Y-91443999D01*
X54025432Y-91230513D01*
X54025429Y-91230507D01*
X53925600Y-91016422D01*
X53925599Y-91016420D01*
X53790113Y-90822926D01*
X53790108Y-90822920D01*
X53623082Y-90655894D01*
X53436968Y-90525575D01*
X53393344Y-90470998D01*
X53386151Y-90401499D01*
X53417673Y-90339145D01*
X53436968Y-90322425D01*
X53623082Y-90192105D01*
X53790105Y-90025082D01*
X53925600Y-89831578D01*
X54025429Y-89617492D01*
X54025432Y-89617486D01*
X54082636Y-89404000D01*
X53365347Y-89404000D01*
X53298308Y-89384315D01*
X53252553Y-89331511D01*
X53242609Y-89262353D01*
X53246369Y-89245067D01*
X53252000Y-89225888D01*
X53252000Y-89154000D01*
X59016341Y-89154000D01*
X59036936Y-89389403D01*
X59036938Y-89389413D01*
X59098094Y-89617655D01*
X59098096Y-89617659D01*
X59098097Y-89617663D01*
X59167408Y-89766301D01*
X59197965Y-89831830D01*
X59197967Y-89831834D01*
X59306281Y-89986521D01*
X59333505Y-90025401D01*
X59500599Y-90192495D01*
X59659844Y-90304000D01*
X59686594Y-90322730D01*
X59730219Y-90377307D01*
X59737413Y-90446805D01*
X59705890Y-90509160D01*
X59686595Y-90525880D01*
X59500922Y-90655890D01*
X59500920Y-90655891D01*
X59333891Y-90822920D01*
X59333886Y-90822926D01*
X59198400Y-91016420D01*
X59198399Y-91016422D01*
X59098570Y-91230507D01*
X59098567Y-91230513D01*
X59041364Y-91443999D01*
X59041364Y-91444000D01*
X59758653Y-91444000D01*
X59825692Y-91463685D01*
X59871447Y-91516489D01*
X59881391Y-91585647D01*
X59877631Y-91602933D01*
X59872000Y-91622111D01*
X59872000Y-91765888D01*
X59877631Y-91785067D01*
X59877630Y-91854936D01*
X59839855Y-91913714D01*
X59776299Y-91942738D01*
X59758653Y-91944000D01*
X59041364Y-91944000D01*
X59098567Y-92157486D01*
X59098570Y-92157492D01*
X59198399Y-92371578D01*
X59333894Y-92565082D01*
X59500917Y-92732105D01*
X59694421Y-92867600D01*
X59908507Y-92967429D01*
X59908516Y-92967433D01*
X60121998Y-93024635D01*
X60121999Y-93024634D01*
X60121999Y-92306300D01*
X60141684Y-92239261D01*
X60194488Y-92193506D01*
X60263642Y-92183562D01*
X60336237Y-92194000D01*
X60336240Y-92194000D01*
X60407762Y-92194000D01*
X60407763Y-92194000D01*
X60480353Y-92183563D01*
X60549512Y-92193507D01*
X60602315Y-92239262D01*
X60622000Y-92306301D01*
X60622000Y-93024633D01*
X60835483Y-92967433D01*
X60835492Y-92967429D01*
X61049578Y-92867600D01*
X61243082Y-92732105D01*
X61410105Y-92565082D01*
X61545600Y-92371578D01*
X61645429Y-92157492D01*
X61645432Y-92157486D01*
X61702636Y-91944000D01*
X60985347Y-91944000D01*
X60918308Y-91924315D01*
X60872553Y-91871511D01*
X60862609Y-91802353D01*
X60866369Y-91785067D01*
X60872000Y-91765888D01*
X60872000Y-91622111D01*
X60866369Y-91602933D01*
X60866370Y-91533064D01*
X60904145Y-91474286D01*
X60967701Y-91445262D01*
X60985347Y-91444000D01*
X61702636Y-91444000D01*
X61702635Y-91443999D01*
X61645432Y-91230513D01*
X61645429Y-91230507D01*
X61545600Y-91016422D01*
X61545599Y-91016420D01*
X61410113Y-90822926D01*
X61410108Y-90822920D01*
X61243078Y-90655890D01*
X61057405Y-90525879D01*
X61013780Y-90471302D01*
X61006588Y-90401804D01*
X61038110Y-90339449D01*
X61057406Y-90322730D01*
X61057842Y-90322425D01*
X61243401Y-90192495D01*
X61410495Y-90025401D01*
X61546035Y-89831830D01*
X61645903Y-89617663D01*
X61707063Y-89389408D01*
X61727659Y-89154000D01*
X61707063Y-88918592D01*
X61645903Y-88690337D01*
X61546035Y-88476171D01*
X61410495Y-88282599D01*
X61289990Y-88162094D01*
X61256507Y-88100774D01*
X61261491Y-88031082D01*
X61303362Y-87975148D01*
X61351606Y-87953186D01*
X62286097Y-87752269D01*
X62312161Y-87749500D01*
X62978299Y-87749500D01*
X63045338Y-87769185D01*
X63065980Y-87785819D01*
X79012181Y-103732020D01*
X79045666Y-103793343D01*
X79048500Y-103819701D01*
X79048500Y-109327711D01*
X79045476Y-109352220D01*
X79045851Y-109352286D01*
X79045084Y-109356645D01*
X78900729Y-110756439D01*
X78898987Y-110765919D01*
X78899305Y-110765976D01*
X78898365Y-110771306D01*
X78893710Y-110824509D01*
X78881836Y-110939656D01*
X78880844Y-110952448D01*
X78880449Y-110960029D01*
X78880449Y-110960033D01*
X78880683Y-110968762D01*
X78880470Y-110975829D01*
X78878532Y-110997998D01*
X78878532Y-110998001D01*
X78898364Y-111224687D01*
X78898366Y-111224697D01*
X78957258Y-111444488D01*
X78957261Y-111444497D01*
X79053431Y-111650732D01*
X79053432Y-111650734D01*
X79183954Y-111837141D01*
X79344858Y-111998045D01*
X79344861Y-111998047D01*
X79531266Y-112128568D01*
X79737504Y-112224739D01*
X79957308Y-112283635D01*
X80119230Y-112297801D01*
X80183998Y-112303468D01*
X80184000Y-112303468D01*
X80184002Y-112303468D01*
X80240672Y-112298509D01*
X80410692Y-112283635D01*
X80630496Y-112224739D01*
X80836734Y-112128568D01*
X81023139Y-111998047D01*
X81184047Y-111837139D01*
X81314568Y-111650734D01*
X81410739Y-111444496D01*
X81469635Y-111224692D01*
X81489468Y-110998000D01*
X81485314Y-110950530D01*
X81485128Y-110942639D01*
X81485504Y-110933261D01*
X81474292Y-110824541D01*
X81469635Y-110771308D01*
X81469633Y-110771304D01*
X81468694Y-110765974D01*
X81469018Y-110765916D01*
X81467266Y-110756420D01*
X81458391Y-110670363D01*
X81322916Y-109356645D01*
X81320027Y-109334651D01*
X81319500Y-109326577D01*
X81319500Y-103403162D01*
X81321218Y-103382595D01*
X81321757Y-103379385D01*
X81321759Y-103379374D01*
X81319500Y-103284482D01*
X81319500Y-103243909D01*
X81318423Y-103232635D01*
X81318160Y-103228223D01*
X81316598Y-103162581D01*
X81308716Y-103126347D01*
X81307578Y-103119055D01*
X81304053Y-103082137D01*
X81304052Y-103082136D01*
X81304052Y-103082128D01*
X81285546Y-103019104D01*
X81284460Y-103014846D01*
X81270502Y-102950683D01*
X81255900Y-102916585D01*
X81253408Y-102909654D01*
X81242957Y-102874058D01*
X81212863Y-102815685D01*
X81210983Y-102811695D01*
X81185137Y-102751337D01*
X81164343Y-102720614D01*
X81160587Y-102714285D01*
X81143588Y-102681310D01*
X81143587Y-102681308D01*
X81143584Y-102681304D01*
X81119923Y-102651218D01*
X81102995Y-102629692D01*
X81100390Y-102626125D01*
X81078313Y-102593506D01*
X81063589Y-102571750D01*
X81037356Y-102545517D01*
X81032465Y-102540005D01*
X81009538Y-102510851D01*
X80979162Y-102484530D01*
X80959907Y-102467845D01*
X80956667Y-102464828D01*
X64377278Y-85885438D01*
X64363951Y-85869683D01*
X64362057Y-85867023D01*
X64293378Y-85801538D01*
X64264678Y-85772837D01*
X64264676Y-85772835D01*
X64255938Y-85765621D01*
X64252627Y-85762682D01*
X64205116Y-85717381D01*
X64205112Y-85717377D01*
X64187441Y-85706020D01*
X64173915Y-85697327D01*
X64167958Y-85692977D01*
X64139354Y-85669361D01*
X64139354Y-85669360D01*
X64081720Y-85637889D01*
X64077919Y-85635634D01*
X64064127Y-85626771D01*
X64022683Y-85600136D01*
X64022677Y-85600134D01*
X63988249Y-85586350D01*
X63981576Y-85583206D01*
X63949029Y-85565435D01*
X63949027Y-85565434D01*
X63949023Y-85565432D01*
X63937520Y-85561754D01*
X63886476Y-85545436D01*
X63882312Y-85543940D01*
X63821362Y-85519540D01*
X63821363Y-85519540D01*
X63784939Y-85512519D01*
X63777789Y-85510694D01*
X63742466Y-85499402D01*
X63677269Y-85491607D01*
X63672896Y-85490925D01*
X63608428Y-85478500D01*
X63608427Y-85478500D01*
X63571338Y-85478500D01*
X63563971Y-85478061D01*
X63527146Y-85473658D01*
X63527145Y-85473658D01*
X63461651Y-85478342D01*
X63457230Y-85478500D01*
X62312165Y-85478500D01*
X62286101Y-85475730D01*
X61963892Y-85406455D01*
X61336306Y-85271523D01*
X61329483Y-85269909D01*
X61329481Y-85269908D01*
X61328202Y-85269606D01*
X61324961Y-85269084D01*
X61321399Y-85268319D01*
X61321391Y-85268317D01*
X61312583Y-85266906D01*
X61294971Y-85264085D01*
X61288671Y-85263415D01*
X61279229Y-85262410D01*
X61279219Y-85262409D01*
X61172084Y-85262435D01*
X61167426Y-85263019D01*
X61159712Y-85263500D01*
X59474129Y-85263500D01*
X59474123Y-85263501D01*
X59414516Y-85269908D01*
X59279671Y-85320202D01*
X59279664Y-85320206D01*
X59164455Y-85406452D01*
X59164452Y-85406455D01*
X59078206Y-85521664D01*
X59078202Y-85521671D01*
X59027908Y-85656517D01*
X59023736Y-85695330D01*
X59021501Y-85716123D01*
X59021500Y-85716135D01*
X59021500Y-87511870D01*
X59021501Y-87511876D01*
X59027908Y-87571483D01*
X59078202Y-87706328D01*
X59078206Y-87706335D01*
X59164452Y-87821544D01*
X59164455Y-87821547D01*
X59279664Y-87907793D01*
X59279671Y-87907797D01*
X59411081Y-87956810D01*
X59467015Y-87998681D01*
X59491432Y-88064145D01*
X59476580Y-88132418D01*
X59455430Y-88160673D01*
X59333503Y-88282600D01*
X59197965Y-88476169D01*
X59197964Y-88476171D01*
X59098098Y-88690335D01*
X59098094Y-88690344D01*
X59036938Y-88918586D01*
X59036936Y-88918596D01*
X59016341Y-89153999D01*
X59016341Y-89154000D01*
X53252000Y-89154000D01*
X53252000Y-89082111D01*
X53246369Y-89062933D01*
X53246370Y-88993064D01*
X53284145Y-88934286D01*
X53347701Y-88905262D01*
X53365347Y-88904000D01*
X54082636Y-88904000D01*
X54082635Y-88903999D01*
X54025432Y-88690513D01*
X54025429Y-88690507D01*
X53925600Y-88476422D01*
X53925599Y-88476420D01*
X53790113Y-88282926D01*
X53790108Y-88282920D01*
X53668053Y-88160865D01*
X53634568Y-88099542D01*
X53639552Y-88029850D01*
X53681424Y-87973917D01*
X53712400Y-87957002D01*
X53844331Y-87907796D01*
X53959546Y-87821546D01*
X54045796Y-87706331D01*
X54096091Y-87571483D01*
X54102500Y-87511873D01*
X54102499Y-85716128D01*
X54096091Y-85656517D01*
X54089143Y-85637889D01*
X54045797Y-85521671D01*
X54045793Y-85521664D01*
X53959547Y-85406455D01*
X53959544Y-85406452D01*
X53844335Y-85320206D01*
X53844328Y-85320202D01*
X53709482Y-85269908D01*
X53709483Y-85269908D01*
X53649883Y-85263501D01*
X53649881Y-85263500D01*
X53649873Y-85263500D01*
X53649864Y-85263500D01*
X51854129Y-85263500D01*
X51854123Y-85263501D01*
X51794516Y-85269908D01*
X51659671Y-85320202D01*
X51659664Y-85320206D01*
X51544455Y-85406452D01*
X51544452Y-85406455D01*
X51458206Y-85521664D01*
X51458202Y-85521671D01*
X51407908Y-85656517D01*
X51403736Y-85695330D01*
X51401501Y-85716123D01*
X51401500Y-85716135D01*
X51401500Y-87511870D01*
X51401501Y-87511876D01*
X51407908Y-87571483D01*
X51458202Y-87706328D01*
X51458206Y-87706335D01*
X51544452Y-87821544D01*
X51544455Y-87821547D01*
X51659664Y-87907793D01*
X51659671Y-87907797D01*
X51659674Y-87907798D01*
X51791598Y-87957002D01*
X51847531Y-87998873D01*
X51871949Y-88064337D01*
X51857098Y-88132610D01*
X51835947Y-88160865D01*
X51713886Y-88282926D01*
X51578400Y-88476420D01*
X51578399Y-88476422D01*
X51478570Y-88690507D01*
X51478567Y-88690513D01*
X51421364Y-88903999D01*
X51421364Y-88904000D01*
X52138653Y-88904000D01*
X52205692Y-88923685D01*
X52251447Y-88976489D01*
X52261391Y-89045647D01*
X52257631Y-89062933D01*
X52252000Y-89082111D01*
X52252000Y-89225888D01*
X52257631Y-89245067D01*
X52257630Y-89314936D01*
X52219855Y-89373714D01*
X52156299Y-89402738D01*
X52138653Y-89404000D01*
X51421364Y-89404000D01*
X51478567Y-89617486D01*
X51478570Y-89617492D01*
X51578399Y-89831578D01*
X51713894Y-90025082D01*
X51880917Y-90192105D01*
X52067031Y-90322425D01*
X52110656Y-90377003D01*
X52117848Y-90446501D01*
X52086326Y-90508856D01*
X52067031Y-90525575D01*
X51880922Y-90655890D01*
X51880920Y-90655891D01*
X51713891Y-90822920D01*
X51713886Y-90822926D01*
X51578400Y-91016420D01*
X51578399Y-91016422D01*
X51478570Y-91230507D01*
X51478567Y-91230513D01*
X51421364Y-91443999D01*
X51421364Y-91444000D01*
X52138653Y-91444000D01*
X52205692Y-91463685D01*
X52251447Y-91516489D01*
X52261391Y-91585647D01*
X52257631Y-91602933D01*
X52252000Y-91622111D01*
X52252000Y-91765888D01*
X52257631Y-91785067D01*
X52257630Y-91854936D01*
X52219855Y-91913714D01*
X52156299Y-91942738D01*
X52138653Y-91944000D01*
X51421364Y-91944000D01*
X51478567Y-92157486D01*
X51478570Y-92157492D01*
X51578399Y-92371578D01*
X51713894Y-92565082D01*
X51880917Y-92732105D01*
X52066595Y-92862119D01*
X52110219Y-92916696D01*
X52117412Y-92986195D01*
X52085890Y-93048549D01*
X52066595Y-93065269D01*
X51880594Y-93195508D01*
X51713505Y-93362597D01*
X51577965Y-93556169D01*
X51577964Y-93556171D01*
X51478098Y-93770335D01*
X51478094Y-93770344D01*
X51416938Y-93998586D01*
X51416936Y-93998596D01*
X51396341Y-94233999D01*
X51396341Y-94234000D01*
X48006000Y-94234000D01*
X48006000Y-73936194D01*
X48025685Y-73869155D01*
X48078489Y-73823400D01*
X48147647Y-73813456D01*
X48211203Y-73842481D01*
X48242199Y-73883397D01*
X48256120Y-73912982D01*
X48257667Y-73916557D01*
X48268588Y-73944141D01*
X48278253Y-73961721D01*
X48282623Y-73969670D01*
X48282883Y-73970142D01*
X48284651Y-73973613D01*
X48337753Y-74086460D01*
X48337756Y-74086466D01*
X48404566Y-74191742D01*
X48406549Y-74195096D01*
X48420833Y-74221078D01*
X48420854Y-74221111D01*
X48420862Y-74221125D01*
X48420866Y-74221131D01*
X48420867Y-74221132D01*
X48438303Y-74245130D01*
X48440494Y-74248354D01*
X48507318Y-74353653D01*
X48586825Y-74449761D01*
X48589212Y-74452839D01*
X48605520Y-74475283D01*
X48606651Y-74476840D01*
X48606656Y-74476845D01*
X48626959Y-74498467D01*
X48629533Y-74501387D01*
X48650653Y-74526916D01*
X48709037Y-74597490D01*
X48709040Y-74597493D01*
X48799961Y-74682873D01*
X48802716Y-74685628D01*
X48823013Y-74707244D01*
X48823020Y-74707250D01*
X48823024Y-74707254D01*
X48845900Y-74726179D01*
X48848790Y-74728726D01*
X48939727Y-74814122D01*
X49040608Y-74887416D01*
X49043681Y-74889800D01*
X49066537Y-74908709D01*
X49066562Y-74908727D01*
X49066569Y-74908733D01*
X49066574Y-74908736D01*
X49091622Y-74924632D01*
X49094841Y-74926819D01*
X49195746Y-75000131D01*
X49305036Y-75060213D01*
X49308371Y-75062186D01*
X49333414Y-75078080D01*
X49333433Y-75078090D01*
X49333446Y-75078098D01*
X49333458Y-75078103D01*
X49333468Y-75078109D01*
X49360312Y-75090741D01*
X49363764Y-75092499D01*
X49473060Y-75152585D01*
X49589024Y-75198498D01*
X49592570Y-75200032D01*
X49619446Y-75212679D01*
X49647689Y-75221855D01*
X49651318Y-75223162D01*
X49767294Y-75269081D01*
X49888116Y-75300103D01*
X49891819Y-75301179D01*
X49920047Y-75310351D01*
X49920051Y-75310351D01*
X49920058Y-75310354D01*
X49949082Y-75315890D01*
X49949215Y-75315916D01*
X49952987Y-75316759D01*
X50073809Y-75347781D01*
X50073817Y-75347782D01*
X50073821Y-75347783D01*
X50102649Y-75351424D01*
X50197573Y-75363415D01*
X50201376Y-75364018D01*
X50230542Y-75369582D01*
X50260174Y-75371446D01*
X50264023Y-75371810D01*
X50324143Y-75379405D01*
X50387761Y-75387442D01*
X50387767Y-75387442D01*
X50387771Y-75387443D01*
X50387773Y-75387443D01*
X50512457Y-75387443D01*
X50516352Y-75387565D01*
X50545963Y-75389429D01*
X50546000Y-75389429D01*
X50546037Y-75389429D01*
X50575648Y-75387565D01*
X50579543Y-75387443D01*
X50704229Y-75387443D01*
X50704238Y-75387442D01*
X50730780Y-75384088D01*
X50827982Y-75371809D01*
X50831822Y-75371446D01*
X50861458Y-75369582D01*
X50890648Y-75364013D01*
X50894420Y-75363416D01*
X51018191Y-75347781D01*
X51139025Y-75316755D01*
X51142782Y-75315917D01*
X51154307Y-75313717D01*
X51171942Y-75310354D01*
X51171945Y-75310352D01*
X51171955Y-75310351D01*
X51200192Y-75301176D01*
X51203888Y-75300101D01*
X51324706Y-75269081D01*
X51440689Y-75223159D01*
X51444302Y-75221858D01*
X51472554Y-75212679D01*
X51499433Y-75200030D01*
X51502940Y-75198512D01*
X51618940Y-75152585D01*
X51728260Y-75092485D01*
X51731671Y-75090748D01*
X51758531Y-75078109D01*
X51758540Y-75078105D01*
X51758543Y-75078102D01*
X51758554Y-75078098D01*
X51783635Y-75062180D01*
X51786931Y-75060231D01*
X51896254Y-75000131D01*
X51997204Y-74926785D01*
X52000325Y-74924665D01*
X52025431Y-74908733D01*
X52048334Y-74889785D01*
X52051355Y-74887443D01*
X52152273Y-74814122D01*
X52243217Y-74728719D01*
X52246089Y-74726187D01*
X52268976Y-74707254D01*
X52289301Y-74685609D01*
X52292001Y-74682908D01*
X52382961Y-74597492D01*
X52462492Y-74501355D01*
X52465020Y-74498487D01*
X52485349Y-74476840D01*
X52502812Y-74452803D01*
X52505140Y-74449802D01*
X52584678Y-74353658D01*
X52651536Y-74248305D01*
X52653677Y-74245156D01*
X52671138Y-74221125D01*
X52671139Y-74221122D01*
X52671147Y-74221111D01*
X52685451Y-74195092D01*
X52687411Y-74191776D01*
X52754245Y-74086464D01*
X52807368Y-73973570D01*
X52809106Y-73970161D01*
X52823412Y-73944140D01*
X52834351Y-73916510D01*
X52835865Y-73913011D01*
X52888986Y-73800125D01*
X52927558Y-73681409D01*
X52928836Y-73677866D01*
X52939769Y-73650254D01*
X52947153Y-73621492D01*
X52948232Y-73617782D01*
X52978483Y-73524680D01*
X52986776Y-73499156D01*
X52987060Y-73497670D01*
X52989361Y-73485602D01*
X53010153Y-73376603D01*
X53010984Y-73372891D01*
X53018376Y-73344102D01*
X53022096Y-73314649D01*
X53022700Y-73310834D01*
X53046074Y-73188304D01*
X53046122Y-73187555D01*
X53047774Y-73161272D01*
X53053907Y-73063799D01*
X53054269Y-73059975D01*
X53057990Y-73030521D01*
X53057990Y-73030517D01*
X53057991Y-73030512D01*
X53058630Y-72989804D01*
X53058742Y-72986949D01*
X53065945Y-72872471D01*
X53058742Y-72757995D01*
X53058629Y-72755134D01*
X53057991Y-72714430D01*
X53054269Y-72684965D01*
X53053906Y-72681136D01*
X53046074Y-72556638D01*
X53022699Y-72434102D01*
X53022095Y-72430283D01*
X53021602Y-72426383D01*
X53018376Y-72400840D01*
X53010989Y-72372070D01*
X53010152Y-72368331D01*
X52986776Y-72245786D01*
X52948223Y-72127134D01*
X52947153Y-72123449D01*
X52939769Y-72094688D01*
X52928843Y-72067092D01*
X52927535Y-72063459D01*
X52888986Y-71944817D01*
X52874399Y-71913819D01*
X52835880Y-71831961D01*
X52834332Y-71828384D01*
X52833520Y-71826333D01*
X52823412Y-71800802D01*
X52809113Y-71774794D01*
X52807347Y-71771326D01*
X52766259Y-71684010D01*
X52754245Y-71658478D01*
X52687428Y-71553192D01*
X52685449Y-71549845D01*
X52671151Y-71523838D01*
X52671138Y-71523816D01*
X52653697Y-71499812D01*
X52651517Y-71496606D01*
X52584678Y-71391284D01*
X52584674Y-71391279D01*
X52584672Y-71391276D01*
X52505173Y-71295179D01*
X52502794Y-71292113D01*
X52485349Y-71268102D01*
X52485347Y-71268100D01*
X52485344Y-71268096D01*
X52465040Y-71246474D01*
X52462464Y-71243553D01*
X52382961Y-71147450D01*
X52382955Y-71147444D01*
X52382947Y-71147435D01*
X52293262Y-71063217D01*
X52292034Y-71062064D01*
X52289281Y-71059310D01*
X52268979Y-71037691D01*
X52268978Y-71037690D01*
X52268976Y-71037688D01*
X52246103Y-71018765D01*
X52243187Y-71016194D01*
X52179458Y-70956349D01*
X52152273Y-70930820D01*
X52086525Y-70883051D01*
X52051380Y-70857516D01*
X52048301Y-70855128D01*
X52025453Y-70836225D01*
X52025435Y-70836212D01*
X52025431Y-70836209D01*
X52000352Y-70820293D01*
X51997163Y-70818126D01*
X51896254Y-70744811D01*
X51896255Y-70744811D01*
X51896253Y-70744810D01*
X51786971Y-70684731D01*
X51783618Y-70682748D01*
X51758575Y-70666855D01*
X51758530Y-70666830D01*
X51731670Y-70654191D01*
X51728214Y-70652430D01*
X51628770Y-70597761D01*
X51618946Y-70592360D01*
X51618944Y-70592359D01*
X51618940Y-70592357D01*
X51567456Y-70571973D01*
X51502980Y-70546444D01*
X51499407Y-70544898D01*
X51472560Y-70532266D01*
X51472554Y-70532263D01*
X51444327Y-70523091D01*
X51440664Y-70521772D01*
X51324707Y-70475861D01*
X51241717Y-70454553D01*
X51203916Y-70444847D01*
X51200180Y-70443761D01*
X51171977Y-70434596D01*
X51171926Y-70434583D01*
X51142783Y-70429024D01*
X51138982Y-70428175D01*
X51018194Y-70397161D01*
X51018183Y-70397159D01*
X50894463Y-70381530D01*
X50890616Y-70380921D01*
X50861467Y-70375361D01*
X50861449Y-70375358D01*
X50854212Y-70374903D01*
X50831840Y-70373496D01*
X50827960Y-70373129D01*
X50704240Y-70357499D01*
X50704229Y-70357499D01*
X50579517Y-70357499D01*
X50575631Y-70357377D01*
X50569335Y-70356981D01*
X50546572Y-70355548D01*
X50546556Y-70355548D01*
X50546000Y-70355513D01*
X50545998Y-70355513D01*
X50545997Y-70355513D01*
X50545992Y-70355513D01*
X50526784Y-70356721D01*
X50516368Y-70357377D01*
X50512483Y-70357499D01*
X50387759Y-70357499D01*
X50264038Y-70373129D01*
X50260158Y-70373496D01*
X50233401Y-70375179D01*
X50230554Y-70375358D01*
X50230535Y-70375361D01*
X50201381Y-70380921D01*
X50197535Y-70381530D01*
X50073818Y-70397159D01*
X50073811Y-70397160D01*
X50073809Y-70397161D01*
X50059286Y-70400890D01*
X49953016Y-70428175D01*
X49949215Y-70429024D01*
X49920068Y-70434584D01*
X49920028Y-70434595D01*
X49891813Y-70443763D01*
X49888072Y-70444850D01*
X49767291Y-70475861D01*
X49651324Y-70521774D01*
X49647664Y-70523092D01*
X49619447Y-70532262D01*
X49619441Y-70532264D01*
X49592600Y-70544894D01*
X49589029Y-70546439D01*
X49473060Y-70592357D01*
X49363793Y-70652426D01*
X49360323Y-70654194D01*
X49333483Y-70666824D01*
X49333408Y-70666865D01*
X49308379Y-70682749D01*
X49305026Y-70684732D01*
X49195745Y-70744811D01*
X49094851Y-70818114D01*
X49091632Y-70820301D01*
X49066583Y-70836199D01*
X49066530Y-70836237D01*
X49043688Y-70855135D01*
X49040610Y-70857522D01*
X48939724Y-70930822D01*
X48939723Y-70930823D01*
X48848807Y-71016197D01*
X48845888Y-71018771D01*
X48823027Y-71037684D01*
X48823008Y-71037702D01*
X48809586Y-71051996D01*
X48802706Y-71059321D01*
X48799955Y-71062072D01*
X48709038Y-71147450D01*
X48709034Y-71147454D01*
X48629527Y-71243560D01*
X48626954Y-71246479D01*
X48606646Y-71268107D01*
X48606643Y-71268111D01*
X48589215Y-71292098D01*
X48586829Y-71295174D01*
X48507321Y-71391285D01*
X48440497Y-71496582D01*
X48438315Y-71499793D01*
X48436063Y-71502894D01*
X48422178Y-71522005D01*
X48420859Y-71523821D01*
X48420830Y-71523867D01*
X48406554Y-71549839D01*
X48404570Y-71553193D01*
X48337756Y-71658475D01*
X48337752Y-71658481D01*
X48284651Y-71771328D01*
X48282883Y-71774799D01*
X48268593Y-71800791D01*
X48268583Y-71800811D01*
X48257663Y-71828391D01*
X48256117Y-71831963D01*
X48242200Y-71861540D01*
X48195846Y-71913819D01*
X48128586Y-71932738D01*
X48061775Y-71912290D01*
X48016626Y-71858968D01*
X48006000Y-71808746D01*
X48006000Y-65402000D01*
X48025685Y-65334961D01*
X48078489Y-65289206D01*
X48130000Y-65278000D01*
X68731614Y-65278000D01*
X68798653Y-65297685D01*
G37*
G04 #@! TD.AperFunction*
G04 #@! TA.AperFunction,Conductor*
G36*
X89442072Y-116945241D02*
G01*
X89448221Y-116951198D01*
X89726132Y-117562501D01*
X89726436Y-117571450D01*
X89723754Y-117575616D01*
X89555616Y-117743754D01*
X89547343Y-117747181D01*
X89542501Y-117746132D01*
X88931198Y-117468221D01*
X88925085Y-117461677D01*
X88925219Y-117453119D01*
X89071437Y-117097802D01*
X89077753Y-117091457D01*
X89433119Y-116945220D01*
X89442072Y-116945241D01*
G37*
G04 #@! TD.AperFunction*
G04 #@! TA.AperFunction,Conductor*
G36*
X93519903Y-122255427D02*
G01*
X93522183Y-122258647D01*
X94171970Y-123615593D01*
X94172452Y-123624535D01*
X94166470Y-123631199D01*
X94165906Y-123631451D01*
X93396488Y-123951134D01*
X93387533Y-123951143D01*
X93387510Y-123951134D01*
X92618093Y-123631451D01*
X92611768Y-123625112D01*
X92611777Y-123616157D01*
X92612017Y-123615617D01*
X93261817Y-122258646D01*
X93268481Y-122252665D01*
X93272370Y-122252000D01*
X93511630Y-122252000D01*
X93519903Y-122255427D01*
G37*
G04 #@! TD.AperFunction*
G04 #@! TA.AperFunction,Conductor*
G36*
X56741311Y-48402712D02*
G01*
X56747268Y-48408861D01*
X56895123Y-48763498D01*
X56895144Y-48772452D01*
X56895123Y-48772502D01*
X56747268Y-49127138D01*
X56740921Y-49133456D01*
X56732362Y-49133591D01*
X56103593Y-48897846D01*
X56097049Y-48891733D01*
X56096000Y-48886891D01*
X56096000Y-48649108D01*
X56099427Y-48640835D01*
X56103593Y-48638153D01*
X56732364Y-48402408D01*
X56741311Y-48402712D01*
G37*
G04 #@! TD.AperFunction*
G04 #@! TA.AperFunction,Conductor*
G36*
X93730489Y-51816865D02*
G01*
X94499906Y-52136548D01*
X94506231Y-52142887D01*
X94506222Y-52151842D01*
X94505970Y-52152406D01*
X93856183Y-53509353D01*
X93849519Y-53515335D01*
X93845630Y-53516000D01*
X93606370Y-53516000D01*
X93598097Y-53512573D01*
X93595817Y-53509353D01*
X92946029Y-52152406D01*
X92945547Y-52143464D01*
X92951529Y-52136800D01*
X92952093Y-52136548D01*
X93721511Y-51816865D01*
X93730466Y-51816856D01*
X93730489Y-51816865D01*
G37*
G04 #@! TD.AperFunction*
G04 #@! TA.AperFunction,Conductor*
G36*
X51027616Y-50150245D02*
G01*
X51195754Y-50318383D01*
X51199181Y-50326656D01*
X51198132Y-50331498D01*
X50920221Y-50942801D01*
X50913677Y-50948914D01*
X50905118Y-50948779D01*
X50549804Y-50802563D01*
X50543457Y-50796245D01*
X50543436Y-50796195D01*
X50397220Y-50440881D01*
X50397241Y-50431927D01*
X50403196Y-50425779D01*
X51014503Y-50147866D01*
X51023450Y-50147563D01*
X51027616Y-50150245D01*
G37*
G04 #@! TD.AperFunction*
G04 #@! TA.AperFunction,Conductor*
G36*
X52455038Y-116567505D02*
G01*
X52458744Y-116570004D01*
X52717195Y-116828455D01*
X52720622Y-116836728D01*
X52719768Y-116841115D01*
X52200122Y-118125822D01*
X52193843Y-118132207D01*
X52184889Y-118132281D01*
X52184830Y-118132257D01*
X51870889Y-118002643D01*
X51460387Y-117833162D01*
X51454048Y-117826837D01*
X51454037Y-117826812D01*
X51154949Y-117102385D01*
X51154960Y-117093433D01*
X51161297Y-117087109D01*
X52446084Y-116567431D01*
X52455038Y-116567505D01*
G37*
G04 #@! TD.AperFunction*
G04 #@! TA.AperFunction,Conductor*
G36*
X57059484Y-99568863D02*
G01*
X57829335Y-99888726D01*
X57835659Y-99895064D01*
X57835650Y-99904019D01*
X57835583Y-99904176D01*
X57248552Y-101260946D01*
X57242122Y-101267178D01*
X57237814Y-101268000D01*
X56872186Y-101268000D01*
X56863913Y-101264573D01*
X56861448Y-101260946D01*
X56274416Y-99904176D01*
X56274276Y-99895222D01*
X56280508Y-99888792D01*
X56280574Y-99888763D01*
X57050511Y-99568864D01*
X57059466Y-99568856D01*
X57059484Y-99568863D01*
G37*
G04 #@! TD.AperFunction*
G04 #@! TA.AperFunction,Conductor*
G36*
X84532407Y-126616153D02*
G01*
X84538951Y-126622266D01*
X84540000Y-126627108D01*
X84540000Y-126864891D01*
X84536573Y-126873164D01*
X84532407Y-126875846D01*
X83903637Y-127111591D01*
X83894688Y-127111287D01*
X83888731Y-127105138D01*
X83792017Y-126873164D01*
X83740875Y-126750499D01*
X83740855Y-126741550D01*
X83888732Y-126386859D01*
X83895078Y-126380543D01*
X83903635Y-126380408D01*
X84532407Y-126616153D01*
G37*
G04 #@! TD.AperFunction*
G04 #@! TA.AperFunction,Conductor*
G36*
X95092587Y-123604291D02*
G01*
X95928216Y-123949438D01*
X95934553Y-123955763D01*
X95934562Y-123955784D01*
X96279707Y-124791412D01*
X96279698Y-124800367D01*
X96273587Y-124806596D01*
X94472013Y-125595703D01*
X94463060Y-125595883D01*
X94459046Y-125593259D01*
X94290740Y-125424953D01*
X94287313Y-125416680D01*
X94288296Y-125411986D01*
X94555476Y-124802000D01*
X95077404Y-123610409D01*
X95083861Y-123604208D01*
X95092587Y-123604291D01*
G37*
G04 #@! TD.AperFunction*
G04 #@! TA.AperFunction,Conductor*
G36*
X77997311Y-129428712D02*
G01*
X78003268Y-129434861D01*
X78151123Y-129789498D01*
X78151144Y-129798452D01*
X78151123Y-129798502D01*
X78003268Y-130153138D01*
X77996921Y-130159456D01*
X77988362Y-130159591D01*
X77359593Y-129923846D01*
X77353049Y-129917733D01*
X77352000Y-129912891D01*
X77352000Y-129675108D01*
X77355427Y-129666835D01*
X77359593Y-129664153D01*
X77988364Y-129428408D01*
X77997311Y-129428712D01*
G37*
G04 #@! TD.AperFunction*
G04 #@! TA.AperFunction,Conductor*
G36*
X69743616Y-131176245D02*
G01*
X69911754Y-131344383D01*
X69915181Y-131352656D01*
X69914132Y-131357498D01*
X69636221Y-131968801D01*
X69629677Y-131974914D01*
X69621118Y-131974779D01*
X69265804Y-131828563D01*
X69259457Y-131822245D01*
X69259436Y-131822195D01*
X69113220Y-131466881D01*
X69113241Y-131457927D01*
X69119196Y-131451779D01*
X69730503Y-131173866D01*
X69739450Y-131173563D01*
X69743616Y-131176245D01*
G37*
G04 #@! TD.AperFunction*
G04 #@! TA.AperFunction,Conductor*
G36*
X64758125Y-132354886D02*
G01*
X64926167Y-132522928D01*
X64929594Y-132531201D01*
X64929436Y-132533117D01*
X64837621Y-133086233D01*
X64832886Y-133093833D01*
X64826100Y-133096017D01*
X64440168Y-133096698D01*
X64431889Y-133093286D01*
X64362577Y-133023627D01*
X64162474Y-132822520D01*
X64159068Y-132814239D01*
X64162516Y-132805974D01*
X64163568Y-132805046D01*
X64742665Y-132353928D01*
X64751294Y-132351548D01*
X64758125Y-132354886D01*
G37*
G04 #@! TD.AperFunction*
G04 #@! TA.AperFunction,Conductor*
G36*
X78046880Y-126597219D02*
G01*
X78402195Y-126743436D01*
X78408542Y-126749754D01*
X78408563Y-126749804D01*
X78554779Y-127105118D01*
X78554758Y-127114072D01*
X78548801Y-127120221D01*
X77937498Y-127398132D01*
X77928549Y-127398436D01*
X77924383Y-127395754D01*
X77756245Y-127227616D01*
X77752818Y-127219343D01*
X77753866Y-127214505D01*
X78031779Y-126603197D01*
X78038322Y-126597085D01*
X78046880Y-126597219D01*
G37*
G04 #@! TD.AperFunction*
G04 #@! TA.AperFunction,Conductor*
G36*
X72086407Y-134490153D02*
G01*
X72092951Y-134496266D01*
X72094000Y-134501108D01*
X72094000Y-134738891D01*
X72090573Y-134747164D01*
X72086407Y-134749846D01*
X71457637Y-134985591D01*
X71448688Y-134985287D01*
X71442731Y-134979138D01*
X71294875Y-134624499D01*
X71294855Y-134615550D01*
X71442732Y-134260859D01*
X71449078Y-134254543D01*
X71457635Y-134254408D01*
X72086407Y-134490153D01*
G37*
G04 #@! TD.AperFunction*
G04 #@! TA.AperFunction,Conductor*
G36*
X73679311Y-134254712D02*
G01*
X73685268Y-134260861D01*
X73833123Y-134615498D01*
X73833144Y-134624452D01*
X73833123Y-134624502D01*
X73685268Y-134979138D01*
X73678921Y-134985456D01*
X73670362Y-134985591D01*
X73041593Y-134749846D01*
X73035049Y-134743733D01*
X73034000Y-134738891D01*
X73034000Y-134501108D01*
X73037427Y-134492835D01*
X73041593Y-134490153D01*
X73670364Y-134254408D01*
X73679311Y-134254712D01*
G37*
G04 #@! TD.AperFunction*
G04 #@! TA.AperFunction,Conductor*
G36*
X67740135Y-124232363D02*
G01*
X67743405Y-124234666D01*
X67912533Y-124403794D01*
X67915960Y-124412067D01*
X67915276Y-124416008D01*
X67439838Y-125745188D01*
X67433825Y-125751823D01*
X67424881Y-125752263D01*
X67424357Y-125752062D01*
X66700387Y-125453162D01*
X66694048Y-125446837D01*
X66694037Y-125446812D01*
X66395137Y-124722842D01*
X66395148Y-124713887D01*
X66401487Y-124707562D01*
X66401980Y-124707372D01*
X67731191Y-124231923D01*
X67740135Y-124232363D01*
G37*
G04 #@! TD.AperFunction*
G04 #@! TA.AperFunction,Conductor*
G36*
X97700670Y-50526564D02*
G01*
X99119647Y-51026602D01*
X99126311Y-51032584D01*
X99126793Y-51041526D01*
X99126572Y-51042103D01*
X98808562Y-51812214D01*
X98802237Y-51818553D01*
X98802214Y-51818562D01*
X98032103Y-52136572D01*
X98023148Y-52136563D01*
X98016823Y-52130224D01*
X98016602Y-52129647D01*
X97516565Y-50710671D01*
X97517047Y-50701729D01*
X97519324Y-50698512D01*
X97688510Y-50529326D01*
X97696782Y-50525900D01*
X97700670Y-50526564D01*
G37*
G04 #@! TD.AperFunction*
G04 #@! TA.AperFunction,Conductor*
G36*
X56672407Y-46098153D02*
G01*
X56678951Y-46104266D01*
X56680000Y-46109108D01*
X56680000Y-46346891D01*
X56676573Y-46355164D01*
X56672407Y-46357846D01*
X56043637Y-46593591D01*
X56034688Y-46593287D01*
X56028731Y-46587138D01*
X55880875Y-46232499D01*
X55880855Y-46223550D01*
X56028732Y-45868859D01*
X56035078Y-45862543D01*
X56043635Y-45862408D01*
X56672407Y-46098153D01*
G37*
G04 #@! TD.AperFunction*
G04 #@! TA.AperFunction,Conductor*
G36*
X70463138Y-103018731D02*
G01*
X70469456Y-103025078D01*
X70469591Y-103033637D01*
X70233847Y-103662407D01*
X70227734Y-103668951D01*
X70222892Y-103670000D01*
X69985108Y-103670000D01*
X69976835Y-103666573D01*
X69974153Y-103662407D01*
X69738408Y-103033635D01*
X69738712Y-103024688D01*
X69744859Y-103018732D01*
X70099500Y-102870875D01*
X70108449Y-102870855D01*
X70463138Y-103018731D01*
G37*
G04 #@! TD.AperFunction*
G04 #@! TA.AperFunction,Conductor*
G36*
X65662008Y-121691923D02*
G01*
X66991188Y-122167361D01*
X66997823Y-122173374D01*
X66998263Y-122182318D01*
X66998062Y-122182842D01*
X66699162Y-122906812D01*
X66692837Y-122913151D01*
X66692812Y-122913162D01*
X65968842Y-123212062D01*
X65959887Y-123212051D01*
X65953562Y-123205712D01*
X65953361Y-123205188D01*
X65848905Y-122913162D01*
X65477922Y-121876008D01*
X65478363Y-121867064D01*
X65480663Y-121863797D01*
X65649795Y-121694665D01*
X65658067Y-121691239D01*
X65662008Y-121691923D01*
G37*
G04 #@! TD.AperFunction*
G04 #@! TA.AperFunction,Conductor*
G36*
X60303138Y-106320731D02*
G01*
X60309456Y-106327078D01*
X60309591Y-106335637D01*
X60073847Y-106964407D01*
X60067734Y-106970951D01*
X60062892Y-106972000D01*
X59825108Y-106972000D01*
X59816835Y-106968573D01*
X59814153Y-106964407D01*
X59578408Y-106335635D01*
X59578712Y-106326688D01*
X59584859Y-106320732D01*
X59939500Y-106172875D01*
X59948449Y-106172855D01*
X60303138Y-106320731D01*
G37*
G04 #@! TD.AperFunction*
G04 #@! TA.AperFunction,Conductor*
G36*
X89087847Y-132083078D02*
G01*
X89093223Y-132087590D01*
X89337707Y-132470822D01*
X89339543Y-132477115D01*
X89339543Y-132838573D01*
X89336116Y-132846846D01*
X89327843Y-132850273D01*
X89324212Y-132849695D01*
X88577314Y-132605865D01*
X88570513Y-132600040D01*
X88569823Y-132591112D01*
X88570120Y-132590304D01*
X88715547Y-132236901D01*
X88721864Y-132230556D01*
X88721867Y-132230554D01*
X89078893Y-132083069D01*
X89087847Y-132083078D01*
G37*
G04 #@! TD.AperFunction*
G04 #@! TA.AperFunction,Conductor*
G36*
X61228215Y-85765336D02*
G01*
X62212759Y-85977013D01*
X62220127Y-85982103D01*
X62222000Y-85988452D01*
X62222000Y-87239547D01*
X62218573Y-87247820D01*
X62212759Y-87250986D01*
X61228222Y-87462662D01*
X61219414Y-87461050D01*
X61217498Y-87459503D01*
X60379286Y-86622276D01*
X60375855Y-86614007D01*
X60379276Y-86605733D01*
X61217497Y-85768496D01*
X61225770Y-85765076D01*
X61228215Y-85765336D01*
G37*
G04 #@! TD.AperFunction*
G04 #@! TA.AperFunction,Conductor*
G36*
X93949067Y-132298497D02*
G01*
X93954099Y-132304175D01*
X94102323Y-132659698D01*
X94102344Y-132668652D01*
X94102323Y-132668702D01*
X93954099Y-133024224D01*
X93947752Y-133030542D01*
X93940179Y-133030998D01*
X93311779Y-132857074D01*
X93304720Y-132851565D01*
X93303200Y-132845798D01*
X93303200Y-132482601D01*
X93306627Y-132474328D01*
X93311777Y-132471326D01*
X93940179Y-132297401D01*
X93949067Y-132298497D01*
G37*
G04 #@! TD.AperFunction*
G04 #@! TA.AperFunction,Conductor*
G36*
X80816718Y-109401427D02*
G01*
X80820083Y-109408500D01*
X80982671Y-110985116D01*
X80980111Y-110993697D01*
X80972233Y-110997954D01*
X80971048Y-110998016D01*
X80184000Y-110999000D01*
X79396951Y-110998016D01*
X79388683Y-110994579D01*
X79385266Y-110986301D01*
X79385327Y-110985129D01*
X79547917Y-109408499D01*
X79552174Y-109400622D01*
X79559555Y-109398000D01*
X80808445Y-109398000D01*
X80816718Y-109401427D01*
G37*
G04 #@! TD.AperFunction*
G04 #@! TA.AperFunction,Conductor*
G36*
X93362190Y-134039053D02*
G01*
X93718395Y-134185636D01*
X93724742Y-134191954D01*
X93724763Y-134192004D01*
X93871345Y-134548207D01*
X93871324Y-134557161D01*
X93866292Y-134562839D01*
X93298964Y-134884201D01*
X93290076Y-134885297D01*
X93284924Y-134882294D01*
X93028105Y-134625475D01*
X93024678Y-134617202D01*
X93026197Y-134611437D01*
X93347562Y-134044105D01*
X93354619Y-134038598D01*
X93362190Y-134039053D01*
G37*
G04 #@! TD.AperFunction*
G04 #@! TA.AperFunction,Conductor*
G36*
X89408222Y-136713125D02*
G01*
X89415280Y-136718634D01*
X89416800Y-136724401D01*
X89416800Y-137087598D01*
X89413373Y-137095871D01*
X89408221Y-137098874D01*
X88779820Y-137272798D01*
X88770932Y-137271702D01*
X88765901Y-137266025D01*
X88617675Y-136910499D01*
X88617655Y-136901550D01*
X88765901Y-136545973D01*
X88772247Y-136539657D01*
X88779820Y-136539201D01*
X89408222Y-136713125D01*
G37*
G04 #@! TD.AperFunction*
G04 #@! TA.AperFunction,Conductor*
G36*
X85342515Y-138649427D02*
G01*
X85345752Y-138655599D01*
X85487487Y-139432233D01*
X85485601Y-139440987D01*
X85478078Y-139445844D01*
X85476006Y-139446034D01*
X85090000Y-139447000D01*
X84703993Y-139446034D01*
X84695728Y-139442586D01*
X84692322Y-139434305D01*
X84692512Y-139432233D01*
X84834248Y-138655599D01*
X84839105Y-138648076D01*
X84845758Y-138646000D01*
X85334242Y-138646000D01*
X85342515Y-138649427D01*
G37*
G04 #@! TD.AperFunction*
G04 #@! TA.AperFunction,Conductor*
G36*
X56931470Y-51797068D02*
G01*
X56932800Y-51798667D01*
X57381741Y-52448053D01*
X57383627Y-52456807D01*
X57380390Y-52462979D01*
X57034979Y-52808390D01*
X57026706Y-52811817D01*
X57020053Y-52809741D01*
X56370667Y-52360800D01*
X56365810Y-52353277D01*
X56367696Y-52344523D01*
X56369023Y-52342927D01*
X56641293Y-52069293D01*
X56914924Y-51797025D01*
X56923205Y-51793620D01*
X56931470Y-51797068D01*
G37*
G04 #@! TD.AperFunction*
G04 #@! TA.AperFunction,Conductor*
G36*
X49306407Y-53718153D02*
G01*
X49312951Y-53724266D01*
X49314000Y-53729108D01*
X49314000Y-53966891D01*
X49310573Y-53975164D01*
X49306407Y-53977846D01*
X48677637Y-54213591D01*
X48668688Y-54213287D01*
X48662731Y-54207138D01*
X48514875Y-53852499D01*
X48514855Y-53843550D01*
X48662732Y-53488859D01*
X48669078Y-53482543D01*
X48677635Y-53482408D01*
X49306407Y-53718153D01*
G37*
G04 #@! TD.AperFunction*
G04 #@! TA.AperFunction,Conductor*
G36*
X73947527Y-122983315D02*
G01*
X74294684Y-123330472D01*
X74298111Y-123338745D01*
X74296822Y-123344083D01*
X73418916Y-125056491D01*
X73412093Y-125062289D01*
X73404038Y-125061967D01*
X72567784Y-124716562D01*
X72561446Y-124710236D01*
X72216032Y-123873960D01*
X72216041Y-123865006D01*
X72221507Y-123859083D01*
X73933917Y-122981176D01*
X73942842Y-122980452D01*
X73947527Y-122983315D01*
G37*
G04 #@! TD.AperFunction*
G04 #@! TA.AperFunction,Conductor*
G36*
X85084987Y-139050398D02*
G01*
X85089844Y-139057921D01*
X85090034Y-139059993D01*
X85091000Y-139446000D01*
X85090034Y-139832006D01*
X85086586Y-139840271D01*
X85078305Y-139843677D01*
X85076233Y-139843487D01*
X84299599Y-139701751D01*
X84292076Y-139696894D01*
X84290000Y-139690241D01*
X84290000Y-139201758D01*
X84293427Y-139193485D01*
X84299598Y-139190248D01*
X85076234Y-139048512D01*
X85084987Y-139050398D01*
G37*
G04 #@! TD.AperFunction*
G04 #@! TA.AperFunction,Conductor*
G36*
X56282880Y-51921219D02*
G01*
X56638195Y-52067436D01*
X56644542Y-52073754D01*
X56644563Y-52073804D01*
X56790779Y-52429118D01*
X56790758Y-52438072D01*
X56784801Y-52444221D01*
X56173498Y-52722132D01*
X56164549Y-52722436D01*
X56160383Y-52719754D01*
X55992245Y-52551616D01*
X55988818Y-52543343D01*
X55989866Y-52538505D01*
X56267779Y-51927197D01*
X56274322Y-51921085D01*
X56282880Y-51921219D01*
G37*
G04 #@! TD.AperFunction*
G04 #@! TA.AperFunction,Conductor*
G36*
X74256518Y-139951108D02*
G01*
X74262999Y-139957287D01*
X74264000Y-139962021D01*
X74264000Y-140453978D01*
X74260573Y-140462251D01*
X74256518Y-140464891D01*
X72899925Y-140989184D01*
X72890973Y-140988970D01*
X72884903Y-140982761D01*
X72564864Y-140212488D01*
X72564856Y-140203534D01*
X72564865Y-140203511D01*
X72667168Y-139957287D01*
X72884903Y-139433237D01*
X72891241Y-139426914D01*
X72899923Y-139426815D01*
X74256518Y-139951108D01*
G37*
G04 #@! TD.AperFunction*
G04 #@! TA.AperFunction,Conductor*
G36*
X60049138Y-121814731D02*
G01*
X60055456Y-121821078D01*
X60055591Y-121829637D01*
X59819847Y-122458407D01*
X59813734Y-122464951D01*
X59808892Y-122466000D01*
X59571108Y-122466000D01*
X59562835Y-122462573D01*
X59560153Y-122458407D01*
X59324408Y-121829635D01*
X59324712Y-121820688D01*
X59330859Y-121814732D01*
X59685500Y-121666875D01*
X59694449Y-121666855D01*
X60049138Y-121814731D01*
G37*
G04 #@! TD.AperFunction*
G04 #@! TA.AperFunction,Conductor*
G36*
X66394935Y-137422318D02*
G01*
X66395163Y-137422831D01*
X66695734Y-138146110D01*
X66695744Y-138155063D01*
X66695735Y-138155085D01*
X66695734Y-138155090D01*
X66395163Y-138878368D01*
X66388824Y-138884693D01*
X66379869Y-138884682D01*
X66379356Y-138884454D01*
X65103297Y-138280768D01*
X65097284Y-138274133D01*
X65096600Y-138270192D01*
X65096600Y-138031007D01*
X65100027Y-138022734D01*
X65103293Y-138020433D01*
X66379357Y-137416744D01*
X66388300Y-137416305D01*
X66394935Y-137422318D01*
G37*
G04 #@! TD.AperFunction*
G04 #@! TA.AperFunction,Conductor*
G36*
X67013330Y-134876517D02*
G01*
X67013830Y-134876739D01*
X68289904Y-135480432D01*
X68295916Y-135487066D01*
X68296600Y-135491007D01*
X68296600Y-135730192D01*
X68293173Y-135738465D01*
X68289903Y-135740768D01*
X67013843Y-136344454D01*
X67004899Y-136344894D01*
X66998264Y-136338881D01*
X66998036Y-136338368D01*
X66748736Y-135738465D01*
X66697464Y-135615087D01*
X66697454Y-135606138D01*
X66998036Y-134882830D01*
X67004375Y-134876506D01*
X67013330Y-134876517D01*
G37*
G04 #@! TD.AperFunction*
G04 #@! TA.AperFunction,Conductor*
G36*
X69127495Y-135999866D02*
G01*
X69531419Y-136183498D01*
X69738801Y-136277778D01*
X69744914Y-136284322D01*
X69744779Y-136292881D01*
X69598563Y-136648195D01*
X69592245Y-136654542D01*
X69592195Y-136654563D01*
X69236881Y-136800779D01*
X69227927Y-136800758D01*
X69221778Y-136794801D01*
X69158023Y-136654563D01*
X68943866Y-136183496D01*
X68943563Y-136174549D01*
X68946243Y-136170385D01*
X69114384Y-136002244D01*
X69122656Y-135998818D01*
X69127495Y-135999866D01*
G37*
G04 #@! TD.AperFunction*
M02*
